<svg width="41" height="40" viewBox="0 0 41 40" fill="none" xmlns="http://www.w3.org/2000/svg">
<g filter="url(#filter0_d_7289_355)">
<circle cx="20.1421" cy="20" r="12" fill="#17181F"/>
</g>
<g filter="url(#filter1_d_7289_355)">
<path d="M32.1421 20C32.1421 26.6274 26.7696 32 20.1421 32C13.5147 32 8.14214 26.6274 8.14214 20C8.14214 13.3726 13.5147 8 20.1421 8C26.7696 8 32.1421 13.3726 32.1421 20Z" fill="#FFD15C"/>
</g>
<path d="M12.904 27.3803C16.9015 31.3778 23.3828 31.3778 27.3803 27.3803C31.3778 23.3828 31.3778 16.9015 27.3803 12.904C23.3828 8.90649 16.9015 8.90649 12.904 12.904C8.90649 16.9015 8.90649 23.3828 12.904 27.3803Z" stroke="url(#paint0_linear_7289_355)" stroke-width="0.472531"/>
<path d="M22.1377 26.2402C20.8375 26.2402 19.7355 25.8749 18.745 25.1679C18.2311 24.8014 17.7767 24.3681 17.3668 23.8889C17.1799 23.6697 17.1316 23.4184 17.2319 23.1484C17.3297 22.8822 17.5266 22.72 17.8089 22.6742C18.1779 22.6135 18.5407 22.5256 18.8898 22.3882C19.6476 22.0885 20.2593 21.6032 20.7335 20.942C20.7694 20.8912 20.8029 20.8392 20.845 20.7934C21.074 20.542 21.3576 20.4467 21.6894 20.5123C22.1711 20.6076 22.5128 20.9593 22.5908 21.4447C22.6404 21.753 22.5661 22.0353 22.3816 22.2879C22.0547 22.7361 21.6733 23.1336 21.2362 23.4778C21.2115 23.4964 21.1867 23.5149 21.1632 23.5347C21.0926 23.5942 21.0579 23.6697 21.0765 23.7626C21.0951 23.8567 21.1508 23.9235 21.2437 23.9483C21.3786 23.9842 21.5148 24.0201 21.6523 24.0461C22.3915 24.1836 23.1109 24.0969 23.813 23.8369C23.9331 23.7923 24.0519 23.744 24.1807 23.7267C24.6921 23.6573 25.1948 23.9793 25.336 24.4758C25.4041 24.7135 25.4003 24.9525 25.3112 25.184C25.2208 25.4181 25.0561 25.5852 24.8233 25.6756C24.2191 25.9109 23.5963 26.0842 22.9524 26.1746C22.6552 26.2167 22.3568 26.2365 22.1377 26.2402Z" fill="#F7F7F7"/>
<path d="M14.1078 21.9395C13.7908 21.9185 13.4714 21.7649 13.2609 21.4281C13.1383 21.2312 13.1222 21.0133 13.1606 20.788C13.2559 20.2357 13.3884 19.6946 13.5865 19.1696C13.9072 18.319 14.3703 17.56 15.0315 16.9285C15.5379 16.4444 16.1199 16.0766 16.7613 15.8005C17.3012 15.5677 17.8621 15.4067 18.4391 15.3027C18.714 15.2532 18.9492 15.3386 19.13 15.5516C19.3145 15.7683 19.3591 16.0184 19.2612 16.2859C19.182 16.505 19.1052 16.7242 19.0483 16.9508C18.9381 17.3903 18.896 17.8361 18.9294 18.288C18.9678 18.8056 19.1089 19.2972 19.3281 19.7677C19.4581 20.0451 19.4482 20.3224 19.2934 20.5886C19.073 20.97 18.6161 21.183 18.1803 21.1136C17.7667 21.048 17.4745 20.8226 17.3024 20.4425C17.0857 19.9633 16.9421 19.4619 16.8566 18.9431C16.8467 18.8824 16.8368 18.8205 16.8294 18.7598C16.8083 18.5939 16.5867 18.4886 16.4369 18.6273C16.3428 18.7152 16.2536 18.8081 16.1694 18.9047C15.7088 19.4334 15.4203 20.0463 15.2804 20.731C15.2544 20.8561 15.2383 20.9848 15.2098 21.1099C15.1021 21.5965 14.6749 21.9395 14.1041 21.9407H14.1078V21.9395Z" fill="#F7F7F7"/>
<path d="M25.7891 18.0865C25.7891 18.7564 25.69 19.3767 25.5179 19.9859C25.4647 20.1753 25.4052 20.3648 25.3384 20.5493C25.2467 20.8031 25.0635 20.9653 24.7985 21.0198C24.505 21.0792 24.2574 20.9913 24.0655 20.7598C23.8983 20.5579 23.7237 20.3635 23.5318 20.1852C22.9028 19.6058 22.1673 19.2504 21.3216 19.1241C21.199 19.1055 21.0752 19.0993 20.9539 19.0795C20.6777 19.0362 20.4648 18.8913 20.3323 18.6474C19.9435 17.9305 20.414 17.1244 21.1284 17.0055C21.2857 16.9795 21.4417 16.9932 21.5977 17.0142C22.124 17.0836 22.6329 17.2185 23.1232 17.4228C23.2829 17.4897 23.4389 17.3919 23.4612 17.2458C23.4662 17.2098 23.4612 17.169 23.4538 17.1331C23.325 16.6143 23.1034 16.1388 22.7802 15.7116C22.5499 15.4083 22.2825 15.1433 21.984 14.9068C21.7723 14.7384 21.6349 14.5229 21.5953 14.2543C21.5309 13.8172 21.6757 13.4618 22.0361 13.203C22.1723 13.1052 22.3233 13.0334 22.4917 13.0099C22.7542 12.9727 22.987 13.0408 23.1913 13.208C23.3213 13.3157 23.4501 13.4247 23.5764 13.5373C24.0642 13.9781 24.5001 14.4635 24.8604 15.0145C25.2653 15.6349 25.5501 16.3047 25.6913 17.0328C25.7606 17.3906 25.794 17.7534 25.7915 18.084L25.7891 18.0865Z" fill="#F7F7F7"/>
<defs>
<filter id="filter0_d_7289_355" x="0.142136" y="0" width="40" height="40" filterUnits="userSpaceOnUse" color-interpolation-filters="sRGB">
<feFlood flood-opacity="0" result="BackgroundImageFix"/>
<feColorMatrix in="SourceAlpha" type="matrix" values="0 0 0 0 0 0 0 0 0 0 0 0 0 0 0 0 0 0 127 0" result="hardAlpha"/>
<feOffset/>
<feGaussianBlur stdDeviation="4"/>
<feComposite in2="hardAlpha" operator="out"/>
<feColorMatrix type="matrix" values="0 0 0 0 0.954167 0 0 0 0 0.802775 0 0 0 0 0.413472 0 0 0 0.6 0"/>
<feBlend mode="normal" in2="BackgroundImageFix" result="effect1_dropShadow_7289_355"/>
<feBlend mode="normal" in="SourceGraphic" in2="effect1_dropShadow_7289_355" result="shape"/>
</filter>
<filter id="filter1_d_7289_355" x="8.14214" y="8" width="24" height="24" filterUnits="userSpaceOnUse" color-interpolation-filters="sRGB">
<feFlood flood-opacity="0" result="BackgroundImageFix"/>
<feColorMatrix in="SourceAlpha" type="matrix" values="0 0 0 0 0 0 0 0 0 0 0 0 0 0 0 0 0 0 127 0" result="hardAlpha"/>
<feOffset/>
<feComposite in2="hardAlpha" operator="out"/>
<feColorMatrix type="matrix" values="0 0 0 0 1 0 0 0 0 1 0 0 0 0 1 0 0 0 0.25 0"/>
<feBlend mode="normal" in2="BackgroundImageFix" result="effect1_dropShadow_7289_355"/>
<feBlend mode="normal" in="SourceGraphic" in2="effect1_dropShadow_7289_355" result="shape"/>
</filter>
<linearGradient id="paint0_linear_7289_355" x1="1.36542" y1="9.64693" x2="30.8778" y2="26.3541" gradientUnits="userSpaceOnUse">
<stop stop-color="white"/>
<stop offset="1" stop-color="white" stop-opacity="0"/>
</linearGradient>
</defs>
</svg>
