<svg width="398" height="104" viewBox="0 0 398 104" fill="none" xmlns="http://www.w3.org/2000/svg">
<g filter="url(#filter0_b_7165_12588)">
<g clip-path="url(#clip0_7165_12588)">
<rect width="398" height="104" rx="16" fill="#262527"/>
<g filter="url(#filter1_f_7165_12588)">
<rect x="16" y="16" width="72" height="72" rx="10.2857" fill="#303032"/>
<path style="mix-blend-mode:screen" d="M36.7879 74.4696C49.7223 81.9387 66.2623 77.5049 73.7292 64.5705C81.1983 51.6362 76.7667 35.0962 63.8301 27.627C50.8957 20.1601 34.3557 24.5918 26.8888 37.5261C19.4197 50.4605 23.8514 67.0005 36.7879 74.4674V74.4696Z" fill="url(#paint0_radial_7165_12588)"/>
<path d="M45.3059 46.0611L31.3183 51.0063C29.7121 51.5722 28.755 53.2243 29.0587 54.8982C29.0587 54.8982 29.5023 59.1025 30.2082 62.1422C30.4682 63.2588 31.2484 64.1854 32.2973 64.6443C32.6098 64.7819 32.8217 64.8628 32.8217 64.8628L34.3339 71.8009C34.6289 73.1667 35.5576 74.3095 36.8316 74.8886L46.2805 79.1629C49.1126 80.4435 52.397 80.2446 55.052 78.6297L64.3458 73.6977C65.4843 73.0071 66.2667 71.8643 66.5027 70.5553L67.6084 63.9319C67.6084 63.9319 67.8466 63.8467 68.1809 63.7199C69.0462 63.3921 69.6625 62.6164 69.7958 61.7008C70.4514 57.055 70.6939 53.5193 70.6939 53.5193C70.9365 51.5569 69.433 49.6624 67.5166 49.1729L53.8261 45.6787C51.0072 44.9597 48.0418 45.093 45.2994 46.0633L45.3059 46.0589V46.0611Z" fill="url(#paint1_linear_7165_12588)"/>
<g style="mix-blend-mode:screen" opacity="0.55">
<path d="M49.7205 55.9937L45.5161 52.9802L36.2901 52.7224L42.8939 50.1154L41.2265 46.7239L49.5129 48.1268L57.7141 46.2891L56.2303 49.7636L62.963 52.0165L53.761 52.7617L49.7205 55.9937Z" fill="#C8C7C8"/>
</g>
<g style="mix-blend-mode:screen" opacity="0.35">
<path d="M52.6046 77.5257L58.5746 71.4857L64.2496 72.9389L63.5657 65.5703L54.0228 69.0448L52.6046 77.5257Z" fill="#C8C7C8"/>
</g>
<g style="mix-blend-mode:screen" opacity="0.55">
<path d="M64.7483 65.114L69.2061 58.4228L63.0787 59.6247L60.4805 53.9453L57.5742 61.6635L51.3922 65.0135L55.6708 68.5339L64.7483 65.1118V65.114Z" fill="#C8C7C8"/>
</g>
<g style="mix-blend-mode:screen" opacity="0.35">
<path d="M49.7969 78.198L43.1254 72.3656L38.2632 74.0242L37.3716 66.625L46.7769 69.8635L49.7969 78.198Z" fill="#C8C7C8"/>
</g>
<g style="mix-blend-mode:screen" opacity="0.55">
<path d="M36.2003 66.2098L30.7701 59.6759L36.5915 60.6571L37.7846 54.875L42.0131 62.4971L48.324 65.6285L45.1183 69.3543L36.2003 66.212V66.2098Z" fill="#C8C7C8"/>
</g>
<path style="mix-blend-mode:screen" d="M67.5211 49.1729L53.8307 45.6787C51.0117 44.9597 48.0486 45.093 45.3039 46.0633L31.3184 51.0063C29.839 51.5285 28.9103 52.973 29.0086 54.507C28.989 53.1522 29.5375 52.2234 31.6877 52.5796C35.0945 53.1456 41.0449 55.3724 45.1509 57.0178C48.042 58.176 51.2783 58.0973 54.1082 56.808C59.3506 54.4174 67.4424 50.7856 68.5657 50.602C69.278 50.4884 69.7697 50.7397 70.1019 51.0653C69.5206 50.1562 68.5875 49.4482 67.5189 49.1772V49.1707L67.5211 49.1729Z" fill="url(#paint2_linear_7165_12588)"/>
<path style="mix-blend-mode:multiply" d="M70.1041 51.0621C70.0101 50.9135 69.9052 50.7736 69.7938 50.6381C69.5731 50.5289 69.2037 50.4742 68.57 50.5988C67.0185 50.9113 56.5863 55.6773 54.1126 56.8048C53.7061 56.9884 53.3193 57.1414 52.961 57.2637C51.1778 57.8756 50.0043 59.5844 50.1027 61.4681C50.2556 64.4138 50.4392 67.8468 50.4326 68.7427C50.413 70.9258 32.8262 64.864 32.8262 64.864C32.8262 64.864 50.5069 71.7868 50.5178 72.7636C50.5288 73.7709 51.2106 78.7882 49.7202 79.1379C47.7754 79.5968 40.3806 76.1856 36.8383 74.8876L46.2873 79.1619C49.1193 80.4424 52.4037 80.2458 55.0609 78.6287L64.3525 73.6966C65.491 73.0061 66.2734 71.8632 66.5094 70.5543L67.6151 63.9309C67.6151 63.9309 67.8533 63.8456 68.1898 63.7189C69.053 63.3911 69.6714 62.6154 69.8025 61.6997C70.458 57.0539 70.7006 53.5182 70.7006 53.5182C70.8077 52.6463 70.5717 51.7897 70.1041 51.0621Z" fill="url(#paint3_linear_7165_12588)"/>
<path style="mix-blend-mode:multiply" opacity="0.5" d="M59.9165 47.2331L60.3186 47.3336C60.3186 47.3336 43.5622 54.4356 42.4937 54.9557C41.4273 55.4758 41.0558 55.9784 40.8438 56.988C40.6318 57.9976 40.9552 67.6519 40.9552 67.6519L42.3385 68.2266C42.3385 68.2266 42.3254 74.9484 42.238 75.8858C42.1528 76.8233 43.7108 78.0142 43.7108 78.0142L41.5737 77.0287L39.7577 64.562L39.5611 55.4212L42.2009 53.8587L59.9187 47.2266H59.9165V47.2331Z" fill="url(#paint4_linear_7165_12588)"/>
<path style="mix-blend-mode:multiply" d="M42.4764 68.2909C42.4764 68.2909 47.1877 70.0063 50.341 69.9102C53.4921 69.8119 67.6152 63.9336 67.6152 63.9336L66.9553 67.4081C66.9553 67.4081 66.7564 66.5406 65.0541 66.4838C59.5692 66.2893 52.9327 71.0268 50.4961 71.0487C48.6125 71.0662 42.472 68.2909 42.472 68.2909H42.4764Z" fill="url(#paint5_linear_7165_12588)"/>
<path style="mix-blend-mode:multiply" opacity="0.5" d="M38.9363 48.3125L38.4883 48.4698C38.4883 48.4698 55.5855 54.005 56.8005 54.5557C58.0155 55.1042 58.8896 55.4167 59.0579 56.4874C59.2261 57.556 59.3376 67.1907 59.3376 67.1907L58.6776 67.4354L57.2463 67.9599C57.2463 67.9599 58.1663 73.8054 58.1117 74.8128C58.0614 75.8223 57.2857 77.4044 57.2857 77.4044L58.2581 76.9871L59.2786 75.1864L58.883 67.4944L60.5154 66.782L59.9932 55.0277L58.1947 53.7056L38.9298 48.3169L38.9363 48.3125Z" fill="url(#paint6_linear_7165_12588)"/>
<g style="mix-blend-mode:screen" opacity="0.55">
<path d="M40.4747 55.2188C40.4747 55.2188 48.3393 57.5788 49.126 60.0918C49.9083 62.6048 50.3891 67.4189 50.3891 67.4189C50.3891 67.4189 50.1596 63.2385 50.1028 61.4707C50.0482 59.7028 50.8611 58.1557 52.9611 57.2663C55.0633 56.3769 57.526 55.2996 57.526 55.2996C57.526 55.2996 52.476 57.0325 49.0167 56.8599C45.5597 56.6829 40.4769 55.2231 40.4769 55.2231H40.4747V55.2188Z" fill="#C8C7C8"/>
</g>
<path d="M59.9164 47.2349C59.9164 47.2349 44.622 53.5393 42.3319 54.5729C40.0418 55.6065 40.1335 56.5593 40.1488 57.9316C40.1619 59.3039 40.6012 67.5225 40.6012 67.5225L41.6479 67.9334C41.6479 67.9334 41.7834 75.7412 41.8314 76.246C41.8773 76.7508 43.0836 77.7669 43.0836 77.7669L42.8585 78.2826L40.9246 77.6817C40.9246 77.6817 40.068 76.7682 39.773 75.8264C39.4802 74.8846 39.4321 67.5378 39.4321 67.5378L38.416 67.1139C38.416 67.1139 37.8522 57.7546 37.7779 56.5243C37.7036 55.294 38.8487 54.1795 40.4548 53.6922C42.0631 53.2027 58.0546 46.2188 58.0546 46.2188L59.9098 46.6645L59.9142 47.2414V47.2349H59.9164Z" fill="url(#paint7_linear_7165_12588)"/>
<path style="mix-blend-mode:multiply" d="M42.3319 54.5711C44.622 53.5375 59.9164 47.2332 59.9164 47.2332L59.9121 46.6562C59.9121 46.6562 41.9211 54.3614 41.0098 54.8115C40.1008 55.2617 39.6703 56.1183 39.6769 56.7476C39.6856 57.377 40.0702 67.3351 40.0702 67.3351L41.2109 67.7524C41.2109 67.7524 41.1934 75.1101 41.3005 76.3054C41.4054 77.5029 42.863 78.2765 42.863 78.2765L43.0902 77.7608C43.0902 77.7608 41.8818 76.7425 41.8359 76.2399C41.79 75.7351 41.6523 67.9273 41.6523 67.9273L40.6078 67.5164C40.6078 67.5164 40.1686 59.2978 40.1533 57.9255C40.1401 56.5532 40.044 55.6004 42.3363 54.5668H42.3319V54.5711Z" fill="url(#paint8_linear_7165_12588)"/>
<g style="mix-blend-mode:screen">
<path d="M39.8955 53.8906C38.3592 54.461 37.7255 55.5798 37.7824 56.5195C37.8392 57.4591 37.8894 58.2523 37.8894 58.2523C37.8894 58.2523 37.7495 56.3949 38.2849 56.3577C38.8225 56.3206 39.6835 57.4482 39.6835 57.4482C39.6835 57.4482 39.6463 57.1947 39.6747 56.7555C39.701 56.314 39.9195 55.3067 41.0077 54.8193C42.0938 54.332 40.1904 55.0073 39.6507 54.9242C39.1131 54.8368 39.8889 53.8972 39.8889 53.8972L39.8955 53.8928V53.8906Z" fill="#D5D6D6"/>
</g>
<path d="M38.9383 48.3122C38.9383 48.3122 53.634 53.1066 55.7427 53.6748C57.8515 54.2429 59.7876 54.5882 59.7286 56.8827C59.6696 59.1793 59.8335 67.009 59.8335 67.009L58.1333 67.6384C58.1333 67.6384 59.014 73.5713 58.6928 75.5598C58.5442 76.4754 57.9585 77.0938 57.9585 77.0938L58.3672 77.5484L60.0607 76.7114C60.0607 76.7114 60.5612 75.7128 60.6726 74.8474C60.9283 72.8327 60.312 67.1576 60.312 67.1576L61.881 66.6026C61.881 66.6026 61.9837 57.9359 61.9946 56.0829C62.0012 54.2342 61.1249 53.1066 58.8872 52.5843C56.8725 52.1123 40.7586 46.9727 40.7586 46.9727L38.8509 47.8009L38.9427 48.3056H38.9383V48.3122Z" fill="url(#paint9_linear_7165_12588)"/>
<path style="mix-blend-mode:multiply" d="M58.6971 67.4892L60.2027 66.8642C60.2027 66.8642 60.1131 58.2807 60.0956 56.421C60.076 54.6969 58.8937 54.1659 57.292 53.6764C56.136 53.3246 38.8399 47.8047 38.8399 47.8047L38.9317 48.3095C38.9317 48.3095 53.6295 53.1039 55.7361 53.672C57.8449 54.2402 59.7831 54.5855 59.722 56.8799C59.663 59.1766 59.829 67.0063 59.829 67.0063L58.1267 67.6356C58.1267 67.6356 59.0074 73.5685 58.6862 75.5571C58.5398 76.4727 57.9519 77.0911 57.9519 77.0911L58.3606 77.5456C58.3606 77.5456 59.2893 75.9067 59.322 74.8163C59.3526 73.7237 58.6993 67.4914 58.6993 67.4914V67.487L58.6971 67.4892Z" fill="url(#paint10_linear_7165_12588)"/>
<g style="mix-blend-mode:screen" opacity="0.7">
<path d="M59.7964 52.8672C61.3413 53.4048 61.8439 54.5476 61.9466 55.5026C62.0471 56.44 61.9751 57.1655 61.9751 57.1655C61.9751 57.1655 61.9095 55.2535 61.1031 55.26C60.1023 55.2688 60.1001 56.8356 60.1001 56.8356C60.1001 56.8356 60.1351 56.121 60.0062 55.6992C59.8641 55.2294 59.6019 54.5848 58.5027 54.1193C57.4035 53.6539 59.604 53.9685 60.1394 53.8746C60.677 53.7784 59.7942 52.8716 59.7942 52.8716H59.7964V52.8672Z" fill="#D5D6D6"/>
</g>
<path d="M48.8744 50.2719C49.6109 51.229 45.4 44.1445 45.6163 41.2337C45.8654 37.8903 47.6551 36.0416 49.0427 35.6855C50.3888 35.3446 51.4159 36.0941 51.4159 36.0941L49.2372 32.9648C49.2372 32.9648 46.1714 33.5461 45.2536 35.0474C43.9359 37.1954 41.8446 41.1332 48.8766 50.2697H48.8744V50.2719Z" fill="url(#paint11_linear_7165_12588)"/>
<path d="M49.8099 50.5808C49.8099 50.5808 57.0059 43.0964 55.8652 38.4266C54.7267 33.7589 51.7526 33.4486 50.1683 33.0553C48.5818 32.6641 46.4578 33.5819 45.9224 34.1173C45.9224 34.1173 47.3166 33.0728 48.9402 33.9752C56.96 38.4287 49.8318 49.2194 49.4931 49.9733C49.1543 50.7272 49.8099 50.5786 49.8099 50.5786V50.5808Z" fill="url(#paint12_linear_7165_12588)"/>
<g style="mix-blend-mode:screen">
<path d="M55.4693 37.1452C55.4693 37.1452 55.8255 38.0127 55.9763 39.1643C56.1249 40.316 55.4584 42.145 55.4584 42.145C55.4584 42.145 56.0047 40.4427 55.1131 40.139C54.2193 39.8352 53.472 40.7159 53.3977 40.9213C53.3256 41.1289 52.9978 41.8128 52.9978 41.8128C52.9978 41.8128 53.2295 39.6407 52.8558 38.511C52.4843 37.379 51.7501 35.9805 51.7501 35.9805C51.7501 35.9805 52.4471 37.2239 53.3081 37.7112C54.1713 38.2007 54.8421 38.1941 54.9973 38.0477C55.5938 37.4839 55.4693 37.143 55.4693 37.143V37.1452Z" fill="#D5D6D6"/>
</g>
<path style="mix-blend-mode:multiply" opacity="0.38" d="M50.7647 35.1258C51.1515 35.4645 49.6939 34.9466 48.0026 35.7989C46.1451 36.7363 45.553 38.8888 45.3476 38.7751C44.4298 38.2529 45.3825 35.7464 47.0564 34.632C48.6341 33.5809 50.2993 34.7237 50.7626 35.1302H50.7647V35.1258Z" fill="url(#paint13_linear_7165_12588)"/>
<path d="M45.4745 45.779C42.8588 40.7726 43.6345 37.3615 44.2158 35.9236C44.6769 34.7807 45.835 33.5068 47.3691 33.2402C48.442 33.0544 50.5944 33.4565 52.3295 37.0425C55.0851 42.724 49.3838 50.2194 49.3314 50.2937H49.0867C49.1369 50.2194 54.3465 42.5842 51.7024 37.132C50.5071 34.6715 49.1085 33.6925 47.5111 33.9678C46.2524 34.1864 44.9085 35.7619 44.513 36.7322C43.794 38.5044 42.9921 42.8967 49.0823 50.2915L48.6234 50.4445C47.2401 48.764 46.2153 47.206 45.4701 45.779H45.4745Z" fill="url(#paint14_linear_7165_12588)"/>
<path style="mix-blend-mode:multiply" d="M49.3333 50.2878C49.3333 50.2878 52.0867 46.4702 52.751 44.3243C53.4153 42.1784 54.9974 40.7078 55.2203 41.7479C55.5197 43.1312 51.6016 48.3386 50.7297 49.558C49.6983 50.9936 49.1672 50.6025 49.3333 50.2878Z" fill="url(#paint15_linear_7165_12588)"/>
<path style="mix-blend-mode:multiply" d="M49.4842 51.2841C49.4842 51.2841 51.6847 51.6774 51.6891 51.0918C51.6935 50.5061 50.8085 50.2461 50.8085 50.2461L49.4842 51.2841Z" fill="url(#paint16_linear_7165_12588)"/>
<path d="M48.774 50.7881C49.9235 50.2527 41.718 53.1656 38.8356 52.7045C35.5272 52.1757 34.1068 50.4756 34.0981 49.265C34.0893 48.0871 35.1055 47.2852 35.1055 47.2852L31.4015 48.8454C31.4015 48.8454 31.2179 51.5092 32.5007 52.4314C34.3428 53.7556 37.7845 55.9081 48.7719 50.7946H48.774V50.7881Z" fill="url(#paint17_linear_7165_12588)"/>
<path d="M49.3247 50.0284C49.3247 50.0284 43.5797 43.1996 38.5821 43.724C33.5845 44.2485 32.5246 46.7506 31.7336 48.0617C30.9425 49.3729 31.3359 51.2675 31.7401 51.7722C31.7401 51.7722 31.0387 50.4895 32.3564 49.1937C38.8684 42.791 47.9633 49.8798 48.6385 50.2404C49.3138 50.601 49.3312 50.0284 49.3312 50.0284H49.3247Z" fill="url(#paint18_linear_7165_12588)"/>
<g style="mix-blend-mode:screen">
<path d="M37.1881 43.9362C37.1881 43.9362 38.1497 43.7154 39.3515 43.6958C40.5512 43.6739 42.2316 44.4213 42.2316 44.4213C42.2316 44.4213 40.6496 43.7963 40.1207 44.524C39.5897 45.2517 40.2912 45.975 40.4791 46.058C40.6714 46.1432 41.2789 46.4819 41.2789 46.4819C41.2789 46.4819 39.1461 46.0799 37.9071 46.2875C36.6724 46.4972 35.0772 46.9867 35.0772 46.9867C35.0772 46.9867 36.5064 46.5125 37.2144 45.8264C37.9246 45.138 38.0885 44.5677 37.9792 44.4235C37.5575 43.864 37.1837 43.934 37.1837 43.934H37.1881V43.9362Z" fill="#D5D6D6"/>
</g>
<path style="mix-blend-mode:multiply" opacity="0.38" d="M33.9646 47.745C34.4017 47.4478 33.5145 48.6366 33.9494 50.1553C34.4301 51.8249 36.4536 52.5329 36.2876 52.6946C35.5315 53.4266 33.2392 52.3799 32.5355 50.8502C31.8712 49.4058 33.4445 48.099 33.9646 47.745Z" fill="url(#paint19_linear_7165_12588)"/>
<path d="M43.3852 53.2598C37.6796 55.0102 34.4279 54.0269 33.1234 53.3975C32.0832 52.8949 31.0911 51.7935 31.2091 50.4606C31.2921 49.5296 32.2383 47.7356 36.2941 46.5993C42.7187 44.7921 48.8461 50.3557 48.9094 50.4037L48.8483 50.6135C48.7893 50.5633 42.3931 45.4083 36.2242 47.1412C33.4424 47.9235 32.0985 49.0227 31.9805 50.4059C31.8822 51.4964 33.1364 52.7922 34.0171 53.2161C35.6276 53.9941 39.8539 55.0911 48.8483 50.6113L48.8876 51.0178C46.8444 52.0339 45.0154 52.7594 43.3852 53.2577V53.2598Z" fill="url(#paint20_linear_7165_12588)"/>
<path style="mix-blend-mode:multiply" d="M48.9097 50.4004C48.9097 50.4004 45.7498 47.6929 43.7503 46.928C41.7552 46.1588 40.667 44.6751 41.7705 44.5811C43.2434 44.4565 47.5111 48.2829 48.5229 49.1417C49.7116 50.1534 49.1828 50.5708 48.9097 50.4004Z" fill="url(#paint21_linear_7165_12588)"/>
<path d="M50.5419 50.8714C49.5127 50.419 56.8725 52.6807 59.4555 51.8919C62.423 50.9872 63.697 49.038 63.6992 47.7443C63.7057 46.49 62.7945 45.7383 62.7945 45.7383L66.1161 47.0188C66.1161 47.0188 66.2843 49.8356 65.1327 50.9522C63.4829 52.5496 60.3973 55.1916 50.5419 50.8714Z" fill="url(#paint22_linear_7165_12588)"/>
<path d="M50.0482 50.1132C50.0482 50.1132 55.1922 42.2551 59.6741 42.301C64.1582 42.3534 65.1087 44.9014 65.8233 46.2191C66.5357 47.5346 66.1861 49.5909 65.8211 50.17C65.8211 50.17 66.4505 48.7299 65.2683 47.4865C59.4206 41.3373 51.2741 49.8138 50.6688 50.2661C50.0635 50.7185 50.0503 50.111 50.0503 50.111H50.0482V50.1132Z" fill="url(#paint23_linear_7165_12588)"/>
<g style="mix-blend-mode:screen">
<path d="M60.9239 42.3864C60.9239 42.3864 60.0585 42.2487 58.9812 42.3492C57.906 42.4498 56.4026 43.4156 56.4026 43.4156C56.4026 43.4156 57.8187 42.5874 58.2972 43.3085C58.7736 44.0319 58.1486 44.8688 57.976 44.9759C57.8034 45.0829 57.2592 45.5069 57.2592 45.5069C57.2592 45.5069 59.1691 44.8579 60.2792 44.954C61.3893 45.0502 62.8184 45.4107 62.8184 45.4107C62.8184 45.4107 61.5379 45.0502 60.8976 44.3946C60.2595 43.739 60.1131 43.1425 60.2093 42.9786C60.5852 42.3405 60.9195 42.3755 60.9195 42.3755L60.9239 42.382V42.3864Z" fill="#D5D6D6"/>
</g>
<path style="mix-blend-mode:multiply" opacity="0.38" d="M63.8215 46.1165C63.4281 45.8477 64.2236 47.0212 63.839 48.682C63.4129 50.5088 61.5969 51.4703 61.7477 51.6233C62.4251 52.3269 64.477 50.9743 65.1086 49.2742C65.7051 47.6724 64.2935 46.4399 63.8215 46.1165Z" fill="url(#paint24_linear_7165_12588)"/>
<path d="M55.3778 52.942C60.4978 54.2226 63.4107 52.8415 64.5776 52.0395C65.5107 51.3993 66.3979 50.1231 66.293 48.718C66.2187 47.7346 65.3708 45.9231 61.7281 45.1276C55.9634 43.8602 50.4741 50.4072 50.4217 50.4705L50.4785 50.6847C50.5331 50.6235 56.2628 44.483 61.7936 45.6958C64.2913 46.2465 65.4954 47.2757 65.6047 48.7376C65.6921 49.8893 64.5711 51.3905 63.7844 51.9368C62.34 52.9311 58.5507 54.5307 50.4807 50.6803L50.4436 51.1152C52.2792 51.9893 53.918 52.5727 55.3778 52.9377V52.942Z" fill="url(#paint25_linear_7165_12588)"/>
<path style="mix-blend-mode:multiply" d="M50.4217 50.4702C50.4217 50.4702 53.256 47.2667 55.0457 46.244C56.8332 45.2213 57.8078 43.5278 56.8157 43.5431C55.4958 43.5627 51.6717 48.0709 50.767 49.0892C49.7028 50.2889 50.177 50.6778 50.4217 50.4681V50.4702Z" fill="url(#paint26_linear_7165_12588)"/>
<path d="M49.6853 51.2519C49.6329 50.2226 50.826 57.1717 52.6157 58.9351C54.6698 60.9608 56.9075 61.1597 58.0307 60.6134C59.1211 60.0824 59.3812 59.0204 59.3812 59.0204L59.6915 62.2698C59.6915 62.2698 57.3183 63.6093 55.8586 63.1526C53.7695 62.4949 50.153 61.116 49.6788 51.2562H49.6853V51.2519Z" fill="url(#paint27_linear_7165_12588)"/>
<path d="M50.131 50.5234C50.131 50.5234 59.1516 51.3451 61.0287 55.0119C62.9058 58.6765 61.0986 60.5405 60.2617 61.6834C59.4248 62.8263 57.4908 63.4185 56.8353 63.3704C56.8353 63.3704 58.3518 63.2655 58.9265 61.7752C61.7564 54.3957 50.9133 51.3932 50.2621 51.0938C49.6109 50.7944 50.131 50.5234 50.131 50.5234Z" fill="url(#paint28_linear_7165_12588)"/>
<g style="mix-blend-mode:screen">
<path d="M61.4902 56.0644C61.4902 56.0644 61.2388 55.3018 60.6881 54.4692C60.1396 53.6367 58.6602 52.8281 58.6602 52.8281C58.6602 52.8281 59.9845 53.6257 59.5628 54.3206C59.141 55.0155 58.1424 54.8648 57.9763 54.773C57.8102 54.679 57.2049 54.4212 57.2049 54.4212C57.2049 54.4212 58.586 55.6995 58.975 56.6413C59.3661 57.5854 59.6655 58.9031 59.6655 58.9031C59.6655 58.9031 59.4273 57.7056 59.7288 56.9079C60.026 56.1082 60.4762 55.7367 60.6619 55.7454C61.3765 55.7782 61.488 56.0666 61.488 56.0666H61.4902V56.0644Z" fill="#D5D6D6"/>
</g>
<path style="mix-blend-mode:multiply" opacity="0.38" d="M59.4948 60.0147C59.5604 59.5798 58.883 60.7293 57.2747 61.1226C55.509 61.5597 53.8941 60.4933 53.8242 60.679C53.5051 61.5334 55.5549 62.6239 57.3009 62.4075C58.9463 62.2043 59.4118 60.5304 59.4905 60.0125H59.4948V60.0147Z" fill="url(#paint29_linear_7165_12588)"/>
<path d="M49.9563 56.0694C51.038 60.7764 53.4811 62.5552 54.6786 63.1627C55.6335 63.6456 57.1217 63.8248 58.2951 63.1364C59.1168 62.6579 60.3252 61.1872 59.4555 57.8963C58.0854 52.667 50.0568 51.004 49.9781 50.9844L49.8142 51.122C49.8885 51.1395 57.6745 53.1718 58.9856 58.1891C59.58 60.453 59.1998 61.8712 57.9783 62.5879C57.0168 63.1517 55.2336 62.8829 54.4229 62.4721C52.9435 61.7226 49.9323 59.3254 49.8142 51.122L49.4188 51.2794C49.445 53.1434 49.6438 54.7277 49.9541 56.0716H49.9563V56.0694Z" fill="url(#paint30_linear_7165_12588)"/>
<path style="mix-blend-mode:multiply" d="M49.9781 50.9875C49.9781 50.9875 53.9706 51.9205 55.6248 52.9389C57.279 53.9572 59.1648 54.0249 58.7256 53.2273C58.1465 52.1631 52.5939 50.9787 51.3221 50.6793C49.8252 50.3253 49.6919 50.8782 49.9781 50.9896V50.9875Z" fill="url(#paint31_linear_7165_12588)"/>
<path d="M50.933 50.1836C51.1209 50.6185 50.6052 50.8807 49.978 51.156C49.3509 51.4314 48.8461 51.6127 48.6538 51.1757C48.4615 50.7408 48.8199 50.1661 49.4492 49.8908C50.0764 49.6154 50.7407 49.7444 50.933 50.1814V50.1836Z" fill="url(#paint32_linear_7165_12588)"/>
<g style="mix-blend-mode:screen">
<path d="M49.3992 50.7846C49.2026 51.025 48.9382 51.1343 48.8092 51.025C48.6847 50.9201 48.7415 50.6404 48.9425 50.4C49.1392 50.1596 49.4057 50.0504 49.5325 50.1596C49.6571 50.2645 49.6003 50.5442 49.3992 50.7846Z" fill="#DCDCE4"/>
</g>
<path style="mix-blend-mode:multiply" d="M49.9803 51.1564C50.6075 50.881 51.1232 50.6166 50.9353 50.1839C50.826 49.9392 50.5703 49.7928 50.2556 49.7578C50.5113 49.8758 50.6315 49.9742 50.5594 50.2845C50.4786 50.621 49.2963 51.4251 48.9882 51.3246C48.6801 51.2219 48.6582 51.176 48.6582 51.176C48.8462 51.6109 49.351 51.4295 49.9825 51.1564H49.9803Z" fill="url(#paint33_linear_7165_12588)"/>
<g opacity="0.5">
<path style="mix-blend-mode:screen" opacity="0.8" d="M32.9246 35.418C35.0749 36.6592 37.8217 35.9228 39.0629 33.7725C40.3041 31.6244 39.5677 28.8754 37.4196 27.6342C35.2694 26.393 32.5226 27.1294 31.2813 29.2797C30.0401 31.4278 30.7765 34.1768 32.9246 35.418Z" fill="url(#paint34_radial_7165_12588)"/>
</g>
<path d="M35.7281 31.8433C35.5511 32.1515 35.1577 32.2563 34.8496 32.0793C34.5437 31.9023 34.4366 31.5068 34.6136 31.2009C34.7928 30.8928 35.1861 30.7879 35.4942 30.9649C35.8002 31.1419 35.9073 31.5374 35.7281 31.8433Z" fill="#FFDFA9"/>
<g opacity="0.5">
<path style="mix-blend-mode:screen" opacity="0.8" d="M74.3414 54.7227C76.4916 55.9639 79.2407 55.2275 80.4797 53.0772C81.7209 50.9291 80.9845 48.1801 78.8364 46.9389C76.6861 45.6977 73.9393 46.4341 72.6981 48.5844C71.4569 50.7346 72.1933 53.4815 74.3414 54.7227Z" fill="url(#paint35_radial_7165_12588)"/>
</g>
<path d="M76.2665 51.384C76.5746 51.561 76.9679 51.4561 77.1471 51.148C77.3241 50.8399 77.2192 50.4466 76.9111 50.2696C76.603 50.0926 76.2096 50.1974 76.0326 50.5056C75.8534 50.8137 75.9605 51.207 76.2665 51.384Z" fill="#FFDFA9"/>
<g opacity="0.5">
<path style="mix-blend-mode:screen" opacity="0.8" d="M61.3697 36.2025C61.9947 35.1186 63.3779 34.7493 64.4596 35.3743C65.5434 35.9992 65.9149 37.3825 65.2878 38.4664C64.6628 39.5502 63.2796 39.9195 62.1979 39.2946C61.114 38.6696 60.7447 37.2863 61.3697 36.2025Z" fill="url(#paint36_radial_7165_12588)"/>
</g>
<path d="M63.6075 37.4883C63.5179 37.6434 63.3191 37.6981 63.1639 37.6063C63.0087 37.5167 62.9541 37.3178 63.0437 37.1627C63.1333 37.0075 63.3343 36.9529 63.4895 37.0447C63.6446 37.1343 63.6971 37.3331 63.6075 37.4883Z" fill="#FFDFA9"/>
<g opacity="0.5">
<path style="mix-blend-mode:screen" opacity="0.8" d="M35.6956 38.6439C36.3206 37.56 37.706 37.1907 38.7877 37.8157C39.8716 38.4406 40.2409 39.8239 39.6159 40.9078C38.9909 41.9916 37.6077 42.3609 36.5238 41.736C35.4421 41.111 35.0706 39.7277 35.6956 38.6439Z" fill="url(#paint37_radial_7165_12588)"/>
</g>
<path d="M37.9355 39.9348C37.8459 40.09 37.6448 40.1424 37.4897 40.0528C37.3345 39.9632 37.2821 39.7622 37.3716 39.607C37.4612 39.4519 37.6601 39.3994 37.8153 39.489C37.9704 39.5786 38.025 39.7775 37.9355 39.9348Z" fill="#FFDFA9"/>
<path d="M112.48 50.24C110.88 50.24 109.4 49.872 108.04 49.136C106.696 48.384 105.624 47.32 104.824 45.944C104.024 44.568 103.624 42.968 103.624 41.144C103.624 39.304 104.024 37.704 104.824 36.344C105.624 34.968 106.696 33.912 108.04 33.176C109.4 32.44 110.88 32.072 112.48 32.072C114.08 32.072 115.552 32.44 116.896 33.176C118.256 33.912 119.336 34.968 120.136 36.344C120.936 37.704 121.336 39.304 121.336 41.144C121.336 42.968 120.936 44.568 120.136 45.944C119.336 47.32 118.256 48.384 116.896 49.136C115.552 49.872 114.08 50.24 112.48 50.24ZM112.48 47.816C113.584 47.816 114.592 47.56 115.504 47.048C116.416 46.52 117.136 45.76 117.664 44.768C118.208 43.76 118.48 42.56 118.48 41.168C118.48 39.76 118.208 38.56 117.664 37.568C117.136 36.56 116.416 35.8 115.504 35.288C114.608 34.776 113.6 34.52 112.48 34.52C111.36 34.52 110.344 34.776 109.432 35.288C108.52 35.8 107.8 36.56 107.272 37.568C106.744 38.56 106.48 39.76 106.48 41.168C106.48 42.56 106.752 43.76 107.296 44.768C107.84 45.76 108.568 46.52 109.48 47.048C110.408 47.56 111.408 47.816 112.48 47.816ZM124.217 38.984H126.713V41.024C127.593 39.472 128.969 38.696 130.841 38.696C132.393 38.696 133.649 39.192 134.609 40.184C135.569 41.16 136.049 42.576 136.049 44.432C136.049 45.584 135.809 46.6 135.329 47.48C134.865 48.36 134.225 49.04 133.409 49.52C132.609 50 131.713 50.24 130.721 50.24C129.793 50.24 128.985 50.08 128.297 49.76C127.625 49.424 127.097 48.952 126.713 48.344L126.737 55.832H124.217V38.984ZM130.121 48.056C131.161 48.056 131.961 47.728 132.521 47.072C133.081 46.4 133.361 45.544 133.361 44.504C133.361 43.416 133.081 42.552 132.521 41.912C131.977 41.256 131.177 40.928 130.121 40.928C129.545 40.928 129.001 41.072 128.489 41.36C127.993 41.632 127.593 42.032 127.289 42.56C127.001 43.072 126.857 43.672 126.857 44.36V44.528C126.857 45.216 127.001 45.832 127.289 46.376C127.593 46.904 127.993 47.32 128.489 47.624C128.985 47.912 129.529 48.056 130.121 48.056ZM144.025 50.24C142.713 50.24 141.617 49.984 140.737 49.472C139.857 48.944 139.209 48.248 138.793 47.384C138.377 46.504 138.169 45.544 138.169 44.504C138.169 43.336 138.409 42.312 138.889 41.432C139.385 40.552 140.065 39.88 140.929 39.416C141.793 38.936 142.769 38.696 143.857 38.696C145.553 38.696 146.809 39.168 147.625 40.112C148.457 41.04 148.873 42.352 148.873 44.048C148.873 44.48 148.849 44.928 148.801 45.392H140.881C141.057 46.368 141.401 47.072 141.913 47.504C142.441 47.936 143.169 48.152 144.097 48.152C144.865 48.152 145.497 48.088 145.993 47.96C146.489 47.832 146.945 47.656 147.361 47.432L148.153 49.28C147.753 49.536 147.209 49.76 146.521 49.952C145.833 50.144 145.001 50.24 144.025 50.24ZM146.353 43.592C146.369 42.6 146.153 41.904 145.705 41.504C145.257 41.088 144.617 40.88 143.785 40.88C142.105 40.88 141.137 41.784 140.881 43.592H146.353ZM151.591 38.984H154.135L154.159 41C154.463 40.328 154.943 39.776 155.599 39.344C156.255 38.912 157.023 38.696 157.903 38.696C159.039 38.696 159.911 38.936 160.519 39.416C161.127 39.88 161.535 40.536 161.743 41.384C161.951 42.232 162.055 43.336 162.055 44.696V50H159.463V44.768C159.463 43.376 159.327 42.376 159.055 41.768C158.783 41.144 158.223 40.832 157.375 40.832C156.895 40.832 156.407 40.984 155.911 41.288C155.415 41.576 154.999 42 154.663 42.56C154.343 43.12 154.183 43.776 154.183 44.528V50H151.591V38.984ZM172.238 41.096H170.294V38.984H172.238V34.496L174.854 33.92V38.984H177.398V41.096H174.854V50H172.238V41.096ZM179.625 32.36H182.145V38.984L182.049 41.024C182.353 40.352 182.841 39.8 183.513 39.368C184.185 38.92 184.969 38.696 185.865 38.696C187.001 38.696 187.873 38.936 188.481 39.416C189.089 39.88 189.497 40.536 189.705 41.384C189.913 42.232 190.017 43.336 190.017 44.696V50H187.449V44.672C187.449 43.744 187.393 43.016 187.281 42.488C187.185 41.96 186.977 41.56 186.657 41.288C186.353 41.016 185.905 40.88 185.313 40.88C184.833 40.88 184.345 41.024 183.849 41.312C183.369 41.6 182.969 42.024 182.649 42.584C182.329 43.128 182.169 43.776 182.169 44.528V50H179.625V32.36ZM198.517 50.24C197.205 50.24 196.109 49.984 195.229 49.472C194.349 48.944 193.701 48.248 193.285 47.384C192.869 46.504 192.661 45.544 192.661 44.504C192.661 43.336 192.901 42.312 193.381 41.432C193.877 40.552 194.557 39.88 195.421 39.416C196.285 38.936 197.261 38.696 198.349 38.696C200.045 38.696 201.301 39.168 202.117 40.112C202.949 41.04 203.365 42.352 203.365 44.048C203.365 44.48 203.341 44.928 203.293 45.392H195.373C195.549 46.368 195.893 47.072 196.405 47.504C196.933 47.936 197.661 48.152 198.589 48.152C199.357 48.152 199.989 48.088 200.485 47.96C200.981 47.832 201.437 47.656 201.853 47.432L202.645 49.28C202.245 49.536 201.701 49.76 201.013 49.952C200.325 50.144 199.493 50.24 198.517 50.24ZM200.845 43.592C200.861 42.6 200.645 41.904 200.197 41.504C199.749 41.088 199.109 40.88 198.277 40.88C196.597 40.88 195.629 41.784 195.373 43.592H200.845ZM218.494 50.24C217.598 50.24 216.79 50.024 216.07 49.592C215.366 49.144 214.878 48.632 214.606 48.056L214.558 50H212.062V32.36H214.606V39.152L214.486 41.024C214.758 40.384 215.286 39.84 216.07 39.392C216.87 38.928 217.734 38.696 218.662 38.696C219.75 38.696 220.694 38.944 221.494 39.44C222.31 39.92 222.934 40.6 223.366 41.48C223.798 42.344 224.014 43.352 224.014 44.504C224.014 45.672 223.758 46.688 223.246 47.552C222.75 48.416 222.078 49.08 221.23 49.544C220.398 50.008 219.486 50.24 218.494 50.24ZM218.062 48.08C219.102 48.08 219.902 47.752 220.462 47.096C221.022 46.424 221.302 45.56 221.302 44.504C221.302 43.432 221.022 42.568 220.462 41.912C219.918 41.24 219.118 40.904 218.062 40.904C217.15 40.904 216.382 41.224 215.758 41.864C215.134 42.488 214.822 43.312 214.822 44.336V44.504C214.822 45.192 214.966 45.808 215.254 46.352C215.558 46.896 215.95 47.32 216.43 47.624C216.926 47.928 217.47 48.08 218.062 48.08ZM231.914 50.24C230.778 50.24 229.77 49.984 228.89 49.472C228.01 48.96 227.33 48.264 226.85 47.384C226.37 46.504 226.13 45.528 226.13 44.456C226.13 43.4 226.362 42.432 226.826 41.552C227.306 40.672 227.986 39.976 228.866 39.464C229.746 38.952 230.762 38.696 231.914 38.696C233.066 38.696 234.074 38.952 234.938 39.464C235.818 39.976 236.49 40.672 236.954 41.552C237.434 42.432 237.674 43.4 237.674 44.456C237.674 45.528 237.434 46.504 236.954 47.384C236.474 48.264 235.794 48.96 234.914 49.472C234.05 49.984 233.05 50.24 231.914 50.24ZM231.986 48.128C232.914 48.128 233.642 47.784 234.17 47.096C234.714 46.408 234.986 45.544 234.986 44.504C234.986 43.464 234.698 42.592 234.122 41.888C233.546 41.168 232.786 40.808 231.842 40.808C230.93 40.808 230.194 41.16 229.634 41.864C229.09 42.568 228.818 43.448 228.818 44.504C228.818 45.528 229.114 46.392 229.706 47.096C230.298 47.784 231.058 48.128 231.986 48.128ZM243.13 44.288L239.266 38.984H242.338L244.594 42.392L246.73 38.984H249.874L245.986 44.144L250.21 50H247.234L244.618 46.112L242.122 50H239.002L243.13 44.288Z" fill="#F6F1F2"/>
<path d="M105.057 65.356H102.801V64.18H108.669V65.356H106.389V73H105.057V65.356ZM109 67.492H110.296V68.572C110.424 68.204 110.632 67.908 110.92 67.684C111.208 67.46 111.536 67.348 111.904 67.348C112.16 67.348 112.336 67.372 112.432 67.42L112.252 68.728C112.18 68.68 112.024 68.656 111.784 68.656C111.408 68.656 111.064 68.776 110.752 69.016C110.448 69.256 110.296 69.64 110.296 70.168V73H109V67.492ZM114.932 73.168L112.652 67.492H114.116L115.292 70.996L115.556 71.848L115.82 70.996L117.056 67.492H118.472L115.088 76.024H113.744L114.932 73.168ZM123.838 73.168L121.558 67.492H123.022L124.198 70.996L124.462 71.848L124.726 70.996L125.962 67.492H127.378L123.994 76.024H122.65L123.838 73.168ZM130.787 73.12C130.219 73.12 129.715 72.992 129.275 72.736C128.835 72.48 128.495 72.132 128.255 71.692C128.015 71.252 127.895 70.764 127.895 70.228C127.895 69.7 128.011 69.216 128.243 68.776C128.483 68.336 128.823 67.988 129.263 67.732C129.703 67.476 130.211 67.348 130.787 67.348C131.363 67.348 131.867 67.476 132.299 67.732C132.739 67.988 133.075 68.336 133.307 68.776C133.547 69.216 133.667 69.7 133.667 70.228C133.667 70.764 133.547 71.252 133.307 71.692C133.067 72.132 132.727 72.48 132.287 72.736C131.855 72.992 131.355 73.12 130.787 73.12ZM130.823 72.064C131.287 72.064 131.651 71.892 131.915 71.548C132.187 71.204 132.323 70.772 132.323 70.252C132.323 69.732 132.179 69.296 131.891 68.944C131.603 68.584 131.223 68.404 130.751 68.404C130.295 68.404 129.927 68.58 129.647 68.932C129.375 69.284 129.239 69.724 129.239 70.252C129.239 70.764 129.387 71.196 129.683 71.548C129.979 71.892 130.359 72.064 130.823 72.064ZM136.959 73.12C136.199 73.12 135.675 72.896 135.387 72.448C135.107 72 134.967 71.376 134.967 70.576V67.492H136.263V70.252C136.263 70.708 136.287 71.064 136.335 71.32C136.391 71.568 136.495 71.752 136.647 71.872C136.807 71.992 137.043 72.052 137.355 72.052C137.579 72.052 137.795 71.988 138.003 71.86C138.211 71.732 138.379 71.56 138.507 71.344C138.643 71.12 138.711 70.876 138.711 70.612V67.492H139.995V73H138.939L138.795 72.196C138.595 72.508 138.343 72.74 138.039 72.892C137.743 73.044 137.383 73.12 136.959 73.12ZM141.683 67.492H142.979V68.572C143.107 68.204 143.315 67.908 143.603 67.684C143.891 67.46 144.219 67.348 144.587 67.348C144.843 67.348 145.019 67.372 145.115 67.42L144.935 68.728C144.863 68.68 144.707 68.656 144.467 68.656C144.091 68.656 143.747 68.776 143.435 69.016C143.131 69.256 142.979 69.64 142.979 70.168V73H141.683V67.492ZM149.081 64.18H150.365V73H149.081V64.18ZM154.092 73.12C153.332 73.12 152.808 72.896 152.52 72.448C152.24 72 152.1 71.376 152.1 70.576V67.492H153.396V70.252C153.396 70.708 153.42 71.064 153.468 71.32C153.524 71.568 153.628 71.752 153.78 71.872C153.94 71.992 154.176 72.052 154.488 72.052C154.712 72.052 154.928 71.988 155.136 71.86C155.344 71.732 155.512 71.56 155.64 71.344C155.776 71.12 155.844 70.876 155.844 70.612V67.492H157.128V73H156.072L155.928 72.196C155.728 72.508 155.476 72.74 155.172 72.892C154.876 73.044 154.516 73.12 154.092 73.12ZM161.42 73.12C160.876 73.12 160.384 73.004 159.944 72.772C159.512 72.532 159.168 72.192 158.912 71.752C158.656 71.304 158.528 70.78 158.528 70.18C158.528 69.612 158.644 69.116 158.876 68.692C159.116 68.26 159.448 67.928 159.872 67.696C160.304 67.464 160.8 67.348 161.36 67.348C161.784 67.348 162.148 67.404 162.452 67.516C162.764 67.62 163.008 67.752 163.184 67.912L162.608 68.956C162.272 68.62 161.892 68.452 161.468 68.452C160.956 68.452 160.564 68.608 160.292 68.92C160.028 69.232 159.896 69.648 159.896 70.168C159.896 70.76 160.032 71.22 160.304 71.548C160.584 71.876 160.972 72.04 161.468 72.04C161.716 72.04 161.956 72.004 162.188 71.932C162.428 71.86 162.612 71.776 162.74 71.68L163.208 72.592C163.032 72.728 162.784 72.852 162.464 72.964C162.152 73.068 161.804 73.12 161.42 73.12ZM169.422 73H167.898L166.782 71.2L166.47 70.588L165.75 71.368V73H164.502V64.18H165.738V69.016L165.714 69.952L167.814 67.492H169.41L167.334 69.796L169.422 73ZM175.831 73.12C175.335 73.12 174.875 73.004 174.451 72.772C174.035 72.532 173.699 72.196 173.443 71.764C173.195 71.324 173.071 70.812 173.071 70.228C173.071 69.652 173.179 69.148 173.395 68.716C173.619 68.284 173.935 67.948 174.343 67.708C174.751 67.468 175.231 67.348 175.783 67.348C176.103 67.348 176.403 67.404 176.683 67.516C176.963 67.628 177.199 67.768 177.391 67.936C177.583 68.096 177.711 68.256 177.775 68.416L177.799 67.492H179.035V73H177.811L177.787 72.028C177.651 72.316 177.403 72.572 177.043 72.796C176.683 73.012 176.279 73.12 175.831 73.12ZM176.047 72.04C176.503 72.04 176.887 71.884 177.199 71.572C177.511 71.252 177.667 70.836 177.667 70.324V70.24C177.667 69.896 177.595 69.588 177.451 69.316C177.307 69.044 177.111 68.832 176.863 68.68C176.615 68.528 176.343 68.452 176.047 68.452C175.535 68.452 175.139 68.62 174.859 68.956C174.579 69.284 174.439 69.712 174.439 70.24C174.439 70.776 174.575 71.212 174.847 71.548C175.127 71.876 175.527 72.04 176.047 72.04ZM180.778 67.492H182.05L182.062 68.5C182.214 68.164 182.454 67.888 182.782 67.672C183.11 67.456 183.494 67.348 183.934 67.348C184.502 67.348 184.938 67.468 185.242 67.708C185.546 67.94 185.75 68.268 185.854 68.692C185.958 69.116 186.01 69.668 186.01 70.348V73H184.714V70.384C184.714 69.688 184.646 69.188 184.51 68.884C184.374 68.572 184.094 68.416 183.67 68.416C183.43 68.416 183.186 68.492 182.938 68.644C182.69 68.788 182.482 69 182.314 69.28C182.154 69.56 182.074 69.888 182.074 70.264V73H180.778V67.492ZM190.116 73.12C189.62 73.12 189.16 73.004 188.736 72.772C188.32 72.532 187.984 72.196 187.728 71.764C187.48 71.324 187.356 70.812 187.356 70.228C187.356 69.356 187.6 68.66 188.088 68.14C188.576 67.612 189.236 67.348 190.068 67.348C190.532 67.348 190.956 67.464 191.34 67.696C191.724 67.92 191.984 68.192 192.12 68.512L192.06 67.576V64.18H193.332V73H192.096L192.072 72.028C191.936 72.316 191.688 72.572 191.328 72.796C190.968 73.012 190.564 73.12 190.116 73.12ZM190.332 72.028C190.788 72.028 191.172 71.872 191.484 71.56C191.796 71.24 191.952 70.824 191.952 70.312V70.228C191.952 69.884 191.88 69.576 191.736 69.304C191.592 69.032 191.396 68.82 191.148 68.668C190.9 68.516 190.628 68.44 190.332 68.44C189.82 68.44 189.424 68.608 189.144 68.944C188.864 69.272 188.724 69.7 188.724 70.228C188.724 70.764 188.86 71.2 189.132 71.536C189.412 71.864 189.812 72.028 190.332 72.028ZM197.957 67.492H199.253V68.572C199.381 68.204 199.589 67.908 199.877 67.684C200.165 67.46 200.493 67.348 200.861 67.348C201.117 67.348 201.293 67.372 201.389 67.42L201.209 68.728C201.137 68.68 200.981 68.656 200.741 68.656C200.365 68.656 200.021 68.776 199.709 69.016C199.405 69.256 199.253 69.64 199.253 70.168V73H197.957V67.492ZM204.909 73.12C204.253 73.12 203.705 72.992 203.265 72.736C202.825 72.472 202.501 72.124 202.293 71.692C202.085 71.252 201.981 70.772 201.981 70.252C201.981 69.668 202.101 69.156 202.341 68.716C202.589 68.276 202.929 67.94 203.361 67.708C203.793 67.468 204.281 67.348 204.825 67.348C205.673 67.348 206.301 67.584 206.709 68.056C207.125 68.52 207.333 69.176 207.333 70.024C207.333 70.24 207.321 70.464 207.297 70.696H203.337C203.425 71.184 203.597 71.536 203.853 71.752C204.117 71.968 204.481 72.076 204.945 72.076C205.329 72.076 205.645 72.044 205.893 71.98C206.141 71.916 206.369 71.828 206.577 71.716L206.973 72.64C206.773 72.768 206.501 72.88 206.157 72.976C205.813 73.072 205.397 73.12 204.909 73.12ZM206.073 69.796C206.081 69.3 205.973 68.952 205.749 68.752C205.525 68.544 205.205 68.44 204.789 68.44C203.949 68.44 203.465 68.892 203.337 69.796H206.073ZM211.26 73.12C210.716 73.12 210.224 73.004 209.784 72.772C209.352 72.532 209.008 72.192 208.752 71.752C208.496 71.304 208.368 70.78 208.368 70.18C208.368 69.612 208.484 69.116 208.716 68.692C208.956 68.26 209.288 67.928 209.712 67.696C210.144 67.464 210.64 67.348 211.2 67.348C211.624 67.348 211.988 67.404 212.292 67.516C212.604 67.62 212.848 67.752 213.024 67.912L212.448 68.956C212.112 68.62 211.732 68.452 211.308 68.452C210.796 68.452 210.404 68.608 210.132 68.92C209.868 69.232 209.736 69.648 209.736 70.168C209.736 70.76 209.872 71.22 210.144 71.548C210.424 71.876 210.812 72.04 211.308 72.04C211.556 72.04 211.796 72.004 212.028 71.932C212.268 71.86 212.452 71.776 212.58 71.68L213.048 72.592C212.872 72.728 212.624 72.852 212.304 72.964C211.992 73.068 211.644 73.12 211.26 73.12ZM216.886 73.12C216.23 73.12 215.682 72.992 215.242 72.736C214.802 72.472 214.478 72.124 214.27 71.692C214.062 71.252 213.958 70.772 213.958 70.252C213.958 69.668 214.078 69.156 214.318 68.716C214.566 68.276 214.906 67.94 215.338 67.708C215.77 67.468 216.258 67.348 216.802 67.348C217.65 67.348 218.278 67.584 218.686 68.056C219.102 68.52 219.31 69.176 219.31 70.024C219.31 70.24 219.298 70.464 219.274 70.696H215.314C215.402 71.184 215.574 71.536 215.83 71.752C216.094 71.968 216.458 72.076 216.922 72.076C217.306 72.076 217.622 72.044 217.87 71.98C218.118 71.916 218.346 71.828 218.554 71.716L218.95 72.64C218.75 72.768 218.478 72.88 218.134 72.976C217.79 73.072 217.374 73.12 216.886 73.12ZM218.05 69.796C218.058 69.3 217.95 68.952 217.726 68.752C217.502 68.544 217.182 68.44 216.766 68.44C215.926 68.44 215.442 68.892 215.314 69.796H218.05ZM220.764 67.492H222.108V73H220.764V67.492ZM221.424 66.46C221.176 66.46 220.968 66.376 220.8 66.208C220.632 66.04 220.548 65.832 220.548 65.584C220.548 65.36 220.632 65.168 220.8 65.008C220.968 64.848 221.176 64.768 221.424 64.768C221.664 64.768 221.868 64.848 222.036 65.008C222.204 65.168 222.288 65.36 222.288 65.584C222.288 65.832 222.204 66.04 222.036 66.208C221.876 66.376 221.672 66.46 221.424 66.46ZM223.027 67.492H224.503L225.691 69.976L226.075 70.972L226.459 69.976L227.635 67.492H229.075L226.183 73H225.931L223.027 67.492ZM232.366 73.12C231.71 73.12 231.162 72.992 230.722 72.736C230.282 72.472 229.958 72.124 229.75 71.692C229.542 71.252 229.438 70.772 229.438 70.252C229.438 69.668 229.558 69.156 229.798 68.716C230.046 68.276 230.386 67.94 230.818 67.708C231.25 67.468 231.738 67.348 232.282 67.348C233.13 67.348 233.758 67.584 234.166 68.056C234.582 68.52 234.79 69.176 234.79 70.024C234.79 70.24 234.778 70.464 234.754 70.696H230.794C230.882 71.184 231.054 71.536 231.31 71.752C231.574 71.968 231.938 72.076 232.402 72.076C232.786 72.076 233.102 72.044 233.35 71.98C233.598 71.916 233.826 71.828 234.034 71.716L234.43 72.64C234.23 72.768 233.958 72.88 233.614 72.976C233.27 73.072 232.854 73.12 232.366 73.12ZM233.53 69.796C233.538 69.3 233.43 68.952 233.206 68.752C232.982 68.544 232.662 68.44 232.246 68.44C231.406 68.44 230.922 68.892 230.794 69.796H233.53ZM240.986 73.12C240.602 73.12 240.202 73.072 239.786 72.976C239.378 72.872 239.086 72.752 238.91 72.616L239.342 71.596C239.822 71.932 240.37 72.1 240.986 72.1C241.602 72.1 241.91 71.92 241.91 71.56C241.91 71.4 241.846 71.276 241.718 71.188C241.59 71.1 241.362 70.996 241.034 70.876L240.578 70.708C240.098 70.516 239.718 70.288 239.438 70.024C239.158 69.752 239.018 69.396 239.018 68.956C239.018 68.452 239.214 68.06 239.606 67.78C240.006 67.492 240.538 67.348 241.202 67.348C241.53 67.348 241.85 67.384 242.162 67.456C242.482 67.528 242.726 67.62 242.894 67.732L242.426 68.764C242.322 68.66 242.154 68.572 241.922 68.5C241.698 68.42 241.446 68.38 241.166 68.38C240.598 68.38 240.314 68.552 240.314 68.896C240.314 69.088 240.39 69.236 240.542 69.34C240.694 69.436 240.942 69.544 241.286 69.664C241.318 69.672 241.442 69.716 241.658 69.796C242.17 69.996 242.55 70.224 242.798 70.48C243.046 70.736 243.17 71.064 243.17 71.464C243.17 72.008 242.962 72.42 242.546 72.7C242.138 72.98 241.618 73.12 240.986 73.12ZM244.54 67.492H245.788V68.512C246.228 67.736 246.916 67.348 247.852 67.348C248.628 67.348 249.256 67.596 249.736 68.092C250.216 68.58 250.456 69.288 250.456 70.216C250.456 70.792 250.336 71.3 250.096 71.74C249.864 72.18 249.544 72.52 249.136 72.76C248.736 73 248.288 73.12 247.792 73.12C247.328 73.12 246.924 73.04 246.58 72.88C246.244 72.712 245.98 72.476 245.788 72.172L245.8 75.916H244.54V67.492ZM247.492 72.028C248.012 72.028 248.412 71.864 248.692 71.536C248.972 71.2 249.112 70.772 249.112 70.252C249.112 69.708 248.972 69.276 248.692 68.956C248.42 68.628 248.02 68.464 247.492 68.464C247.204 68.464 246.932 68.536 246.676 68.68C246.428 68.816 246.228 69.016 246.076 69.28C245.932 69.536 245.86 69.836 245.86 70.18V70.264C245.86 70.608 245.932 70.916 246.076 71.188C246.228 71.452 246.428 71.66 246.676 71.812C246.924 71.956 247.196 72.028 247.492 72.028ZM254.444 73.12C253.788 73.12 253.24 72.992 252.8 72.736C252.36 72.472 252.036 72.124 251.828 71.692C251.62 71.252 251.516 70.772 251.516 70.252C251.516 69.668 251.636 69.156 251.876 68.716C252.124 68.276 252.464 67.94 252.896 67.708C253.328 67.468 253.816 67.348 254.36 67.348C255.208 67.348 255.836 67.584 256.244 68.056C256.66 68.52 256.868 69.176 256.868 70.024C256.868 70.24 256.856 70.464 256.832 70.696H252.872C252.96 71.184 253.132 71.536 253.388 71.752C253.652 71.968 254.016 72.076 254.48 72.076C254.864 72.076 255.18 72.044 255.428 71.98C255.676 71.916 255.904 71.828 256.112 71.716L256.508 72.64C256.308 72.768 256.036 72.88 255.692 72.976C255.348 73.072 254.932 73.12 254.444 73.12ZM255.608 69.796C255.616 69.3 255.508 68.952 255.284 68.752C255.06 68.544 254.74 68.44 254.324 68.44C253.484 68.44 253 68.892 252.872 69.796H255.608ZM260.795 73.12C260.251 73.12 259.759 73.004 259.319 72.772C258.887 72.532 258.543 72.192 258.287 71.752C258.031 71.304 257.903 70.78 257.903 70.18C257.903 69.612 258.019 69.116 258.251 68.692C258.491 68.26 258.823 67.928 259.247 67.696C259.679 67.464 260.175 67.348 260.735 67.348C261.159 67.348 261.523 67.404 261.827 67.516C262.139 67.62 262.383 67.752 262.559 67.912L261.983 68.956C261.647 68.62 261.267 68.452 260.843 68.452C260.331 68.452 259.939 68.608 259.667 68.92C259.403 69.232 259.271 69.648 259.271 70.168C259.271 70.76 259.407 71.22 259.679 71.548C259.959 71.876 260.347 72.04 260.843 72.04C261.091 72.04 261.331 72.004 261.563 71.932C261.803 71.86 261.987 71.776 262.115 71.68L262.583 72.592C262.407 72.728 262.159 72.852 261.839 72.964C261.527 73.068 261.179 73.12 260.795 73.12ZM263.913 67.492H265.257V73H263.913V67.492ZM264.573 66.46C264.325 66.46 264.117 66.376 263.949 66.208C263.781 66.04 263.697 65.832 263.697 65.584C263.697 65.36 263.781 65.168 263.949 65.008C264.117 64.848 264.325 64.768 264.573 64.768C264.813 64.768 265.017 64.848 265.185 65.008C265.353 65.168 265.437 65.36 265.437 65.584C265.437 65.832 265.353 66.04 265.185 66.208C265.025 66.376 264.821 66.46 264.573 66.46ZM269.487 73.12C268.991 73.12 268.531 73.004 268.107 72.772C267.691 72.532 267.355 72.196 267.099 71.764C266.851 71.324 266.727 70.812 266.727 70.228C266.727 69.652 266.835 69.148 267.051 68.716C267.275 68.284 267.591 67.948 267.999 67.708C268.407 67.468 268.887 67.348 269.439 67.348C269.759 67.348 270.059 67.404 270.339 67.516C270.619 67.628 270.855 67.768 271.047 67.936C271.239 68.096 271.367 68.256 271.431 68.416L271.455 67.492H272.691V73H271.467L271.443 72.028C271.307 72.316 271.059 72.572 270.699 72.796C270.339 73.012 269.935 73.12 269.487 73.12ZM269.703 72.04C270.159 72.04 270.543 71.884 270.855 71.572C271.167 71.252 271.323 70.836 271.323 70.324V70.24C271.323 69.896 271.251 69.588 271.107 69.316C270.963 69.044 270.767 68.832 270.519 68.68C270.271 68.528 269.999 68.452 269.703 68.452C269.191 68.452 268.795 68.62 268.515 68.956C268.235 69.284 268.095 69.712 268.095 70.24C268.095 70.776 268.231 71.212 268.503 71.548C268.783 71.876 269.183 72.04 269.703 72.04ZM274.542 64.18H275.826V73H274.542V64.18ZM280.682 67.492H282.026V73H280.682V67.492ZM281.342 66.46C281.094 66.46 280.886 66.376 280.718 66.208C280.55 66.04 280.466 65.832 280.466 65.584C280.466 65.36 280.55 65.168 280.718 65.008C280.886 64.848 281.094 64.768 281.342 64.768C281.582 64.768 281.786 64.848 281.954 65.008C282.122 65.168 282.206 65.36 282.206 65.584C282.206 65.832 282.122 66.04 281.954 66.208C281.794 66.376 281.59 66.46 281.342 66.46ZM284.301 68.548H283.329V67.492H284.301V65.248L285.609 64.96V67.492H286.881V68.548H285.609V73H284.301V68.548ZM290.538 73.12C289.882 73.12 289.334 72.992 288.894 72.736C288.454 72.472 288.13 72.124 287.922 71.692C287.714 71.252 287.61 70.772 287.61 70.252C287.61 69.668 287.73 69.156 287.97 68.716C288.218 68.276 288.558 67.94 288.99 67.708C289.422 67.468 289.91 67.348 290.454 67.348C291.302 67.348 291.93 67.584 292.338 68.056C292.754 68.52 292.962 69.176 292.962 70.024C292.962 70.24 292.95 70.464 292.926 70.696H288.966C289.054 71.184 289.226 71.536 289.482 71.752C289.746 71.968 290.11 72.076 290.574 72.076C290.958 72.076 291.274 72.044 291.522 71.98C291.77 71.916 291.998 71.828 292.206 71.716L292.602 72.64C292.402 72.768 292.13 72.88 291.786 72.976C291.442 73.072 291.026 73.12 290.538 73.12ZM291.702 69.796C291.71 69.3 291.602 68.952 291.378 68.752C291.154 68.544 290.834 68.44 290.418 68.44C289.578 68.44 289.094 68.892 288.966 69.796H291.702ZM294.321 67.492H295.617V68.488C295.793 68.112 296.049 67.828 296.385 67.636C296.729 67.444 297.121 67.348 297.561 67.348C298.545 67.356 299.149 67.696 299.373 68.368C299.549 68.056 299.813 67.808 300.165 67.624C300.517 67.44 300.889 67.348 301.281 67.348C301.857 67.348 302.293 67.46 302.589 67.684C302.885 67.9 303.081 68.212 303.177 68.62C303.281 69.02 303.333 69.56 303.333 70.24V73H302.025V70.228C302.025 69.58 301.957 69.116 301.821 68.836C301.693 68.556 301.441 68.416 301.065 68.416C300.561 68.416 300.177 68.588 299.913 68.932C299.657 69.268 299.529 69.712 299.529 70.264V73H298.233V70.036C298.233 69.612 298.217 69.296 298.185 69.088C298.153 68.88 298.065 68.716 297.921 68.596C297.777 68.476 297.545 68.416 297.225 68.416C296.945 68.416 296.681 68.5 296.433 68.668C296.193 68.836 295.997 69.064 295.845 69.352C295.701 69.632 295.629 69.936 295.629 70.264V73H294.321V67.492ZM306.881 73.12C306.497 73.12 306.097 73.072 305.681 72.976C305.273 72.872 304.981 72.752 304.805 72.616L305.237 71.596C305.717 71.932 306.265 72.1 306.881 72.1C307.497 72.1 307.805 71.92 307.805 71.56C307.805 71.4 307.741 71.276 307.613 71.188C307.485 71.1 307.257 70.996 306.929 70.876L306.473 70.708C305.993 70.516 305.613 70.288 305.333 70.024C305.053 69.752 304.913 69.396 304.913 68.956C304.913 68.452 305.109 68.06 305.501 67.78C305.901 67.492 306.433 67.348 307.097 67.348C307.425 67.348 307.745 67.384 308.057 67.456C308.377 67.528 308.621 67.62 308.789 67.732L308.321 68.764C308.217 68.66 308.049 68.572 307.817 68.5C307.593 68.42 307.341 68.38 307.061 68.38C306.493 68.38 306.209 68.552 306.209 68.896C306.209 69.088 306.285 69.236 306.437 69.34C306.589 69.436 306.837 69.544 307.181 69.664C307.213 69.672 307.337 69.716 307.553 69.796C308.065 69.996 308.445 70.224 308.693 70.48C308.941 70.736 309.065 71.064 309.065 71.464C309.065 72.008 308.857 72.42 308.441 72.7C308.033 72.98 307.513 73.12 306.881 73.12Z" fill="#F6F1F2"/>
<path d="M363.333 46.6663L368.667 51.9997L363.333 57.333" stroke="white" stroke-width="2" stroke-linecap="round" stroke-linejoin="round"/>
</g>
<g filter="url(#filter2_b_7165_12588)">
<rect width="398" height="104" fill="#1B1B1D" fill-opacity="0.7"/>
</g>
<path fill-rule="evenodd" clip-rule="evenodd" d="M141.167 64H127.833C126.36 64 125.167 62.8067 125.167 61.3333V50.6667C125.167 49.1933 126.36 48 127.833 48H141.167C142.64 48 143.833 49.1933 143.833 50.6667V61.3333C143.833 62.8067 142.64 64 141.167 64Z" stroke="white" stroke-width="1.954" stroke-linecap="round" stroke-linejoin="round"/>
<path d="M139.833 48V45.3333C139.833 42.388 137.445 40 134.5 40V40C131.555 40 129.167 42.388 129.167 45.3333V48" stroke="white" stroke-width="1.8708" stroke-linecap="round" stroke-linejoin="round"/>
<path d="M134.497 55.333C134.129 55.333 133.831 55.6317 133.833 55.9997C133.833 56.3677 134.132 56.6663 134.5 56.6663C134.868 56.6663 135.167 56.3677 135.167 55.9997C135.167 55.6317 134.868 55.333 134.497 55.333" stroke="white" stroke-width="2" stroke-linecap="round" stroke-linejoin="round"/>
<path d="M167.033 60.14C165.513 60.14 164.193 59.8 163.073 59.12C161.966 58.44 161.12 57.5333 160.533 56.4C159.946 55.2533 159.653 53.9933 159.653 52.62C159.653 51.1667 159.966 49.8667 160.593 48.72C161.233 47.5733 162.126 46.68 163.273 46.04C164.42 45.3867 165.72 45.06 167.173 45.06C167.826 45.06 168.433 45.1333 168.993 45.28C169.566 45.4133 170.04 45.5733 170.413 45.76C170.786 45.9333 171.033 46.08 171.153 46.2L170.173 48.2C169.36 47.48 168.3 47.12 166.993 47.12C166.073 47.12 165.24 47.3467 164.493 47.8C163.746 48.2533 163.16 48.9 162.733 49.74C162.306 50.58 162.093 51.5533 162.093 52.66C162.093 53.6733 162.28 54.5933 162.653 55.42C163.04 56.2467 163.6 56.9 164.333 57.38C165.066 57.86 165.94 58.1 166.953 58.1C168.126 58.1 169.26 57.7667 170.353 57.1L171.013 59C170.72 59.2667 170.18 59.5267 169.393 59.78C168.62 60.02 167.833 60.14 167.033 60.14ZM177.481 60.2C176.535 60.2 175.695 59.9867 174.961 59.56C174.228 59.1333 173.661 58.5533 173.261 57.82C172.861 57.0867 172.661 56.2733 172.661 55.38C172.661 54.5 172.855 53.6933 173.241 52.96C173.641 52.2267 174.208 51.6467 174.941 51.22C175.675 50.7933 176.521 50.58 177.481 50.58C178.441 50.58 179.281 50.7933 180.001 51.22C180.735 51.6467 181.295 52.2267 181.681 52.96C182.081 53.6933 182.281 54.5 182.281 55.38C182.281 56.2733 182.081 57.0867 181.681 57.82C181.281 58.5533 180.715 59.1333 179.981 59.56C179.261 59.9867 178.428 60.2 177.481 60.2ZM177.541 58.44C178.315 58.44 178.921 58.1533 179.361 57.58C179.815 57.0067 180.041 56.2867 180.041 55.42C180.041 54.5533 179.801 53.8267 179.321 53.24C178.841 52.64 178.208 52.34 177.421 52.34C176.661 52.34 176.048 52.6333 175.581 53.22C175.128 53.8067 174.901 54.54 174.901 55.42C174.901 56.2733 175.148 56.9933 175.641 57.58C176.135 58.1533 176.768 58.44 177.541 58.44ZM184.588 50.82H186.748V52.48C187.041 51.8533 187.468 51.38 188.028 51.06C188.601 50.74 189.255 50.58 189.988 50.58C191.628 50.5933 192.635 51.16 193.008 52.28C193.301 51.76 193.741 51.3467 194.328 51.04C194.915 50.7333 195.535 50.58 196.188 50.58C197.148 50.58 197.875 50.7667 198.368 51.14C198.861 51.5 199.188 52.02 199.348 52.7C199.521 53.3667 199.608 54.2667 199.608 55.4V60H197.428V55.38C197.428 54.3 197.315 53.5267 197.088 53.06C196.875 52.5933 196.455 52.36 195.828 52.36C194.988 52.36 194.348 52.6467 193.908 53.22C193.481 53.78 193.268 54.52 193.268 55.44V60H191.108V55.06C191.108 54.3533 191.081 53.8267 191.028 53.48C190.975 53.1333 190.828 52.86 190.588 52.66C190.348 52.46 189.961 52.36 189.428 52.36C188.961 52.36 188.521 52.5 188.108 52.78C187.708 53.06 187.381 53.44 187.128 53.92C186.888 54.3867 186.768 54.8933 186.768 55.44V60H184.588V50.82ZM202.521 50.82H204.761V60H202.521V50.82ZM203.621 49.1C203.208 49.1 202.861 48.96 202.581 48.68C202.301 48.4 202.161 48.0533 202.161 47.64C202.161 47.2667 202.301 46.9467 202.581 46.68C202.861 46.4133 203.208 46.28 203.621 46.28C204.021 46.28 204.361 46.4133 204.641 46.68C204.921 46.9467 205.061 47.2667 205.061 47.64C205.061 48.0533 204.921 48.4 204.641 48.68C204.375 48.96 204.035 49.1 203.621 49.1ZM207.752 50.82H209.872L209.892 52.5C210.145 51.94 210.545 51.48 211.092 51.12C211.639 50.76 212.279 50.58 213.012 50.58C213.959 50.58 214.685 50.78 215.192 51.18C215.699 51.5667 216.039 52.1133 216.212 52.82C216.385 53.5267 216.472 54.4467 216.472 55.58V60H214.312V55.64C214.312 54.48 214.199 53.6467 213.972 53.14C213.745 52.62 213.279 52.36 212.572 52.36C212.172 52.36 211.765 52.4867 211.352 52.74C210.939 52.98 210.592 53.3333 210.312 53.8C210.045 54.2667 209.912 54.8133 209.912 55.44V60H207.752V50.82ZM223.716 64.8C223.036 64.8 222.363 64.7067 221.696 64.52C221.043 64.3333 220.576 64.16 220.296 64L220.776 62C221.656 62.5733 222.616 62.86 223.656 62.86C224.456 62.86 225.129 62.6667 225.676 62.28C226.223 61.8933 226.503 61.14 226.516 60.02V58.38C226.236 58.9 225.783 59.3333 225.156 59.68C224.529 60.0267 223.836 60.2 223.076 60.2C222.276 60.2 221.543 60.0067 220.876 59.62C220.209 59.22 219.683 58.6533 219.296 57.92C218.909 57.1867 218.716 56.3333 218.716 55.36C218.716 54.4267 218.896 53.6 219.256 52.88C219.629 52.1467 220.156 51.58 220.836 51.18C221.516 50.78 222.309 50.58 223.216 50.58C223.749 50.58 224.249 50.6733 224.716 50.86C225.183 51.0467 225.576 51.28 225.896 51.56C226.229 51.8267 226.449 52.0933 226.556 52.36L226.596 50.82H228.636V59.94C228.636 61.5 228.236 62.7 227.436 63.54C226.636 64.38 225.396 64.8 223.716 64.8ZM223.676 58.38C224.436 58.38 225.076 58.12 225.596 57.6C226.116 57.0667 226.376 56.3733 226.376 55.52V55.38C226.376 54.8067 226.256 54.2933 226.016 53.84C225.776 53.3867 225.449 53.0333 225.036 52.78C224.623 52.5267 224.169 52.4 223.676 52.4C222.823 52.4 222.163 52.68 221.696 53.24C221.229 53.7867 220.996 54.5 220.996 55.38C220.996 56.2733 221.223 57 221.676 57.56C222.143 58.1067 222.809 58.38 223.676 58.38ZM239.467 60.2C238.827 60.2 238.16 60.12 237.467 59.96C236.787 59.7867 236.3 59.5867 236.007 59.36L236.727 57.66C237.527 58.22 238.44 58.5 239.467 58.5C240.493 58.5 241.007 58.2 241.007 57.6C241.007 57.3333 240.9 57.1267 240.687 56.98C240.473 56.8333 240.093 56.66 239.547 56.46L238.787 56.18C237.987 55.86 237.353 55.48 236.887 55.04C236.42 54.5867 236.187 53.9933 236.187 53.26C236.187 52.42 236.513 51.7667 237.167 51.3C237.833 50.82 238.72 50.58 239.827 50.58C240.373 50.58 240.907 50.64 241.427 50.76C241.96 50.88 242.367 51.0333 242.647 51.22L241.867 52.94C241.693 52.7667 241.413 52.62 241.027 52.5C240.653 52.3667 240.233 52.3 239.767 52.3C238.82 52.3 238.347 52.5867 238.347 53.16C238.347 53.48 238.473 53.7267 238.727 53.9C238.98 54.06 239.393 54.24 239.967 54.44C240.02 54.4533 240.227 54.5267 240.587 54.66C241.44 54.9933 242.073 55.3733 242.487 55.8C242.9 56.2267 243.107 56.7733 243.107 57.44C243.107 58.3467 242.76 59.0333 242.067 59.5C241.387 59.9667 240.52 60.2 239.467 60.2ZM249.63 60.2C248.683 60.2 247.843 59.9867 247.11 59.56C246.376 59.1333 245.81 58.5533 245.41 57.82C245.01 57.0867 244.81 56.2733 244.81 55.38C244.81 54.5 245.003 53.6933 245.39 52.96C245.79 52.2267 246.356 51.6467 247.09 51.22C247.823 50.7933 248.67 50.58 249.63 50.58C250.59 50.58 251.43 50.7933 252.15 51.22C252.883 51.6467 253.443 52.2267 253.83 52.96C254.23 53.6933 254.43 54.5 254.43 55.38C254.43 56.2733 254.23 57.0867 253.83 57.82C253.43 58.5533 252.863 59.1333 252.13 59.56C251.41 59.9867 250.576 60.2 249.63 60.2ZM249.69 58.44C250.463 58.44 251.07 58.1533 251.51 57.58C251.963 57.0067 252.19 56.2867 252.19 55.42C252.19 54.5533 251.95 53.8267 251.47 53.24C250.99 52.64 250.356 52.34 249.57 52.34C248.81 52.34 248.196 52.6333 247.73 53.22C247.276 53.8067 247.05 54.54 247.05 55.42C247.05 56.2733 247.296 56.9933 247.79 57.58C248.283 58.1533 248.916 58.44 249.69 58.44ZM261.016 60.2C260.07 60.2 259.23 59.9867 258.496 59.56C257.763 59.1333 257.196 58.5533 256.796 57.82C256.396 57.0867 256.196 56.2733 256.196 55.38C256.196 54.5 256.39 53.6933 256.776 52.96C257.176 52.2267 257.743 51.6467 258.476 51.22C259.21 50.7933 260.056 50.58 261.016 50.58C261.976 50.58 262.816 50.7933 263.536 51.22C264.27 51.6467 264.83 52.2267 265.216 52.96C265.616 53.6933 265.816 54.5 265.816 55.38C265.816 56.2733 265.616 57.0867 265.216 57.82C264.816 58.5533 264.25 59.1333 263.516 59.56C262.796 59.9867 261.963 60.2 261.016 60.2ZM261.076 58.44C261.85 58.44 262.456 58.1533 262.896 57.58C263.35 57.0067 263.576 56.2867 263.576 55.42C263.576 54.5533 263.336 53.8267 262.856 53.24C262.376 52.64 261.743 52.34 260.956 52.34C260.196 52.34 259.583 52.6333 259.116 53.22C258.663 53.8067 258.436 54.54 258.436 55.42C258.436 56.2733 258.683 56.9933 259.176 57.58C259.67 58.1533 260.303 58.44 261.076 58.44ZM268.123 50.82H270.243L270.263 52.5C270.516 51.94 270.916 51.48 271.463 51.12C272.01 50.76 272.65 50.58 273.383 50.58C274.33 50.58 275.056 50.78 275.563 51.18C276.07 51.5667 276.41 52.1133 276.583 52.82C276.756 53.5267 276.843 54.4467 276.843 55.58V60H274.683V55.64C274.683 54.48 274.57 53.6467 274.343 53.14C274.116 52.62 273.65 52.36 272.943 52.36C272.543 52.36 272.136 52.4867 271.723 52.74C271.31 52.98 270.963 53.3333 270.683 53.8C270.416 54.2667 270.283 54.8133 270.283 55.44V60H268.123V50.82Z" fill="#F6F1F2"/>
</g>
<rect x="0.5" y="0.5" width="397" height="103" rx="15.5" stroke="#535254"/>
</g>
<defs>
<filter id="filter0_b_7165_12588" x="-4" y="-4" width="406" height="112" filterUnits="userSpaceOnUse" color-interpolation-filters="sRGB">
<feFlood flood-opacity="0" result="BackgroundImageFix"/>
<feGaussianBlur in="BackgroundImageFix" stdDeviation="2"/>
<feComposite in2="SourceAlpha" operator="in" result="effect1_backgroundBlur_7165_12588"/>
<feBlend mode="normal" in="SourceGraphic" in2="effect1_backgroundBlur_7165_12588" result="shape"/>
</filter>
<filter id="filter1_f_7165_12588" x="6.7" y="6.7" width="384.6" height="90.6" filterUnits="userSpaceOnUse" color-interpolation-filters="sRGB">
<feFlood flood-opacity="0" result="BackgroundImageFix"/>
<feBlend mode="normal" in="SourceGraphic" in2="BackgroundImageFix" result="shape"/>
<feGaussianBlur stdDeviation="4.65" result="effect1_foregroundBlur_7165_12588"/>
</filter>
<filter id="filter2_b_7165_12588" x="-11.7" y="-11.7" width="421.4" height="127.4" filterUnits="userSpaceOnUse" color-interpolation-filters="sRGB">
<feFlood flood-opacity="0" result="BackgroundImageFix"/>
<feGaussianBlur in="BackgroundImageFix" stdDeviation="5.85"/>
<feComposite in2="SourceAlpha" operator="in" result="effect1_backgroundBlur_7165_12588"/>
<feBlend mode="normal" in="SourceGraphic" in2="effect1_backgroundBlur_7165_12588" result="shape"/>
</filter>
<radialGradient id="paint0_radial_7165_12588" cx="0" cy="0" r="1" gradientUnits="userSpaceOnUse" gradientTransform="translate(51.2404 51.7114) rotate(30) scale(26.9242 26.9242)">
<stop stop-color="#FFCB00"/>
<stop offset="0.28" stop-color="#A88600"/>
<stop offset="0.54" stop-color="#604D00"/>
<stop offset="0.75" stop-color="#2C2300"/>
<stop offset="0.91" stop-color="#00020C"/>
<stop offset="1"/>
</radialGradient>
<linearGradient id="paint1_linear_7165_12588" x1="46.77" y1="46.0174" x2="57.4492" y2="78.8133" gradientUnits="userSpaceOnUse">
<stop stop-color="#FFC458"/>
<stop offset="0.48" stop-color="#D09E29"/>
<stop offset="0.83" stop-color="#B2860B"/>
<stop offset="1" stop-color="#BF9B30"/>
</linearGradient>
<linearGradient id="paint2_linear_7165_12588" x1="47.2182" y1="45.6" x2="51.2739" y2="58.0711" gradientUnits="userSpaceOnUse">
<stop stop-color="#FFC458"/>
<stop offset="0.48" stop-color="#D09E29"/>
<stop offset="0.83" stop-color="#B2860B"/>
<stop offset="1" stop-color="#BF9B30"/>
</linearGradient>
<linearGradient id="paint3_linear_7165_12588" x1="51.0795" y1="56.5645" x2="58.1705" y2="78.3446" gradientUnits="userSpaceOnUse">
<stop stop-color="#FFC458"/>
<stop offset="0.48" stop-color="#D09E29"/>
<stop offset="0.83" stop-color="#B2860B"/>
<stop offset="1" stop-color="#BF9B30"/>
</linearGradient>
<linearGradient id="paint4_linear_7165_12588" x1="39.6354" y1="62.7482" x2="60.4759" y2="62.5319" gradientUnits="userSpaceOnUse">
<stop stop-color="#FFC458"/>
<stop offset="0.48" stop-color="#D09E29"/>
<stop offset="0.83" stop-color="#B2860B"/>
<stop offset="1" stop-color="#BF9B30"/>
</linearGradient>
<linearGradient id="paint5_linear_7165_12588" x1="96.2635" y1="64.233" x2="39.8388" y2="69.1781" gradientUnits="userSpaceOnUse">
<stop stop-color="#FFC458"/>
<stop offset="0.48" stop-color="#D09E29"/>
<stop offset="0.83" stop-color="#B2860B"/>
<stop offset="1" stop-color="#BF9B30"/>
</linearGradient>
<linearGradient id="paint6_linear_7165_12588" x1="38.6369" y1="62.9557" x2="60.4739" y2="62.7306" gradientUnits="userSpaceOnUse">
<stop stop-color="#FFC458"/>
<stop offset="0.48" stop-color="#D09E29"/>
<stop offset="0.83" stop-color="#B2860B"/>
<stop offset="1" stop-color="#BF9B30"/>
</linearGradient>
<linearGradient id="paint7_linear_7165_12588" x1="54.2938" y1="42.3968" x2="36.2963" y2="74.1875" gradientUnits="userSpaceOnUse">
<stop stop-color="#A6A8AF"/>
<stop offset="0.5" stop-color="#E7E4ED"/>
<stop offset="0.65" stop-color="#C3C4CC"/>
<stop offset="0.88" stop-color="#93999D"/>
<stop offset="1" stop-color="#81898B"/>
</linearGradient>
<linearGradient id="paint8_linear_7165_12588" x1="46.5953" y1="52.9366" x2="56.1076" y2="73.4777" gradientUnits="userSpaceOnUse">
<stop stop-color="#B3B2B3"/>
<stop offset="0.5" stop-color="#E5E5E5"/>
<stop offset="0.62" stop-color="#CCCBCC"/>
<stop offset="0.87" stop-color="#9B9999"/>
<stop offset="1" stop-color="#888686"/>
</linearGradient>
<linearGradient id="paint9_linear_7165_12588" x1="43.7261" y1="41.6363" x2="65.0693" y2="73.6171" gradientUnits="userSpaceOnUse">
<stop offset="0.45" stop-color="#C9C9C9"/>
<stop offset="0.54" stop-color="#C3C3C3"/>
<stop offset="0.65" stop-color="#B3B4B4"/>
<stop offset="0.78" stop-color="#989B9B"/>
<stop offset="0.92" stop-color="#737979"/>
<stop offset="1" stop-color="#5B6362"/>
</linearGradient>
<linearGradient id="paint10_linear_7165_12588" x1="46.4379" y1="45.414" x2="61.6034" y2="78.1728" gradientUnits="userSpaceOnUse">
<stop stop-color="#B3B2B3"/>
<stop offset="0.5" stop-color="#E5E5E5"/>
<stop offset="0.62" stop-color="#CCCBCC"/>
<stop offset="0.87" stop-color="#9B9999"/>
<stop offset="1" stop-color="#888686"/>
</linearGradient>
<linearGradient id="paint11_linear_7165_12588" x1="49.176" y1="32.6633" x2="45.3257" y2="49.1661" gradientUnits="userSpaceOnUse">
<stop stop-color="#5E5E64"/>
<stop offset="0.65" stop-color="#7F838A"/>
</linearGradient>
<linearGradient id="paint12_linear_7165_12588" x1="50.8108" y1="32.4543" x2="51.3986" y2="50.0257" gradientUnits="userSpaceOnUse">
<stop stop-color="#9EA0A2"/>
<stop offset="0.27" stop-color="#D3D4D2"/>
<stop offset="0.41" stop-color="#F2F2EF"/>
<stop offset="0.5" stop-color="#CBCAC9"/>
<stop offset="0.6" stop-color="#A8A7A6"/>
<stop offset="0.7" stop-color="#8E8B8B"/>
<stop offset="0.8" stop-color="#7B7777"/>
<stop offset="0.9" stop-color="#706B6B"/>
<stop offset="1" stop-color="#6D6868"/>
</linearGradient>
<linearGradient id="paint13_linear_7165_12588" x1="48.5249" y1="33.8431" x2="47.3339" y2="38.9456" gradientUnits="userSpaceOnUse">
<stop stop-color="#5E5E64"/>
<stop offset="0.65" stop-color="#7F838A"/>
</linearGradient>
<linearGradient id="paint14_linear_7165_12588" x1="49.893" y1="33.3145" x2="46.1104" y2="49.5136" gradientUnits="userSpaceOnUse">
<stop stop-color="#AEADAC"/>
<stop offset="1" stop-color="#9C9A9C"/>
</linearGradient>
<linearGradient id="paint15_linear_7165_12588" x1="52.0998" y1="41.1426" x2="52.4035" y2="50.1174" gradientUnits="userSpaceOnUse">
<stop stop-color="#D5D6D6"/>
<stop offset="1" stop-color="#A3A1A1"/>
</linearGradient>
<linearGradient id="paint16_linear_7165_12588" x1="49.8863" y1="50.587" x2="51.4793" y2="51.507" gradientUnits="userSpaceOnUse">
<stop stop-color="#A3A1A1"/>
<stop offset="1" stop-color="#D5D6D6"/>
</linearGradient>
<linearGradient id="paint17_linear_7165_12588" x1="31.9347" y1="47.6108" x2="47.0324" y2="54.6253" gradientUnits="userSpaceOnUse">
<stop stop-color="#5E5E64"/>
<stop offset="0.65" stop-color="#7F838A"/>
</linearGradient>
<linearGradient id="paint18_linear_7165_12588" x1="31.3446" y1="46.9975" x2="48.9816" y2="49.9825" gradientUnits="userSpaceOnUse">
<stop stop-color="#9EA0A2"/>
<stop offset="0.27" stop-color="#D3D4D2"/>
<stop offset="0.41" stop-color="#F2F2EF"/>
<stop offset="0.5" stop-color="#CBCAC9"/>
<stop offset="0.6" stop-color="#A8A7A6"/>
<stop offset="0.7" stop-color="#8E8B8B"/>
<stop offset="0.8" stop-color="#7B7777"/>
<stop offset="0.9" stop-color="#706B6B"/>
<stop offset="1" stop-color="#6D6868"/>
</linearGradient>
<linearGradient id="paint19_linear_7165_12588" x1="32.5006" y1="49.3555" x2="36.8579" y2="51.3812" gradientUnits="userSpaceOnUse">
<stop stop-color="#5E5E64"/>
<stop offset="0.65" stop-color="#7F838A"/>
</linearGradient>
<linearGradient id="paint20_linear_7165_12588" x1="32.4066" y1="47.5083" x2="47.2705" y2="54.4115" gradientUnits="userSpaceOnUse">
<stop stop-color="#AEADAC"/>
<stop offset="1" stop-color="#9C9A9C"/>
</linearGradient>
<linearGradient id="paint21_linear_7165_12588" x1="40.8287" y1="46.7204" x2="49.4297" y2="48.1758" gradientUnits="userSpaceOnUse">
<stop stop-color="#D5D6D6"/>
<stop offset="1" stop-color="#A3A1A1"/>
</linearGradient>
<linearGradient id="paint22_linear_7165_12588" x1="65.9784" y1="46.761" x2="52.1721" y2="54.0771" gradientUnits="userSpaceOnUse">
<stop stop-color="#5E5E64"/>
<stop offset="0.65" stop-color="#7F838A"/>
</linearGradient>
<linearGradient id="paint23_linear_7165_12588" x1="66.0724" y1="45.4346" x2="50.0831" y2="49.0118" gradientUnits="userSpaceOnUse">
<stop stop-color="#9EA0A2"/>
<stop offset="0.27" stop-color="#D3D4D2"/>
<stop offset="0.41" stop-color="#F2F2EF"/>
<stop offset="0.5" stop-color="#CBCAC9"/>
<stop offset="0.6" stop-color="#A8A7A6"/>
<stop offset="0.7" stop-color="#8E8B8B"/>
<stop offset="0.8" stop-color="#7B7777"/>
<stop offset="0.9" stop-color="#706B6B"/>
<stop offset="1" stop-color="#6D6868"/>
</linearGradient>
<linearGradient id="paint24_linear_7165_12588" x1="65.2156" y1="47.8647" x2="60.9523" y2="50.1242" gradientUnits="userSpaceOnUse">
<stop stop-color="#5E5E64"/>
<stop offset="0.65" stop-color="#7F838A"/>
</linearGradient>
<linearGradient id="paint25_linear_7165_12588" x1="65.3009" y1="46.4126" x2="51.7547" y2="53.5932" gradientUnits="userSpaceOnUse">
<stop stop-color="#AEADAC"/>
<stop offset="1" stop-color="#9C9A9C"/>
</linearGradient>
<linearGradient id="paint26_linear_7165_12588" x1="57.8777" y1="46.0626" x2="49.7115" y2="47.8873" gradientUnits="userSpaceOnUse">
<stop stop-color="#D5D6D6"/>
<stop offset="1" stop-color="#A3A1A1"/>
</linearGradient>
<linearGradient id="paint27_linear_7165_12588" x1="59.2675" y1="63.1089" x2="48.243" y2="53.0788" gradientUnits="userSpaceOnUse">
<stop stop-color="#5E5E64"/>
<stop offset="0.65" stop-color="#7F838A"/>
</linearGradient>
<linearGradient id="paint28_linear_7165_12588" x1="60.9544" y1="62.1532" x2="52.467" y2="49.6231" gradientUnits="userSpaceOnUse">
<stop stop-color="#9EA0A2"/>
<stop offset="0.27" stop-color="#D3D4D2"/>
<stop offset="0.41" stop-color="#F2F2EF"/>
<stop offset="0.5" stop-color="#CBCAC9"/>
<stop offset="0.6" stop-color="#A8A7A6"/>
<stop offset="0.7" stop-color="#8E8B8B"/>
<stop offset="0.8" stop-color="#7B7777"/>
<stop offset="0.9" stop-color="#706B6B"/>
<stop offset="1" stop-color="#6D6868"/>
</linearGradient>
<linearGradient id="paint29_linear_7165_12588" x1="58.5202" y1="62.2655" x2="55.3385" y2="59.3723" gradientUnits="userSpaceOnUse">
<stop stop-color="#5E5E64"/>
<stop offset="0.65" stop-color="#7F838A"/>
</linearGradient>
<linearGradient id="paint30_linear_7165_12588" x1="59.5757" y1="62.258" x2="48.7238" y2="52.3873" gradientUnits="userSpaceOnUse">
<stop stop-color="#AEADAC"/>
<stop offset="1" stop-color="#9C9A9C"/>
</linearGradient>
<linearGradient id="paint31_linear_7165_12588" x1="56.6693" y1="55.5589" x2="52.5349" y2="49.4578" gradientUnits="userSpaceOnUse">
<stop stop-color="#D5D6D6"/>
<stop offset="1" stop-color="#A3A1A1"/>
</linearGradient>
<linearGradient id="paint32_linear_7165_12588" x1="49.0035" y1="49.1369" x2="50.2075" y2="51.4904" gradientUnits="userSpaceOnUse">
<stop offset="0.03" stop-color="#C5C7CE"/>
<stop offset="0.05" stop-color="#CFD2D7"/>
<stop offset="0.11" stop-color="#E8E8EC"/>
<stop offset="0.16" stop-color="#F7F8FA"/>
<stop offset="0.21" stop-color="#FFFEFD"/>
<stop offset="0.32" stop-color="#F7F7F9"/>
<stop offset="0.46" stop-color="#E7E9EB"/>
<stop offset="0.63" stop-color="#CDD3D2"/>
<stop offset="0.8" stop-color="#A8B3B0"/>
<stop offset="0.92" stop-color="#8B9995"/>
</linearGradient>
<linearGradient id="paint33_linear_7165_12588" x1="49.1936" y1="49.5" x2="50.1813" y2="51.4295" gradientUnits="userSpaceOnUse">
<stop stop-color="#CECFD7"/>
<stop offset="1" stop-color="#ABB2B2"/>
</linearGradient>
<radialGradient id="paint34_radial_7165_12588" cx="0" cy="0" r="1" gradientUnits="userSpaceOnUse" gradientTransform="translate(35.4758 31.7011) rotate(30) scale(4.47534 4.47535)">
<stop stop-color="#C97E00"/>
<stop offset="0.22" stop-color="#925B00"/>
<stop offset="0.49" stop-color="#543500"/>
<stop offset="0.72" stop-color="#261800"/>
<stop offset="0.9" stop-color="#00080A"/>
<stop offset="1"/>
</radialGradient>
<radialGradient id="paint35_radial_7165_12588" cx="0" cy="0" r="1" gradientUnits="userSpaceOnUse" gradientTransform="translate(76.7112 50.9183) rotate(29.9999) scale(4.47536 4.47535)">
<stop stop-color="#C97E00"/>
<stop offset="0.22" stop-color="#925B00"/>
<stop offset="0.49" stop-color="#543500"/>
<stop offset="0.72" stop-color="#261800"/>
<stop offset="0.9" stop-color="#00080A"/>
<stop offset="1"/>
</radialGradient>
<radialGradient id="paint36_radial_7165_12588" cx="0" cy="0" r="1" gradientUnits="userSpaceOnUse" gradientTransform="translate(63.8873 37.8715) rotate(30.0001) scale(2.25296 2.25297)">
<stop stop-color="#C97E00"/>
<stop offset="0.22" stop-color="#925B00"/>
<stop offset="0.49" stop-color="#543500"/>
<stop offset="0.72" stop-color="#261800"/>
<stop offset="0.9" stop-color="#00080A"/>
<stop offset="1"/>
</radialGradient>
<radialGradient id="paint37_radial_7165_12588" cx="0" cy="0" r="1" gradientUnits="userSpaceOnUse" gradientTransform="translate(38.3268 40.302) rotate(30.0001) scale(2.25296 2.25297)">
<stop stop-color="#C97E00"/>
<stop offset="0.22" stop-color="#925B00"/>
<stop offset="0.49" stop-color="#543500"/>
<stop offset="0.72" stop-color="#261800"/>
<stop offset="0.9" stop-color="#00080A"/>
<stop offset="1"/>
</radialGradient>
<clipPath id="clip0_7165_12588">
<rect width="398" height="104" rx="16" fill="white"/>
</clipPath>
</defs>
</svg>
