<svg width="23" height="25" viewBox="0 0 23 25" fill="none" xmlns="http://www.w3.org/2000/svg">
<path d="M16.3043 24.5004C13.9478 24.5004 11.9504 23.8383 10.155 22.5569C9.22367 21.8926 8.40003 21.1071 7.65718 20.2386C7.3183 19.8413 7.23077 19.3857 7.41255 18.8965C7.58985 18.414 7.94669 18.12 8.45838 18.0369C9.12717 17.927 9.78473 17.7676 10.4176 17.5185C11.7911 16.9754 12.8998 16.0957 13.7593 14.8972C13.8244 14.8052 13.885 14.711 13.9613 14.6279C14.3765 14.1723 14.8904 13.9995 15.4919 14.1185C16.3649 14.2913 16.9843 14.9287 17.1257 15.8084C17.2155 16.3672 17.0808 16.8789 16.7464 17.3367C16.1539 18.1492 15.4627 18.8696 14.6705 19.4935C14.6256 19.5271 14.5807 19.5608 14.5381 19.5967C14.4101 19.7044 14.3473 19.8413 14.381 20.0096C14.4146 20.1802 14.5156 20.3014 14.6839 20.3463C14.9286 20.4114 15.1754 20.4764 15.4245 20.5236C16.7644 20.7727 18.0683 20.6156 19.3408 20.1443C19.5585 20.0635 19.7739 19.976 20.0073 19.9446C20.9342 19.8189 21.8454 20.4024 22.1012 21.3023C22.2246 21.7332 22.2179 22.1664 22.0563 22.586C21.8925 23.0102 21.594 23.3132 21.1721 23.477C20.0769 23.9034 18.948 24.2176 17.781 24.3815C17.2424 24.4578 16.7015 24.4937 16.3043 24.5004Z" fill="#E4E2E4"/>
<path d="M1.75028 16.7005C1.17575 16.6623 0.596736 16.384 0.215213 15.7736C-0.00696867 15.4168 -0.036144 15.0218 0.033428 14.6133C0.206236 13.6124 0.446371 12.6316 0.805452 11.6801C1.38671 10.1383 2.22607 8.76255 3.4245 7.61798C4.3424 6.74048 5.3972 6.07393 6.55972 5.57347C7.53822 5.15155 8.55487 4.85979 9.60069 4.67128C10.0989 4.58151 10.5253 4.73636 10.853 5.12237C11.1874 5.51511 11.2682 5.96845 11.0909 6.45321C10.9472 6.85045 10.8081 7.24768 10.7049 7.65838C10.5051 8.45509 10.4288 9.26302 10.4894 10.0822C10.559 11.0203 10.8148 11.9112 11.2121 12.7641C11.4477 13.2668 11.4298 13.7695 11.1492 14.252C10.7497 14.9432 9.92162 15.3292 9.13164 15.2036C8.38206 15.0846 7.85241 14.6762 7.54046 13.9872C7.14772 13.1186 6.88738 12.2097 6.73253 11.2694C6.71458 11.1594 6.69662 11.0472 6.68316 10.9372C6.64501 10.6365 6.24328 10.4457 5.97173 10.6971C5.80116 10.8564 5.63958 11.0248 5.48697 11.1998C4.65211 12.1581 4.12919 13.269 3.87559 14.5101C3.82846 14.7368 3.79929 14.9702 3.74767 15.1968C3.55242 16.0788 2.77815 16.7005 1.74355 16.7027H1.75028V16.7005Z" fill="#E4E2E4"/>
<path d="M22.9227 9.71932C22.9227 10.9335 22.7431 12.0578 22.4312 13.162C22.3347 13.5054 22.227 13.8488 22.1058 14.1831C21.9397 14.6432 21.6076 14.9372 21.1273 15.036C20.5954 15.1437 20.1465 14.9843 19.7987 14.5647C19.4957 14.1989 19.1793 13.8465 18.8314 13.5233C17.6913 12.473 16.3582 11.8289 14.8254 11.6C14.6032 11.5663 14.3788 11.5551 14.1589 11.5192C13.6584 11.4407 13.2724 11.1781 13.0322 10.736C12.3276 9.43655 13.1804 7.97554 14.4753 7.76009C14.7603 7.71296 15.0431 7.73765 15.3259 7.7758C16.2797 7.90148 17.2021 8.1461 18.0908 8.5164C18.3803 8.63759 18.6631 8.4603 18.7035 8.19548C18.7125 8.13039 18.7035 8.05633 18.69 7.99125C18.4566 7.05091 18.0549 6.18911 17.4691 5.41485C17.0517 4.865 16.567 4.38473 16.0261 3.95608C15.6423 3.65086 15.3932 3.26036 15.3214 2.77336C15.2047 1.98114 15.4673 1.33704 16.1203 0.867988C16.3672 0.690692 16.641 0.560525 16.9462 0.517884C17.422 0.450557 17.8439 0.57399 18.2142 0.876965C18.4499 1.07221 18.6833 1.26971 18.9122 1.47394C19.7964 2.27289 20.5864 3.15264 21.2395 4.15133C21.9734 5.2757 22.4895 6.48984 22.7454 7.80946C22.8711 8.45805 22.9317 9.11562 22.9272 9.71484L22.9227 9.71932Z" fill="#E4E2E4"/>
</svg>
