<svg width="32" height="33" viewBox="0 0 32 33" fill="none" xmlns="http://www.w3.org/2000/svg">
<path d="M25.7675 7.31689C23.9044 6.47846 21.948 5.82635 19.9917 5.54688C19.7122 6.01267 19.4327 6.57162 19.2464 7.03741C17.1038 6.75794 14.9611 6.75794 12.8185 7.03741C12.6322 6.47846 12.3527 6.01267 12.0732 5.54688C10.1169 5.91951 8.16056 6.47846 6.29738 7.31689C2.66419 12.7201 1.63945 18.0301 2.10524 23.3402C4.24789 24.9239 6.67002 26.1349 9.18531 26.8802C9.74426 26.1349 10.3032 25.2965 10.6758 24.4581C9.83739 24.1786 8.99899 23.806 8.25372 23.3402C8.44004 23.1539 8.62633 23.0607 8.81265 22.8744C13.2843 25.017 18.5012 25.017 22.9728 22.8744C23.1591 23.0607 23.3454 23.1539 23.5317 23.3402C22.7865 23.806 21.948 24.1786 21.1096 24.4581C21.5754 25.2965 22.0412 26.1349 22.6001 26.8802C25.1154 26.1349 27.5376 24.9239 29.6802 23.3402C30.5186 17.2849 28.9349 11.9748 25.7675 7.31689ZM11.4211 20.0796C10.0237 20.0796 8.90581 18.7754 8.90581 17.2849C8.90581 15.7943 10.0237 14.4901 11.4211 14.4901C12.8185 14.4901 13.9364 15.7943 13.9364 17.2849C13.9364 18.8686 12.8185 20.0796 11.4211 20.0796ZM20.737 20.0796C19.3396 20.0796 18.2217 18.7754 18.2217 17.2849C18.2217 15.7943 19.3396 14.4901 20.737 14.4901C22.1344 14.4901 23.2522 15.7943 23.2522 17.2849C23.1591 18.8686 22.1344 20.0796 20.737 20.0796Z" fill="white"/>
</svg>
