<svg xmlns="http://www.w3.org/2000/svg" fill="none" viewBox="21 18.31 22 23.69">
<g filter="url(#filter0_bd_7401_7501)">
<path d="M30.5178 36.7796L34.5718 29.7578L31.9738 28.2578L25.4873 39.4927L25.7728 41.9982L28.0854 40.9927L28.4908 40.2906L31.0888 41.7906L31.8997 40.3862L30.6006 39.6362L31.006 38.934L32.3051 39.684L33.1159 38.2796L30.5178 36.7796Z" fill="url(#paint0_linear_7401_7501)" fill-opacity="0.2" shape-rendering="crispEdges"/>
<path d="M30.4208 36.9477L30.2527 36.8507L30.3498 36.6826L34.3068 29.8288L32.0448 28.5229L25.6873 39.5343L25.9359 41.7157L27.9493 40.8403L28.3227 40.1935L28.4197 40.0255L28.5878 40.1225L31.0178 41.5255L31.6346 40.4572L30.5036 39.8042L30.3356 39.7072L30.4326 39.5392L30.838 38.837L30.935 38.669L31.103 38.766L32.234 39.419L32.8508 38.3507L30.4208 36.9477Z" stroke="url(#paint1_linear_7401_7501)" stroke-width="0.38806" shape-rendering="crispEdges"/>
</g>
<g filter="url(#filter1_bd_7401_7501)">
<mask id="path-3-inside-1_7401_7501" fill="white">
<path d="M30.6077 21.6945C32.2645 18.8247 35.9341 17.8415 38.8038 19.4983C41.6736 21.1552 42.6569 24.8247 41 27.6945C39.3431 30.5642 35.6736 31.5475 32.8038 29.8906C29.9341 28.2338 28.9508 24.5642 30.6077 21.6945ZM38.4019 26.1945C39.2304 24.7596 38.7387 22.9248 37.3038 22.0964C35.869 21.268 34.0342 21.7596 33.2058 23.1945C32.3773 24.6294 32.869 26.4641 34.3038 27.2925C35.7387 28.121 37.5735 27.6294 38.4019 26.1945Z"/>
</mask>
<path d="M30.6077 21.6945C32.2645 18.8247 35.9341 17.8415 38.8038 19.4983C41.6736 21.1552 42.6569 24.8247 41 27.6945C39.3431 30.5642 35.6736 31.5475 32.8038 29.8906C29.9341 28.2338 28.9508 24.5642 30.6077 21.6945ZM38.4019 26.1945C39.2304 24.7596 38.7387 22.9248 37.3038 22.0964C35.869 21.268 34.0342 21.7596 33.2058 23.1945C32.3773 24.6294 32.869 26.4641 34.3038 27.2925C35.7387 28.121 37.5735 27.6294 38.4019 26.1945Z" fill="url(#paint2_linear_7401_7501)" fill-opacity="0.2" shape-rendering="crispEdges"/>
<path d="M30.6077 21.6945C32.2645 18.8247 35.9341 17.8415 38.8038 19.4983C41.6736 21.1552 42.6569 24.8247 41 27.6945C39.3431 30.5642 35.6736 31.5475 32.8038 29.8906C29.9341 28.2338 28.9508 24.5642 30.6077 21.6945ZM38.4019 26.1945C39.2304 24.7596 38.7387 22.9248 37.3038 22.0964C35.869 21.268 34.0342 21.7596 33.2058 23.1945C32.3773 24.6294 32.869 26.4641 34.3038 27.2925C35.7387 28.121 37.5735 27.6294 38.4019 26.1945Z" stroke="url(#paint3_linear_7401_7501)" stroke-width="0.776119" shape-rendering="crispEdges" mask="url(#path-3-inside-1_7401_7501)"/>
</g>
<path d="M36.6325 23.4613L36.9196 23.0297L36.9244 23.0306L37.7693 24.3172L37.7684 24.3211L37.2579 24.4136L36.6325 23.4613Z" fill="#BDB319"/>
<path d="M36.0734 26.1579L37.0274 25.5312L37.2589 24.4135L36.6324 23.4595L35.5149 23.2282L34.5609 23.8549L34.3294 24.9727L34.9559 25.9266L36.0734 26.1579Z" fill="#FCCC21"/>
<path d="M36.6318 23.4624L35.5143 23.231L35.5115 23.2329L35.4169 22.7203L36.9189 23.0312L36.6339 23.4656L36.6318 23.4624Z" fill="#EABD1C"/>
<path d="M34.5602 23.8583L34.1302 23.5661L35.4168 22.7208L35.5141 23.2315L34.5602 23.8583Z" fill="#FDF14D"/>
<path d="M37.0263 25.5361L37.4562 25.8283L37.7685 24.3209L37.2571 24.4173L37.0263 25.5361Z" fill="#978111"/>
<path d="M34.9613 25.9161L34.6742 26.3478L34.6694 26.3468L33.8246 25.0603L33.8254 25.0563L34.3359 24.9638L34.9613 25.9161Z" fill="#FEF8A6"/>
<path d="M34.9609 25.9217L36.0784 26.1531L36.0812 26.1512L36.1757 26.6638L34.6737 26.3528L34.9588 25.9185L34.9609 25.9217Z" fill="#FDD87A"/>
<path d="M37.033 25.522L37.4629 25.8142L36.1763 26.6595L36.079 26.1488L37.033 25.522Z" fill="#69430A"/>
<path d="M34.5671 23.8455L34.1372 23.5532L33.8249 25.0606L34.3363 24.9642L34.5671 23.8455Z" fill="#FDD87A"/>
<g filter="url(#filter2_d_7401_7501)">
<circle cx="26.5" cy="29" r="0.5" fill="#FFE9A4" fill-opacity="0.3" shape-rendering="crispEdges"/>
</g>
<g filter="url(#filter3_d_7401_7501)">
<circle cx="23.5" cy="21" r="0.5" fill="#FFE9A4" fill-opacity="0.3" shape-rendering="crispEdges"/>
</g>
<g filter="url(#filter4_d_7401_7501)">
<circle cx="36.5" cy="37.3594" r="0.5" fill="#FFE9A4" fill-opacity="0.3" shape-rendering="crispEdges"/>
</g>
<g filter="url(#filter5_d_7401_7501)">
<circle cx="42.5" cy="35" r="0.5" fill="#FFE9A4" fill-opacity="0.3" shape-rendering="crispEdges"/>
</g>
<g filter="url(#filter6_d_7401_7501)">
<circle cx="39.5" cy="41" r="0.5" fill="#FFE9A4" fill-opacity="0.3" shape-rendering="crispEdges"/>
</g>
<g filter="url(#filter7_d_7401_7501)">
<circle cx="21.5" cy="33" r="0.5" fill="#FFE9A4" fill-opacity="0.3" shape-rendering="crispEdges"/>
</g>
<defs>
<filter id="filter0_bd_7401_7501" x="21.4873" y="24.2578" width="17.0845" height="21.7422" filterUnits="userSpaceOnUse" color-interpolation-filters="sRGB">
<feFlood flood-opacity="0" result="BackgroundImageFix"/>
<feGaussianBlur in="BackgroundImageFix" stdDeviation="1.55224"/>
<feComposite in2="SourceAlpha" operator="in" result="effect1_backgroundBlur_7401_7501"/>
<feColorMatrix in="SourceAlpha" type="matrix" values="0 0 0 0 0 0 0 0 0 0 0 0 0 0 0 0 0 0 127 0" result="hardAlpha"/>
<feOffset/>
<feGaussianBlur stdDeviation="2"/>
<feComposite in2="hardAlpha" operator="out"/>
<feColorMatrix type="matrix" values="0 0 0 0 1 0 0 0 0 0.913725 0 0 0 0 0.643137 0 0 0 0.8 0"/>
<feBlend mode="normal" in2="effect1_backgroundBlur_7401_7501" result="effect2_dropShadow_7401_7501"/>
<feBlend mode="normal" in="SourceGraphic" in2="effect2_dropShadow_7401_7501" result="shape"/>
</filter>
<filter id="filter1_bd_7401_7501" x="25.8027" y="14.6953" width="20.002" height="20" filterUnits="userSpaceOnUse" color-interpolation-filters="sRGB">
<feFlood flood-opacity="0" result="BackgroundImageFix"/>
<feGaussianBlur in="BackgroundImageFix" stdDeviation="1.55224"/>
<feComposite in2="SourceAlpha" operator="in" result="effect1_backgroundBlur_7401_7501"/>
<feColorMatrix in="SourceAlpha" type="matrix" values="0 0 0 0 0 0 0 0 0 0 0 0 0 0 0 0 0 0 127 0" result="hardAlpha"/>
<feOffset/>
<feGaussianBlur stdDeviation="2"/>
<feComposite in2="hardAlpha" operator="out"/>
<feColorMatrix type="matrix" values="0 0 0 0 1 0 0 0 0 0.913725 0 0 0 0 0.643137 0 0 0 0.8 0"/>
<feBlend mode="normal" in2="effect1_backgroundBlur_7401_7501" result="effect2_dropShadow_7401_7501"/>
<feBlend mode="normal" in="SourceGraphic" in2="effect2_dropShadow_7401_7501" result="shape"/>
</filter>
<filter id="filter2_d_7401_7501" x="5.5" y="8" width="42" height="42" filterUnits="userSpaceOnUse" color-interpolation-filters="sRGB">
<feFlood flood-opacity="0" result="BackgroundImageFix"/>
<feColorMatrix in="SourceAlpha" type="matrix" values="0 0 0 0 0 0 0 0 0 0 0 0 0 0 0 0 0 0 127 0" result="hardAlpha"/>
<feMorphology radius="0.5" operator="dilate" in="SourceAlpha" result="effect1_dropShadow_7401_7501"/>
<feOffset/>
<feGaussianBlur stdDeviation="10"/>
<feComposite in2="hardAlpha" operator="out"/>
<feColorMatrix type="matrix" values="0 0 0 0 1 0 0 0 0 0.782417 0 0 0 0 0.1 0 0 0 1 0"/>
<feBlend mode="normal" in2="BackgroundImageFix" result="effect1_dropShadow_7401_7501"/>
<feBlend mode="normal" in="SourceGraphic" in2="effect1_dropShadow_7401_7501" result="shape"/>
</filter>
<filter id="filter3_d_7401_7501" x="2.5" y="0" width="42" height="42" filterUnits="userSpaceOnUse" color-interpolation-filters="sRGB">
<feFlood flood-opacity="0" result="BackgroundImageFix"/>
<feColorMatrix in="SourceAlpha" type="matrix" values="0 0 0 0 0 0 0 0 0 0 0 0 0 0 0 0 0 0 127 0" result="hardAlpha"/>
<feMorphology radius="0.5" operator="dilate" in="SourceAlpha" result="effect1_dropShadow_7401_7501"/>
<feOffset/>
<feGaussianBlur stdDeviation="10"/>
<feComposite in2="hardAlpha" operator="out"/>
<feColorMatrix type="matrix" values="0 0 0 0 1 0 0 0 0 0.782417 0 0 0 0 0.1 0 0 0 1 0"/>
<feBlend mode="normal" in2="BackgroundImageFix" result="effect1_dropShadow_7401_7501"/>
<feBlend mode="normal" in="SourceGraphic" in2="effect1_dropShadow_7401_7501" result="shape"/>
</filter>
<filter id="filter4_d_7401_7501" x="15.5" y="16.3594" width="42" height="42" filterUnits="userSpaceOnUse" color-interpolation-filters="sRGB">
<feFlood flood-opacity="0" result="BackgroundImageFix"/>
<feColorMatrix in="SourceAlpha" type="matrix" values="0 0 0 0 0 0 0 0 0 0 0 0 0 0 0 0 0 0 127 0" result="hardAlpha"/>
<feMorphology radius="0.5" operator="dilate" in="SourceAlpha" result="effect1_dropShadow_7401_7501"/>
<feOffset/>
<feGaussianBlur stdDeviation="10"/>
<feComposite in2="hardAlpha" operator="out"/>
<feColorMatrix type="matrix" values="0 0 0 0 1 0 0 0 0 0.782417 0 0 0 0 0.1 0 0 0 1 0"/>
<feBlend mode="normal" in2="BackgroundImageFix" result="effect1_dropShadow_7401_7501"/>
<feBlend mode="normal" in="SourceGraphic" in2="effect1_dropShadow_7401_7501" result="shape"/>
</filter>
<filter id="filter5_d_7401_7501" x="21.5" y="14" width="42" height="42" filterUnits="userSpaceOnUse" color-interpolation-filters="sRGB">
<feFlood flood-opacity="0" result="BackgroundImageFix"/>
<feColorMatrix in="SourceAlpha" type="matrix" values="0 0 0 0 0 0 0 0 0 0 0 0 0 0 0 0 0 0 127 0" result="hardAlpha"/>
<feMorphology radius="0.5" operator="dilate" in="SourceAlpha" result="effect1_dropShadow_7401_7501"/>
<feOffset/>
<feGaussianBlur stdDeviation="10"/>
<feComposite in2="hardAlpha" operator="out"/>
<feColorMatrix type="matrix" values="0 0 0 0 1 0 0 0 0 0.782417 0 0 0 0 0.1 0 0 0 1 0"/>
<feBlend mode="normal" in2="BackgroundImageFix" result="effect1_dropShadow_7401_7501"/>
<feBlend mode="normal" in="SourceGraphic" in2="effect1_dropShadow_7401_7501" result="shape"/>
</filter>
<filter id="filter6_d_7401_7501" x="18.5" y="20" width="42" height="42" filterUnits="userSpaceOnUse" color-interpolation-filters="sRGB">
<feFlood flood-opacity="0" result="BackgroundImageFix"/>
<feColorMatrix in="SourceAlpha" type="matrix" values="0 0 0 0 0 0 0 0 0 0 0 0 0 0 0 0 0 0 127 0" result="hardAlpha"/>
<feMorphology radius="0.5" operator="dilate" in="SourceAlpha" result="effect1_dropShadow_7401_7501"/>
<feOffset/>
<feGaussianBlur stdDeviation="10"/>
<feComposite in2="hardAlpha" operator="out"/>
<feColorMatrix type="matrix" values="0 0 0 0 1 0 0 0 0 0.782417 0 0 0 0 0.1 0 0 0 1 0"/>
<feBlend mode="normal" in2="BackgroundImageFix" result="effect1_dropShadow_7401_7501"/>
<feBlend mode="normal" in="SourceGraphic" in2="effect1_dropShadow_7401_7501" result="shape"/>
</filter>
<filter id="filter7_d_7401_7501" x="0.5" y="12" width="42" height="42" filterUnits="userSpaceOnUse" color-interpolation-filters="sRGB">
<feFlood flood-opacity="0" result="BackgroundImageFix"/>
<feColorMatrix in="SourceAlpha" type="matrix" values="0 0 0 0 0 0 0 0 0 0 0 0 0 0 0 0 0 0 127 0" result="hardAlpha"/>
<feMorphology radius="0.5" operator="dilate" in="SourceAlpha" result="effect1_dropShadow_7401_7501"/>
<feOffset/>
<feGaussianBlur stdDeviation="10"/>
<feComposite in2="hardAlpha" operator="out"/>
<feColorMatrix type="matrix" values="0 0 0 0 1 0 0 0 0 0.782417 0 0 0 0 0.1 0 0 0 1 0"/>
<feBlend mode="normal" in2="BackgroundImageFix" result="effect1_dropShadow_7401_7501"/>
<feBlend mode="normal" in="SourceGraphic" in2="effect1_dropShadow_7401_7501" result="shape"/>
</filter>
<linearGradient id="paint0_linear_7401_7501" x1="35.1821" y1="32.4508" x2="28.0121" y2="31.6744" gradientUnits="userSpaceOnUse">
<stop stop-color="#FFECE0"/>
<stop offset="0.15" stop-color="#FFE5A3"/>
<stop offset="0.48" stop-color="#FFA3DC"/>
<stop offset="0.875" stop-color="#FFD174"/>
<stop offset="1" stop-color="#FFCD65"/>
</linearGradient>
<linearGradient id="paint1_linear_7401_7501" x1="35.5875" y1="31.7486" x2="27.5347" y2="31.2946" gradientUnits="userSpaceOnUse">
<stop stop-color="#FFF6DF"/>
<stop offset="0.244634" stop-color="#FF9EEA"/>
<stop offset="0.5" stop-color="#FFD15C"/>
<stop offset="1" stop-color="#FFAC36"/>
</linearGradient>
<linearGradient id="paint2_linear_7401_7501" x1="36.9889" y1="30.1418" x2="33.7817" y2="19.1969" gradientUnits="userSpaceOnUse">
<stop stop-color="#FFECE0"/>
<stop offset="0.15" stop-color="#FFE5A3"/>
<stop offset="0.48" stop-color="#FFA3DC"/>
<stop offset="0.875" stop-color="#FFD174"/>
<stop offset="1" stop-color="#FFCD65"/>
</linearGradient>
<linearGradient id="paint3_linear_7401_7501" x1="36.6139" y1="30.7913" x2="33.9692" y2="18.8721" gradientUnits="userSpaceOnUse">
<stop stop-color="#FFF6DF"/>
<stop offset="0.244634" stop-color="#FF9EEA"/>
<stop offset="0.5" stop-color="#FFD15C"/>
<stop offset="1" stop-color="#FFAC36"/>
</linearGradient>
</defs>
</svg>