<svg width="42" height="42" viewBox="0 0 42 42" fill="none" xmlns="http://www.w3.org/2000/svg">
<path fill-rule="evenodd" clip-rule="evenodd" d="M29.236 36.4269H12.0931C10.1988 36.4269 8.66455 34.8926 8.66455 32.9983V19.284C8.66455 17.3898 10.1988 15.8555 12.0931 15.8555H29.236C31.1303 15.8555 32.6646 17.3898 32.6646 19.284V32.9983C32.6646 34.8926 31.1303 36.4269 29.236 36.4269Z" stroke="white" stroke-width="2.51229" stroke-linecap="round" stroke-linejoin="round"/>
<path d="M27.5219 15.856V12.4275C27.5219 8.6406 24.4516 5.57031 20.6648 5.57031V5.57031C16.8779 5.57031 13.8076 8.6406 13.8076 12.4275V15.856" stroke="white" stroke-width="2.40531" stroke-linecap="round" stroke-linejoin="round"/>
<path d="M20.6614 25.2852C20.1882 25.2852 19.8042 25.6692 19.8076 26.1423C19.8076 26.6154 20.1916 26.9994 20.6648 26.9994C21.1379 26.9994 21.5219 26.6154 21.5219 26.1423C21.5219 25.6692 21.1379 25.2852 20.6614 25.2852" stroke="white" stroke-width="2.57143" stroke-linecap="round" stroke-linejoin="round"/>
</svg>
