<svg width="136" height="134" viewBox="0 0 136 134" fill="none" xmlns="http://www.w3.org/2000/svg">
<g filter="url(#filter0_bd_7399_11469)">
<path d="M64.6815 79.4575L73.3687 64.4107L67.8014 61.1964L53.9018 85.2713L54.5136 90.6401L59.4691 88.4855L60.3378 86.9809L65.9051 90.1952L67.6426 87.1858L64.8589 85.5787L65.7277 84.074L68.5113 85.6811L70.2488 82.6718L64.6815 79.4575Z" fill="url(#paint0_linear_7399_11469)" fill-opacity="0.2" shape-rendering="crispEdges"/>
<path d="M64.4736 79.8176L64.1135 79.6097L64.3214 79.2496L72.8008 64.5629L67.9536 61.7644L54.3304 85.3604L54.8631 90.0348L59.1776 88.1589L59.9778 86.773L60.1857 86.4129L60.5457 86.6208L65.753 89.6272L67.0746 87.338L64.6511 85.9387L64.291 85.7308L64.4989 85.3708L65.3676 83.8661L65.5755 83.506L65.9356 83.7139L68.3591 85.1132L69.6808 82.824L64.4736 79.8176Z" stroke="url(#paint1_linear_7399_11469)" stroke-width="0.831556" shape-rendering="crispEdges"/>
</g>
<g filter="url(#filter1_bd_7399_11469)">
<mask id="path-3-inside-1_7399_11469" fill="white">
<path d="M64.8742 47.1332C68.4246 40.9838 76.2879 38.8768 82.4374 42.4272C88.5869 45.9776 90.6938 53.8409 87.1434 59.9904C83.593 66.1399 75.7297 68.2468 69.5802 64.6964C63.4308 61.146 61.3238 53.2827 64.8742 47.1332ZM81.5761 56.7761C83.3513 53.7014 82.2978 49.7697 79.2231 47.9945C76.1484 46.2193 72.2167 47.2728 70.4415 50.3475C68.6663 53.4223 69.7198 57.3539 72.7945 59.1291C75.8693 60.9043 79.8009 59.8508 81.5761 56.7761Z"/>
</mask>
<path d="M64.8742 47.1332C68.4246 40.9838 76.2879 38.8768 82.4374 42.4272C88.5869 45.9776 90.6938 53.8409 87.1434 59.9904C83.593 66.1399 75.7297 68.2468 69.5802 64.6964C63.4308 61.146 61.3238 53.2827 64.8742 47.1332ZM81.5761 56.7761C83.3513 53.7014 82.2978 49.7697 79.2231 47.9945C76.1484 46.2193 72.2167 47.2728 70.4415 50.3475C68.6663 53.4223 69.7198 57.3539 72.7945 59.1291C75.8693 60.9043 79.8009 59.8508 81.5761 56.7761Z" fill="url(#paint2_linear_7399_11469)" fill-opacity="0.2" shape-rendering="crispEdges"/>
<path d="M64.8742 47.1332C68.4246 40.9838 76.2879 38.8768 82.4374 42.4272C88.5869 45.9776 90.6938 53.8409 87.1434 59.9904C83.593 66.1399 75.7297 68.2468 69.5802 64.6964C63.4308 61.146 61.3238 53.2827 64.8742 47.1332ZM81.5761 56.7761C83.3513 53.7014 82.2978 49.7697 79.2231 47.9945C76.1484 46.2193 72.2167 47.2728 70.4415 50.3475C68.6663 53.4223 69.7198 57.3539 72.7945 59.1291C75.8693 60.9043 79.8009 59.8508 81.5761 56.7761Z" stroke="url(#paint3_linear_7399_11469)" stroke-width="1.66311" shape-rendering="crispEdges" mask="url(#path-3-inside-1_7399_11469)"/>
</g>
<path d="M77.7845 50.9172L78.3998 49.9921L78.4099 49.9942L80.2204 52.7511L80.2186 52.7596L79.1246 52.9578L77.7845 50.9172Z" fill="#BDB319"/>
<path d="M76.5863 56.6967L78.6306 55.3537L79.1268 52.9586L77.7843 50.9144L75.3897 50.4187L73.3454 51.7617L72.8493 54.1568L74.1917 56.2011L76.5863 56.6967Z" fill="#FCCC21"/>
<path d="M77.7826 50.9199L75.3879 50.4242L75.3819 50.4281L75.1793 49.3298L78.3979 49.9961L77.7871 50.9268L77.7826 50.9199Z" fill="#EABD1C"/>
<path d="M73.3436 51.7689L72.4223 51.1427L75.1792 49.3314L75.3878 50.4258L73.3436 51.7689Z" fill="#FDF14D"/>
<path d="M78.628 55.3635L79.5493 55.9897L80.2185 52.7596L79.1227 52.9662L78.628 55.3635Z" fill="#978111"/>
<path d="M74.2029 56.1806L73.5877 57.1058L73.5775 57.1036L71.7671 54.3467L71.7688 54.3382L72.8629 54.1401L74.2029 56.1806Z" fill="#FEF8A6"/>
<path d="M74.2023 56.1928L76.597 56.6885L76.6029 56.6846L76.8055 57.7829L73.5868 57.1165L74.1978 56.1859L74.2023 56.1928Z" fill="#FDD87A"/>
<path d="M78.6424 55.3352L79.5637 55.9613L76.8068 57.7726L76.5982 56.6782L78.6424 55.3352Z" fill="#69430A"/>
<path d="M73.3585 51.7403L72.4373 51.1141L71.7681 54.3442L72.8639 54.1376L73.3585 51.7403Z" fill="#FDD87A"/>
<g filter="url(#filter2_d_7399_11469)">
<circle cx="56.0714" cy="62.7863" r="1.07143" fill="#FFE9A4" fill-opacity="0.3" shape-rendering="crispEdges"/>
</g>
<g filter="url(#filter3_d_7399_11469)">
<circle cx="49.6427" cy="45.6417" r="1.07143" fill="#FFE9A4" fill-opacity="0.3" shape-rendering="crispEdges"/>
</g>
<g filter="url(#filter4_d_7399_11469)">
<circle cx="77.5001" cy="80.7003" r="1.07143" fill="#FFE9A4" fill-opacity="0.3" shape-rendering="crispEdges"/>
</g>
<g filter="url(#filter5_d_7399_11469)">
<circle cx="90.3571" cy="75.6417" r="1.07143" fill="#FFE9A4" fill-opacity="0.3" shape-rendering="crispEdges"/>
</g>
<g filter="url(#filter6_d_7399_11469)">
<circle cx="83.9284" cy="88.5011" r="1.07143" fill="#FFE9A4" fill-opacity="0.3" shape-rendering="crispEdges"/>
</g>
<g filter="url(#filter7_d_7399_11469)">
<circle cx="45.3571" cy="71.3566" r="1.07143" fill="#FFE9A4" fill-opacity="0.3" shape-rendering="crispEdges"/>
</g>
<defs>
<filter id="filter0_bd_7399_11469" x="45.3304" y="52.6239" width="36.6097" height="46.5882" filterUnits="userSpaceOnUse" color-interpolation-filters="sRGB">
<feFlood flood-opacity="0" result="BackgroundImageFix"/>
<feGaussianBlur in="BackgroundImageFix" stdDeviation="3.32623"/>
<feComposite in2="SourceAlpha" operator="in" result="effect1_backgroundBlur_7399_11469"/>
<feColorMatrix in="SourceAlpha" type="matrix" values="0 0 0 0 0 0 0 0 0 0 0 0 0 0 0 0 0 0 127 0" result="hardAlpha"/>
<feOffset/>
<feGaussianBlur stdDeviation="4.28571"/>
<feComposite in2="hardAlpha" operator="out"/>
<feColorMatrix type="matrix" values="0 0 0 0 1 0 0 0 0 0.913725 0 0 0 0 0.643137 0 0 0 0.8 0"/>
<feBlend mode="normal" in2="effect1_backgroundBlur_7399_11469" result="effect2_dropShadow_7399_11469"/>
<feBlend mode="normal" in="SourceGraphic" in2="effect2_dropShadow_7399_11469" result="shape"/>
</filter>
<filter id="filter1_bd_7399_11469" x="54.578" y="32.1317" width="42.8616" height="42.8616" filterUnits="userSpaceOnUse" color-interpolation-filters="sRGB">
<feFlood flood-opacity="0" result="BackgroundImageFix"/>
<feGaussianBlur in="BackgroundImageFix" stdDeviation="3.32623"/>
<feComposite in2="SourceAlpha" operator="in" result="effect1_backgroundBlur_7399_11469"/>
<feColorMatrix in="SourceAlpha" type="matrix" values="0 0 0 0 0 0 0 0 0 0 0 0 0 0 0 0 0 0 127 0" result="hardAlpha"/>
<feOffset/>
<feGaussianBlur stdDeviation="4.28571"/>
<feComposite in2="hardAlpha" operator="out"/>
<feColorMatrix type="matrix" values="0 0 0 0 1 0 0 0 0 0.913725 0 0 0 0 0.643137 0 0 0 0.8 0"/>
<feBlend mode="normal" in2="effect1_backgroundBlur_7399_11469" result="effect2_dropShadow_7399_11469"/>
<feBlend mode="normal" in="SourceGraphic" in2="effect2_dropShadow_7399_11469" result="shape"/>
</filter>
<filter id="filter2_d_7399_11469" x="11.0714" y="17.7863" width="90.0002" height="90.0017" filterUnits="userSpaceOnUse" color-interpolation-filters="sRGB">
<feFlood flood-opacity="0" result="BackgroundImageFix"/>
<feColorMatrix in="SourceAlpha" type="matrix" values="0 0 0 0 0 0 0 0 0 0 0 0 0 0 0 0 0 0 127 0" result="hardAlpha"/>
<feMorphology radius="1.07143" operator="dilate" in="SourceAlpha" result="effect1_dropShadow_7399_11469"/>
<feOffset/>
<feGaussianBlur stdDeviation="21.4286"/>
<feComposite in2="hardAlpha" operator="out"/>
<feColorMatrix type="matrix" values="0 0 0 0 1 0 0 0 0 0.782417 0 0 0 0 0.1 0 0 0 1 0"/>
<feBlend mode="normal" in2="BackgroundImageFix" result="effect1_dropShadow_7399_11469"/>
<feBlend mode="normal" in="SourceGraphic" in2="effect1_dropShadow_7399_11469" result="shape"/>
</filter>
<filter id="filter3_d_7399_11469" x="4.64272" y="0.641744" width="90.0002" height="90.0017" filterUnits="userSpaceOnUse" color-interpolation-filters="sRGB">
<feFlood flood-opacity="0" result="BackgroundImageFix"/>
<feColorMatrix in="SourceAlpha" type="matrix" values="0 0 0 0 0 0 0 0 0 0 0 0 0 0 0 0 0 0 127 0" result="hardAlpha"/>
<feMorphology radius="1.07143" operator="dilate" in="SourceAlpha" result="effect1_dropShadow_7399_11469"/>
<feOffset/>
<feGaussianBlur stdDeviation="21.4286"/>
<feComposite in2="hardAlpha" operator="out"/>
<feColorMatrix type="matrix" values="0 0 0 0 1 0 0 0 0 0.782417 0 0 0 0 0.1 0 0 0 1 0"/>
<feBlend mode="normal" in2="BackgroundImageFix" result="effect1_dropShadow_7399_11469"/>
<feBlend mode="normal" in="SourceGraphic" in2="effect1_dropShadow_7399_11469" result="shape"/>
</filter>
<filter id="filter4_d_7399_11469" x="32.5001" y="35.7003" width="90.0002" height="90.0017" filterUnits="userSpaceOnUse" color-interpolation-filters="sRGB">
<feFlood flood-opacity="0" result="BackgroundImageFix"/>
<feColorMatrix in="SourceAlpha" type="matrix" values="0 0 0 0 0 0 0 0 0 0 0 0 0 0 0 0 0 0 127 0" result="hardAlpha"/>
<feMorphology radius="1.07143" operator="dilate" in="SourceAlpha" result="effect1_dropShadow_7399_11469"/>
<feOffset/>
<feGaussianBlur stdDeviation="21.4286"/>
<feComposite in2="hardAlpha" operator="out"/>
<feColorMatrix type="matrix" values="0 0 0 0 1 0 0 0 0 0.782417 0 0 0 0 0.1 0 0 0 1 0"/>
<feBlend mode="normal" in2="BackgroundImageFix" result="effect1_dropShadow_7399_11469"/>
<feBlend mode="normal" in="SourceGraphic" in2="effect1_dropShadow_7399_11469" result="shape"/>
</filter>
<filter id="filter5_d_7399_11469" x="45.3571" y="30.6417" width="90.0002" height="90.0017" filterUnits="userSpaceOnUse" color-interpolation-filters="sRGB">
<feFlood flood-opacity="0" result="BackgroundImageFix"/>
<feColorMatrix in="SourceAlpha" type="matrix" values="0 0 0 0 0 0 0 0 0 0 0 0 0 0 0 0 0 0 127 0" result="hardAlpha"/>
<feMorphology radius="1.07143" operator="dilate" in="SourceAlpha" result="effect1_dropShadow_7399_11469"/>
<feOffset/>
<feGaussianBlur stdDeviation="21.4286"/>
<feComposite in2="hardAlpha" operator="out"/>
<feColorMatrix type="matrix" values="0 0 0 0 1 0 0 0 0 0.782417 0 0 0 0 0.1 0 0 0 1 0"/>
<feBlend mode="normal" in2="BackgroundImageFix" result="effect1_dropShadow_7399_11469"/>
<feBlend mode="normal" in="SourceGraphic" in2="effect1_dropShadow_7399_11469" result="shape"/>
</filter>
<filter id="filter6_d_7399_11469" x="38.9284" y="43.5011" width="90.0002" height="90.0017" filterUnits="userSpaceOnUse" color-interpolation-filters="sRGB">
<feFlood flood-opacity="0" result="BackgroundImageFix"/>
<feColorMatrix in="SourceAlpha" type="matrix" values="0 0 0 0 0 0 0 0 0 0 0 0 0 0 0 0 0 0 127 0" result="hardAlpha"/>
<feMorphology radius="1.07143" operator="dilate" in="SourceAlpha" result="effect1_dropShadow_7399_11469"/>
<feOffset/>
<feGaussianBlur stdDeviation="21.4286"/>
<feComposite in2="hardAlpha" operator="out"/>
<feColorMatrix type="matrix" values="0 0 0 0 1 0 0 0 0 0.782417 0 0 0 0 0.1 0 0 0 1 0"/>
<feBlend mode="normal" in2="BackgroundImageFix" result="effect1_dropShadow_7399_11469"/>
<feBlend mode="normal" in="SourceGraphic" in2="effect1_dropShadow_7399_11469" result="shape"/>
</filter>
<filter id="filter7_d_7399_11469" x="0.357076" y="26.3566" width="90.0002" height="90.0017" filterUnits="userSpaceOnUse" color-interpolation-filters="sRGB">
<feFlood flood-opacity="0" result="BackgroundImageFix"/>
<feColorMatrix in="SourceAlpha" type="matrix" values="0 0 0 0 0 0 0 0 0 0 0 0 0 0 0 0 0 0 127 0" result="hardAlpha"/>
<feMorphology radius="1.07143" operator="dilate" in="SourceAlpha" result="effect1_dropShadow_7399_11469"/>
<feOffset/>
<feGaussianBlur stdDeviation="21.4286"/>
<feComposite in2="hardAlpha" operator="out"/>
<feColorMatrix type="matrix" values="0 0 0 0 1 0 0 0 0 0.782417 0 0 0 0 0.1 0 0 0 1 0"/>
<feBlend mode="normal" in2="BackgroundImageFix" result="effect1_dropShadow_7399_11469"/>
<feBlend mode="normal" in="SourceGraphic" in2="effect1_dropShadow_7399_11469" result="shape"/>
</filter>
<linearGradient id="paint0_linear_7399_11469" x1="74.6765" y1="70.1813" x2="59.3121" y2="68.5177" gradientUnits="userSpaceOnUse">
<stop stop-color="#FFECE0"/>
<stop offset="0.15" stop-color="#FFE5A3"/>
<stop offset="0.48" stop-color="#FFA3DC"/>
<stop offset="0.875" stop-color="#FFD174"/>
<stop offset="1" stop-color="#FFCD65"/>
</linearGradient>
<linearGradient id="paint1_linear_7399_11469" x1="75.5452" y1="68.6767" x2="58.2891" y2="67.7037" gradientUnits="userSpaceOnUse">
<stop stop-color="#FFF6DF"/>
<stop offset="0.244634" stop-color="#FF9EEA"/>
<stop offset="0.5" stop-color="#FFD15C"/>
<stop offset="1" stop-color="#FFAC36"/>
</linearGradient>
<linearGradient id="paint2_linear_7399_11469" x1="78.5483" y1="65.2347" x2="71.6757" y2="41.7813" gradientUnits="userSpaceOnUse">
<stop stop-color="#FFECE0"/>
<stop offset="0.15" stop-color="#FFE5A3"/>
<stop offset="0.48" stop-color="#FFA3DC"/>
<stop offset="0.875" stop-color="#FFD174"/>
<stop offset="1" stop-color="#FFCD65"/>
</linearGradient>
<linearGradient id="paint3_linear_7399_11469" x1="77.7447" y1="66.6265" x2="72.0775" y2="41.0853" gradientUnits="userSpaceOnUse">
<stop stop-color="#FFF6DF"/>
<stop offset="0.244634" stop-color="#FF9EEA"/>
<stop offset="0.5" stop-color="#FFD15C"/>
<stop offset="1" stop-color="#FFAC36"/>
</linearGradient>
</defs>
</svg>
