<svg width="20" height="20" viewBox="0 0 20 20" fill="none" xmlns="http://www.w3.org/2000/svg">
<path d="M10.0001 20C8.63339 20 7.34173 19.7375 6.12506 19.2125C4.90839 18.6875 3.84589 17.9708 2.93756 17.0625C2.02923 16.1542 1.31256 15.0917 0.787561 13.875C0.262561 12.6583 6.10352e-05 11.3667 6.10352e-05 10C6.10352e-05 8.61667 0.262561 7.32083 0.787561 6.1125C1.31256 4.90417 2.02923 3.84583 2.93756 2.9375C3.84589 2.02917 4.90839 1.3125 6.12506 0.7875C7.34173 0.2625 8.63339 0 10.0001 0C10.2834 0 10.5209 0.0958333 10.7126 0.2875C10.9042 0.479167 11.0001 0.716667 11.0001 1C11.0001 1.28333 10.9042 1.52083 10.7126 1.7125C10.5209 1.90417 10.2834 2 10.0001 2C7.78339 2 5.89589 2.77917 4.33756 4.3375C2.77923 5.89583 2.00006 7.78333 2.00006 10C2.00006 12.2167 2.77923 14.1042 4.33756 15.6625C5.89589 17.2208 7.78339 18 10.0001 18C12.2167 18 14.1042 17.2208 15.6626 15.6625C17.2209 14.1042 18.0001 12.2167 18.0001 10C18.0001 9.71667 18.0959 9.47917 18.2876 9.2875C18.4792 9.09583 18.7167 9 19.0001 9C19.2834 9 19.5209 9.09583 19.7126 9.2875C19.9042 9.47917 20.0001 9.71667 20.0001 10C20.0001 11.3667 19.7376 12.6583 19.2126 13.875C18.6876 15.0917 17.9709 16.1542 17.0626 17.0625C16.1542 17.9708 15.0959 18.6875 13.8876 19.2125C12.6792 19.7375 11.3834 20 10.0001 20Z" fill="white"/>
</svg>
