<svg width="92" height="92" viewBox="0 0 92 92" fill="none" xmlns="http://www.w3.org/2000/svg">
<path d="M91.6895 34.9651C91.5411 34.5421 91.3413 34.1443 91.2075 33.7069C91.1141 33.4012 90.9902 33.1354 90.856 32.8664C90.7892 32.7325 90.7206 32.598 90.6503 32.4572C90.5588 32.274 90.4935 32.0953 90.4257 31.9227C90.3805 31.8076 90.3343 31.6952 90.2785 31.5861C90.2507 31.5316 90.2206 31.4778 90.1869 31.4249C90.1197 31.3192 90.0386 31.2169 89.9355 31.1188C89.6037 30.8027 89.4443 30.445 89.2484 30.0705C89.2041 29.9858 89.1586 29.9005 89.108 29.8144C89.0863 29.7774 89.0607 29.7445 89.0378 29.7086C88.72 29.2114 88.293 28.8231 87.8217 28.4664C87.5185 28.2369 87.1985 28.0192 86.8806 27.791C86.2844 27.3629 85.7129 26.9013 85.2103 26.3925C85.0819 26.2625 84.9595 26.1282 84.8408 25.9918C84.7431 25.8796 84.6486 25.7656 84.5585 25.6488C84.5235 25.6036 84.4896 25.5577 84.4559 25.5117C84.3624 25.3843 84.274 25.254 84.1906 25.1208C84.001 24.8187 83.8386 24.5015 83.7091 24.1672C83.6548 24.0272 83.6041 23.8854 83.5619 23.7393C83.5291 23.6259 83.5 23.5105 83.4749 23.3933C83.3703 22.9057 83.2079 22.4694 83.0256 22.034C82.9527 21.8599 82.8766 21.6858 82.7997 21.5086C82.7613 21.42 82.7226 21.3307 82.6841 21.2401C82.5505 20.9259 82.5068 20.5967 82.4895 20.2628C82.4836 20.1515 82.4808 20.0396 82.4785 19.9276C82.4751 19.7597 82.4729 19.5912 82.4642 19.4239C82.4586 19.3176 82.4501 19.2117 82.4371 19.1065C82.4161 18.9355 82.383 18.7663 82.3283 18.6004C82.2862 18.4728 82.2502 18.3414 82.2185 18.2075C82.1228 17.8054 82.064 17.3801 81.9873 16.9619C81.9617 16.8225 81.9341 16.684 81.9025 16.5474C81.8077 16.1375 81.6767 15.7451 81.4548 15.4006C81.3772 15.2801 81.2768 15.1514 81.1609 15.0239C80.8128 14.6412 80.3229 14.2686 79.8756 14.1562C79.8244 14.1434 79.7739 14.1284 79.724 14.1119C79.6242 14.079 79.5268 14.0402 79.4299 14.0003C79.2358 13.9208 79.0438 13.8376 78.8385 13.7906C78.7872 13.7789 78.7351 13.7694 78.6818 13.7629C78.5417 13.7457 78.4035 13.735 78.2658 13.7254L78.264 13.7252H78.2643C77.9847 13.7057 77.7076 13.6915 77.4245 13.6429C76.9582 13.5629 76.4877 13.6335 76.0258 13.6088C75.9636 13.6055 75.9049 13.5939 75.8471 13.5827C75.569 13.2618 75.2845 12.9436 74.9864 12.631C70.0297 7.43333 62.6467 4.53139 55.3335 3.301C54.7169 2.57442 53.8682 2.21443 53.0741 1.62183C52.4913 1.18663 52.1304 1.17032 51.4267 1.04699C50.4664 0.878944 49.6876 0.605145 48.6877 0.607926C46.7177 0.613204 44.7335 0.620791 42.7642 0.548689C40.6007 0.469472 38.5048 0.652365 36.4265 1.25736C35.1052 1.6419 34.6894 1.76005 33.7274 2.81108C33.4058 3.1625 33.0656 3.45727 32.7399 3.75425C31.1667 4.10105 29.612 4.53121 28.0865 5.06872C21.6279 7.34402 15.7788 12.0651 11.3048 17.1354C9.09192 19.6432 7.33697 22.5018 5.81426 25.4553C4.58188 27.8457 2.65794 30.3772 1.89913 32.9121C-0.0415411 39.3953 0.728063 46.5016 1.54069 53.0975C1.86331 55.7157 2.39262 58.3277 3.17476 60.8568C3.02783 61.0781 2.86275 61.2824 2.67976 61.5022C2.21595 62.0596 1.89418 62.6846 1.44107 63.2461C1.37825 63.3239 1.31308 63.4003 1.24465 63.4753C0.939279 63.8094 0.714962 64.1612 0.555867 64.5274C0.546206 64.5494 0.536216 64.5714 0.527168 64.5935C0.508459 64.639 0.491117 64.6846 0.474481 64.7306C0.462182 64.7642 0.450495 64.7981 0.439373 64.832C0.426508 64.8711 0.413784 64.9101 0.40238 64.9496C0.38909 64.9951 0.377497 65.0409 0.365999 65.0867C0.358412 65.1172 0.350165 65.1475 0.343379 65.1781C0.326037 65.2563 0.310768 65.3349 0.298515 65.4142C0.283341 65.5134 0.266706 65.622 0.252709 65.7338C0.23697 65.8599 0.22434 65.9901 0.221371 66.1179C0.220004 66.178 0.220664 66.2376 0.22401 66.2958C0.227309 66.3539 0.233435 66.4105 0.242813 66.4649C0.261663 66.5736 0.293897 66.6734 0.344415 66.7575C0.435084 66.9087 0.536027 67.0526 0.635509 67.198C0.735179 67.3434 0.833435 67.4907 0.918826 67.649C1.00851 67.8147 1.10893 67.9597 1.21652 68.0995C1.3241 68.2392 1.43867 68.3739 1.55634 68.519C1.69206 68.6863 1.78721 68.8568 1.8988 69.0137C1.95459 69.0921 2.01454 69.1672 2.08546 69.2369C2.15653 69.3065 2.23871 69.3707 2.33918 69.4272C2.43838 69.4831 2.52415 69.5452 2.60172 69.6119C2.64055 69.6452 2.67726 69.6796 2.71251 69.715C2.88895 69.892 3.02962 70.0916 3.21327 70.2866C3.49065 70.5811 3.83 70.7901 4.20012 70.9644C4.47759 71.095 4.77241 71.2061 5.07123 71.3189C5.17076 71.3564 5.27076 71.3942 5.37085 71.4329C5.74578 71.578 6.1135 71.7371 6.46317 71.9158C6.72538 72.0498 6.97759 72.1947 7.2152 72.3533C7.61124 72.6174 7.96689 72.919 8.26148 73.2691C8.49715 73.549 8.6938 73.8603 8.84074 74.2081C9.08537 74.7871 9.43838 75.2334 9.79517 75.7404C9.89828 75.8872 9.9684 76.0469 10.0211 76.2138C10.1265 76.5474 10.1619 76.9091 10.252 77.2503C10.2973 77.4209 10.3561 77.5862 10.4442 77.7404C10.6016 78.0159 10.7168 78.3285 10.8321 78.6435C11.0244 79.1686 11.2169 79.7002 11.6064 80.0773C11.9335 80.394 12.5849 80.7413 13.111 80.7409C13.1562 80.7409 13.201 80.7426 13.2455 80.7457C13.5572 80.7671 13.8542 80.851 14.1765 80.8132L14.1787 80.8129C14.2994 80.7986 14.4176 80.7798 14.5352 80.7603L14.5362 80.7601H14.5361C14.7761 80.7201 15.0132 80.6764 15.2599 80.6585C15.6664 80.629 16.0567 80.4805 16.4522 80.4086C16.6226 80.3776 16.7751 80.4204 16.9375 80.2932C17.3195 80.5974 17.7062 80.8936 18.1011 81.1753C22.2324 84.1242 27.0837 85.7048 31.9331 87.1496C33.7896 87.7027 35.6891 88.1412 37.6113 88.4601C37.7258 88.5794 37.8419 88.7083 37.9568 88.8421L37.9567 88.8438C38.1483 89.0666 38.3343 89.3002 38.4928 89.5159L38.4939 89.5175C38.5468 89.5895 38.5965 89.6594 38.6422 89.7264L38.6708 89.7631V89.763L38.6709 89.7631C39.0611 90.329 39.773 90.6371 40.6643 90.7818C42.3504 91.0559 43.1703 90.3661 44.6506 89.8165C46.1202 89.2707 47.7044 89.9504 49.0372 90.5859C50.6748 91.3666 51.7626 91.6609 53.53 91.2407C54.3755 91.0397 54.9925 91.1995 55.825 91.2871C56.7032 91.3795 57.6566 91.1159 58.4901 90.8474C59.9327 90.3826 61.7042 88.7597 62.1162 87.0441H62.116L62.1162 87.044C62.176 86.8937 62.2232 86.7337 62.2695 86.5669C62.3159 86.4001 62.3614 86.2268 62.4179 86.05C62.4901 85.8237 62.5672 85.5855 62.6498 85.3468C66.0497 84.1538 69.4695 82.8441 72.1617 80.5454C74.3449 78.6813 76.2311 76.6193 77.8558 74.3975C78.0232 74.3669 78.1812 74.339 78.3212 74.3205C78.343 74.3176 78.3635 74.3129 78.3849 74.3097C79.5922 74.124 80.3169 73.3122 81.3191 72.6932C81.938 72.3109 82.0858 71.9814 82.4589 71.3721C82.9682 70.5408 83.5089 69.9172 83.8739 68.9862C84.5929 67.152 85.315 65.3038 86.1056 63.4987C86.9742 61.5158 87.5743 59.4994 87.7753 57.3441C87.9031 55.9738 87.9461 55.5436 87.3221 54.2629C87.1126 53.833 86.9634 53.407 86.8066 52.9935L86.8069 52.9933L86.7851 52.9371C86.7685 52.894 86.7519 52.8508 86.735 52.8079C86.7154 52.7579 86.6952 52.7084 86.6749 52.6589L86.6687 52.6433C86.7001 52.5014 86.7354 52.3605 86.7651 52.2181C87.1858 50.2041 87.3395 48.234 87.284 46.2832C87.243 44.841 87.0833 43.4094 86.8375 41.9781C86.979 41.8931 87.0774 41.7357 87.1884 41.5972C87.4432 41.2792 87.7253 41.0249 88.0447 40.7461C88.6762 40.1947 89.1596 39.5198 89.7798 38.9603C89.8655 38.8829 89.954 38.8076 90.0457 38.7353C90.4552 38.4125 90.7763 38.0451 91.0263 37.6411C91.0414 37.6169 91.0568 37.5927 91.0714 37.5681C91.101 37.5178 91.1293 37.4668 91.1569 37.4154C91.1774 37.3773 91.1971 37.3388 91.2164 37.3002C91.2382 37.2562 91.2599 37.212 91.2802 37.1672C91.3039 37.115 91.326 37.0618 91.3478 37.0084C91.362 36.9736 91.3771 36.9389 91.3905 36.9035C91.425 36.8125 91.4573 36.7203 91.4861 36.6264C91.5246 36.5017 91.5668 36.3649 91.606 36.2225C91.6451 36.0802 91.6812 35.9322 91.7072 35.7851C91.7596 35.4913 91.7719 35.2006 91.6895 34.9651Z" fill="#BFD1DA"/>
<path d="M75.7331 42.6123C75.8972 41.2579 76.2375 40.1085 76.0522 38.7228C75.8634 37.3114 75.4542 35.9011 74.9702 34.5653C74.4804 33.2136 73.9401 31.9481 73.7695 30.5071C73.5812 28.9167 73.7702 27.287 73.3021 25.7338C72.9546 24.5804 72.2333 23.5908 71.7095 22.5162C71.2541 21.582 71.2001 20.8453 71.1336 19.8189C71.0358 18.308 70.2346 17.0329 69.4151 15.809C68.5535 14.522 67.8194 13.1859 66.8138 11.9922C65.3043 10.2007 63.4594 8.79759 61.4186 7.6351C60.6379 7.19038 59.8292 6.78006 59.0014 6.39528C58.2297 6.03675 57.4348 5.72369 56.6258 5.44518L56.6266 5.44334C56.5618 5.29641 56.4861 5.14853 56.4053 5.00272C56.2436 4.71088 56.0612 4.42666 55.9029 4.17143C55.8237 4.04386 55.7506 3.92346 55.689 3.81304L55.6555 3.75781C55.0392 4.81238 54.0179 5.18811 53.0739 5.89273C52.4909 6.32784 52.1302 6.34424 51.4264 6.46743C50.4662 6.63562 49.6874 6.90927 48.6875 6.90663C46.7175 6.90122 44.7333 6.89377 42.7639 6.96587C40.6005 7.04499 38.5045 6.8622 36.4263 6.25725C35.1049 5.87256 34.6891 5.75451 33.7272 4.70343C33.4046 4.35098 33.0632 4.05583 32.7364 3.75843L32.7357 3.75781C32.5803 3.89938 32.429 4.0424 32.2839 4.19155L32.2834 4.19212C32.2104 4.26719 32.1393 4.34443 32.0702 4.42402L32.062 4.43345L32.0174 4.48444C31.8551 4.67789 31.7072 4.88854 31.5786 5.12534C30.1007 5.49033 28.65 5.93802 27.2457 6.4917C27.0701 6.56125 26.8954 6.63255 26.7218 6.70541C21.3072 9.00098 17.112 13.3574 13.4897 17.8837C12.0474 19.6859 10.806 21.6394 9.7373 23.677C8.86703 25.3353 7.58136 27.0778 6.99842 28.824C5.52636 33.2567 6.13226 38.0671 5.97278 42.6201C5.86213 45.781 5.35389 48.9551 5.78211 52.1134C5.98815 53.6331 6.33108 54.959 7.2775 56.1811C8.15379 57.3123 9.23843 58.2578 10.2079 59.3048C11.4942 60.6939 12.355 62.3784 13.4167 63.927C14.5361 65.5597 15.9714 66.4662 17.6687 67.4466C18.82 68.1119 19.7434 68.7396 20.5919 69.7826C21.3918 70.7658 22.2648 71.7162 23.2677 72.5033C24.1986 73.234 25.1804 73.861 26.3216 74.1979C27.2961 74.4857 28.2946 74.7116 29.2628 75.0121C29.8731 75.2015 30.4314 75.5011 31.061 75.632C33.0367 76.0424 35.178 76.0958 37.1902 76.1204C41.229 76.1696 45.2935 75.6445 49.1223 74.3295C50.3857 73.8954 51.6197 73.3767 52.8125 72.7745C55.9961 71.167 59.4471 69.6947 62.1257 67.0725C63.3991 65.826 64.4731 64.4543 65.5972 63.08C66.5338 61.9352 67.5329 60.9296 68.253 59.6133C68.6757 58.8406 68.7688 58.017 69.0151 57.1894C69.3363 56.1103 69.9702 55.4515 70.8419 54.7554C72.8194 53.1761 75.0188 52.3001 75.6847 49.6548C76.2756 47.3074 75.4488 44.957 75.7331 42.6123Z" fill="#95A3AA"/>
<path d="M80.5854 40.5919C79.9525 39.5378 79.5344 38.2879 79.0092 37.1864C78.4848 36.0862 77.9918 34.8449 77.9401 33.6152C77.898 32.6125 78.1496 31.8253 77.833 30.8488C77.5182 29.8775 77.1729 28.9167 76.9998 27.9072C76.7883 26.6754 76.7775 25.4807 76.1859 24.3433C75.5358 23.0933 74.5336 22.2079 73.9625 20.8849C73.4212 19.6313 73.4105 18.3254 73.1916 17.0141C72.8834 15.1675 72.1365 13.6791 70.8997 12.3104C69.2374 10.4578 67.2383 8.95872 65.0422 7.71706C64.2025 7.24228 63.3342 6.80524 62.4447 6.40029C60.3789 5.46009 58.1835 4.75623 55.9503 4.24609C56.0971 4.48144 56.2591 4.73747 56.4051 5.00104C56.486 5.14685 56.5616 5.29468 56.6265 5.44166L56.6257 5.4435C57.4347 5.72201 58.2295 6.03507 59.0012 6.3936C59.829 6.77837 60.6377 7.1887 61.4185 7.63342C63.4591 8.79591 65.3041 10.1991 66.8136 11.9905C67.8193 13.1842 68.5533 14.5204 69.415 15.8074C70.2345 17.0312 71.0356 18.3063 71.1334 19.8172C71.1999 20.8436 71.254 21.5803 71.7094 22.5146C72.2332 23.5892 72.9545 24.5788 73.302 25.7321C73.77 27.2853 73.5811 28.9149 73.7693 30.5054C73.9399 31.9464 74.4803 33.2119 74.97 34.5636C75.454 35.8994 75.8633 37.3097 76.052 38.7212C76.2373 40.1068 75.897 41.2562 75.7329 42.6106C75.4486 44.9553 76.2755 47.3057 75.6844 49.6531C75.0185 52.2984 72.8192 53.1744 70.8416 54.7537C69.9699 55.4498 69.336 56.1085 69.0148 57.1877C68.7685 58.0153 68.6754 58.8388 68.2527 59.6115C67.5326 60.9279 66.5335 61.9335 65.5969 63.0783C64.4728 64.4525 63.3988 65.8243 62.1254 67.0708C59.4468 69.6929 55.9959 71.1652 52.8122 72.7728C51.6195 73.3749 50.3854 73.8937 49.122 74.3278C45.2932 75.6428 41.2287 76.1679 37.1899 76.1186C35.1777 76.0941 33.0365 76.0407 31.0607 75.6303C30.4311 75.4994 29.8728 75.1998 29.2625 75.0103C28.2943 74.7099 27.2958 74.484 26.3213 74.1961C25.1802 73.8592 24.1983 73.2323 23.2674 72.5016C22.2646 71.7144 21.3915 70.7641 20.5916 69.7808C19.7431 68.7379 18.8198 68.1101 17.6684 67.4449C15.9711 66.4644 14.5358 65.5579 13.4164 63.9253C12.3547 62.3766 11.4939 60.6921 10.2076 59.3031C9.23813 58.2561 8.15349 57.3106 7.2772 56.1794C6.33078 54.9573 5.9879 53.6314 5.78182 52.1116C5.35359 48.9534 5.86183 45.7793 5.97248 42.6184C6.13191 38.0654 5.52602 33.255 6.99812 28.8223C7.58106 27.0761 8.86673 25.3335 9.737 23.6753C10.8057 21.6377 12.0471 19.6843 13.4894 17.882C17.1117 13.3557 21.3068 8.99925 26.7216 6.70368C26.8952 6.63078 27.0699 6.55952 27.2455 6.48997C28.6498 5.93629 30.1005 5.48855 31.5784 5.12362C31.707 4.88681 31.8549 4.67611 32.0172 4.48271C30.6507 4.80599 29.3026 5.19539 27.9841 5.67018C27.7898 5.7402 27.5964 5.81216 27.4038 5.88587C21.4674 8.17131 16.4479 12.7145 12.397 17.5083C10.573 19.667 9.07116 22.0695 7.77555 24.565C6.72423 26.5894 5.11942 28.7263 4.44854 30.8669C2.74218 36.3247 3.5345 42.2639 3.75651 47.8576C3.82998 49.7077 3.85156 51.5616 4.01966 53.4066C4.14101 54.7388 3.72979 56.0554 4.82244 57.0915C5.8198 58.0373 7.07013 58.6537 8.14209 59.5048C9.60406 60.6655 10.8245 62.1633 11.6126 63.8626C12.2632 65.2653 12.8321 66.5625 13.9279 67.6909C15.0111 68.8064 16.2098 69.7768 17.2101 70.9781C18.0925 72.0376 18.2771 73.2694 18.5752 74.5673C18.8613 75.8123 19.8109 76.9996 20.8625 77.7148C21.2782 77.9975 21.7648 78.0798 22.2246 78.258C22.6181 78.4105 22.8337 78.6434 23.178 78.8519C24.0429 79.3756 25.2128 79.6404 26.1728 79.941C28.2195 80.5818 30.3123 81.061 32.4092 81.5046C34.0626 81.8544 35.7348 82.1164 37.4166 82.2829C39.0421 82.4437 39.6145 82.1308 41.0387 81.4899C42.0574 81.0315 43.0423 80.6107 43.9556 79.9417C45.0656 79.1285 45.9927 78.4384 47.4009 78.1426C48.4845 77.9149 49.6534 77.9218 50.762 77.9166C52.4282 77.9088 54.3468 77.7382 55.9826 78.0144C57.939 78.3449 59.8304 79.0664 61.8527 78.7976C63.4379 78.5868 64.9847 77.8546 66.081 76.6779C66.5087 76.2188 66.7335 75.621 67.1501 75.1697C67.6102 74.6716 68.3221 74.4265 68.8728 74.0388C71.3508 72.2947 73.2377 69.3176 73.6277 66.2987C73.8335 64.705 73.6883 63.0565 74.3071 61.5405C74.8147 60.2964 75.6316 59.2451 76.1675 58.0163C76.7488 56.683 77.0508 55.4996 78.0234 54.3627C78.8025 53.4518 79.6733 52.6123 80.2462 51.543C81.1144 49.9226 80.7812 48.0378 81.0739 46.2666C81.3959 44.3189 81.6541 42.3714 80.5854 40.5919Z" fill="#8D9AA0"/>
<path d="M70.5688 32.2343C70.235 30.7122 69.5746 29.2788 69.3281 27.7351C69.1035 26.3281 69.2014 24.8478 68.4257 23.5817C67.8934 22.7129 67.0488 22.3631 66.3079 21.7282C65.2868 20.8533 65.0221 19.3979 64.0021 18.5539C62.7621 17.5278 60.952 17.8713 60.0425 16.2988C59.521 15.3971 59.2723 14.4141 59.1881 13.3948C59.1404 12.8196 59.0727 12.5061 58.746 12.0476C58.6503 11.9134 58.5676 11.7866 58.5251 11.629L58.5183 11.6271C58.0234 11.5829 57.5723 11.7388 57.1571 11.9708C56.0931 12.5655 54.7638 12.4563 53.6259 11.9943C52.4828 11.5301 51.5589 10.7616 50.3257 10.4989C49.1828 10.2554 47.8179 10.2223 46.6659 10.433C45.4903 10.6478 44.4361 11.2304 43.3027 11.5568C41.9565 11.9445 40.5672 12.4822 39.1768 11.9468C38.1255 11.542 37.5126 11.0057 36.631 10.3011C35.9439 9.752 35.2896 9.23367 34.4379 9.00752C33.9081 8.8668 33.444 8.66162 32.9331 8.47703C31.8234 8.07627 31.269 7.97486 30.5294 7.05177C29.5612 5.84329 27.6111 6.82543 26.5077 7.3102C26.3505 7.37929 26.1945 7.44955 26.0401 7.52189C21.1424 9.81765 17.7642 13.9829 14.5826 18.2559C13.5126 19.6928 12.5409 21.2063 11.6992 22.7859C11.0098 24.0782 10.0434 25.4262 9.54839 26.7781C8.3105 30.1855 8.57374 33.877 8.18915 37.3796C7.69344 41.8955 6.26234 46.1261 7.64486 50.6866C8.88793 54.7595 11.0879 59.1485 14.0123 62.3102C16.5155 65.0165 19.3095 67.3078 22.4726 68.6328C25.8663 70.067 29.6423 70.3146 33.3622 70.2158C36.0362 70.1447 38.7124 69.865 41.3204 69.2585C43.5574 68.7385 46.0474 67.2036 48.3743 67.4535C49.1341 67.5351 49.9663 67.7013 50.7044 67.39C51.89 66.8896 52.3537 65.519 53.6076 65.078C55.2181 64.5114 56.9953 64.9205 58.4784 63.9685C61.4976 62.0305 63.3519 58.5053 64.6011 55.2553C64.9567 54.3303 65.2035 53.3615 65.7842 52.5407C66.271 51.8526 66.9572 51.3123 67.5405 50.7108C68.6489 49.5671 69.4107 48.5229 69.6416 46.9218C69.8531 45.4566 69.8694 43.9961 70.1891 42.543C70.5009 41.1264 71.1971 39.7808 71.4743 38.3738C71.8642 36.3954 70.9886 34.148 70.5688 32.2343Z" fill="#9DACB4"/>
<path d="M88.7553 38.8319C87.5282 38.912 86.2683 38.6365 85.2123 38.2166C84.1873 37.809 83.364 37.161 82.8628 36.2669C82.5636 35.7334 82.3305 35.1472 82.1136 34.5765C81.8967 34.0054 81.7798 33.4471 81.784 32.8206C81.7861 32.5163 81.794 32.2107 81.7584 31.9117C81.7201 31.5895 81.6094 31.2843 81.5324 30.9723C81.4492 30.635 81.376 30.2949 81.2947 29.957C81.2176 29.6367 81.1519 29.2983 80.9903 29.01C80.8397 28.741 80.622 28.5122 80.4457 28.2586C80.2745 28.0125 80.1441 27.7469 80.0639 27.4587C79.9296 26.9759 79.9293 26.4452 79.663 26.0103C79.504 25.7506 79.2551 25.546 79.0403 25.3259C78.8222 25.1023 78.6104 24.8735 78.4074 24.6382C77.9933 24.158 77.6151 23.6495 77.3078 23.1028C77.0267 22.6025 76.7847 22.0538 76.7197 21.4733C76.6715 21.0428 76.7677 20.6202 76.9765 20.2014C77.084 19.9861 77.2082 19.7759 77.3245 19.5633C77.4798 19.2792 77.572 19.0054 77.6447 18.7054C77.7961 18.0792 78.1304 17.4817 78.3706 16.8696C78.5867 16.3183 78.8306 15.6841 78.7862 15.119C78.7457 14.604 78.4448 14.1888 78.2694 13.7255L78.2641 13.725C77.9845 13.7055 77.7075 13.6913 77.4244 13.6427C76.9581 13.5627 76.4875 13.6333 76.0256 13.6086C75.9634 13.6053 75.9048 13.5937 75.8469 13.5824C75.5688 13.2616 75.2844 12.9433 74.9863 12.6308C70.0296 7.43311 62.6466 4.53118 55.3333 3.30078C55.4628 3.45347 55.5828 3.62119 55.6891 3.81176C55.7506 3.92218 55.8237 4.04263 55.9029 4.17015C55.9183 4.19494 55.9347 4.22123 55.9505 4.24649C58.1837 4.75667 60.3791 5.46049 62.4449 6.40069C63.3344 6.80559 64.2027 7.24263 65.0424 7.71746C67.2385 8.95912 69.2376 10.4582 70.8999 12.3108C72.1367 13.6795 72.8836 15.1678 73.1918 17.0145C73.4107 18.3258 73.4214 19.6317 73.9627 20.8853C74.5338 22.2083 75.536 23.0937 76.1861 24.3437C76.7777 25.4811 76.7885 26.6758 77 27.9076C77.173 28.9171 77.5184 29.8779 77.8332 30.8492C78.1498 31.8257 77.8982 32.6129 77.9403 33.6156C77.992 34.8453 78.485 36.0866 79.0094 37.1868C79.5345 38.2883 79.9526 39.5382 80.5856 40.5923C81.6542 42.3718 81.396 44.3193 81.0741 46.2669C80.7814 48.0381 81.1147 49.9229 80.2464 51.5433C79.6734 52.6125 78.8027 53.452 78.0236 54.363C77.051 55.4998 76.749 56.6832 76.1677 58.0165C75.6319 59.2455 74.8149 60.2967 74.3073 61.5407C73.6885 63.0568 73.8337 64.7053 73.6279 66.2989C73.2379 69.3178 71.351 72.2949 68.873 74.0391C68.3223 74.4267 67.6104 74.6718 67.1503 75.17C66.7337 75.6213 66.5089 76.2191 66.0812 76.6782C64.9848 77.8549 63.4381 78.5871 61.8529 78.7979C59.8307 79.0667 57.9393 78.3452 55.9828 78.0147C54.347 77.7385 52.4284 77.9091 50.7622 77.9168C49.6537 77.922 48.4848 77.9152 47.401 78.1428C45.9929 78.4387 45.0658 79.1288 43.9558 79.9419C43.0425 80.611 42.0576 81.0317 41.0389 81.4901C39.6147 82.1311 39.0423 82.444 37.4168 82.2832C35.735 82.1167 34.0628 81.8546 32.4094 81.5048C30.3125 81.0612 28.2197 80.5821 26.173 79.9413C25.2129 79.6407 24.0431 79.3759 23.1782 78.8521C22.8339 78.6437 22.6183 78.4107 22.2248 78.2583C21.765 78.0801 21.2784 77.9978 20.8627 77.715C19.8111 76.9998 18.8615 75.8126 18.5754 74.5676C18.2773 73.2696 18.0927 72.0378 17.2103 70.9783C16.21 69.7771 15.0112 68.8067 13.9281 67.6912C12.8323 66.5628 12.2634 65.2656 11.6128 63.8628C10.8247 62.1636 9.6043 60.6658 8.14228 59.505C7.07032 58.6539 5.81999 58.0375 4.82263 57.0917C3.72998 56.0556 4.14119 54.7391 4.01985 53.4069C3.85175 51.5619 3.83017 49.708 3.7567 47.8579C3.53469 42.2642 2.74233 36.325 4.44873 30.8672C5.11961 28.7265 6.72442 26.5896 7.77574 24.5652C9.07135 22.0697 10.5732 19.6673 12.3972 17.5086C16.448 12.7148 21.4675 8.17156 27.4041 5.88617C27.5967 5.81247 27.7902 5.74051 27.9844 5.67048C29.3029 5.19569 30.651 4.8063 32.0175 4.48302L32.0621 4.43203L32.0703 4.4226C32.1394 4.34305 32.2104 4.26577 32.2835 4.1907L32.2839 4.19013C32.429 4.04098 32.5804 3.89795 32.7358 3.75639L32.7365 3.757L32.7398 3.75389C31.1665 4.10069 29.6118 4.53085 28.0863 5.06836C21.6278 7.34367 15.7786 12.0647 11.3046 17.1351C9.09176 19.6429 7.33681 22.5014 5.8141 25.455C4.58172 27.8454 2.65778 30.3768 1.89897 32.9117C-0.0416991 39.3949 0.727905 46.5013 1.54053 53.0972C1.86315 55.7153 2.39247 58.3273 3.17461 60.8565C3.02767 61.0777 2.86259 61.282 2.6796 61.5019C2.21579 62.0592 1.89402 62.6843 1.44091 63.2458C1.37809 63.3235 1.31292 63.3999 1.24449 63.4749C1.15401 63.574 1.07272 63.6751 0.996048 63.7772C1.40095 63.503 1.84638 63.2862 2.32762 63.1437C3.3591 62.8381 4.46532 62.8049 5.41721 62.9254C6.34124 63.0422 7.12555 63.3875 7.66867 63.9896C7.99284 64.3489 8.26791 64.7627 8.52701 65.1673C8.78634 65.5722 8.95887 65.987 9.03752 66.4792C9.07588 66.7184 9.10929 66.9596 9.17871 67.187C9.25368 67.4322 9.38775 67.6496 9.49416 67.8791C9.6091 68.1272 9.71598 68.3795 9.82937 68.6284C9.93691 68.8643 10.0371 69.1168 10.2124 69.311C10.3756 69.4922 10.5905 69.6285 10.7735 69.7925C10.9513 69.9517 11.0968 70.1341 11.2028 70.3444C11.3803 70.6965 11.4503 71.1127 11.7337 71.4012C11.9029 71.5734 12.1411 71.6845 12.3523 71.8147C12.567 71.9469 12.777 72.0844 12.9802 72.2289C13.3949 72.5235 13.7829 72.8475 14.1158 73.2156C14.4202 73.5523 14.6978 73.9348 14.8293 74.3773C14.9269 74.7054 14.9006 75.0558 14.7783 75.4256C14.7154 75.6159 14.6374 75.8053 14.5667 75.9949C14.4721 76.2485 14.4297 76.4814 14.4075 76.7312C14.3611 77.2523 14.1557 77.787 14.0323 78.3146C13.921 78.7898 13.7973 79.3354 13.9092 79.77C14.0113 80.1658 14.3214 80.4319 14.5313 80.7606L14.5359 80.7599C14.776 80.7199 15.013 80.6762 15.2597 80.6583C15.6662 80.6288 16.0565 80.4803 16.452 80.4084C16.6224 80.3774 16.775 80.4202 16.9374 80.293C17.3193 80.5972 17.7061 80.8934 18.1009 81.1751C22.2322 84.124 27.0835 85.7046 31.9329 87.1494C33.7895 87.7025 35.6889 88.1409 37.6111 88.4598C37.7256 88.5792 37.8418 88.708 37.9566 88.8419C38.1486 89.0655 38.3343 89.2991 38.4927 89.5158L38.4938 89.5174C38.5464 89.5892 38.5964 89.6595 38.642 89.7263L38.6706 89.7629V89.7628C38.3918 89.3584 38.276 88.8229 38.3822 88.1166C38.6952 86.0356 41.461 84.666 42.9697 83.5146C45.918 81.2646 49.7604 80.6034 53.3887 80.871C56.4866 81.0995 61.0686 82.1004 62.0993 85.5826C62.2408 86.0609 62.2331 86.5561 62.116 87.0439H62.1159L62.116 87.0438C62.1758 86.8935 62.2231 86.7335 62.2694 86.5667C62.3157 86.3999 62.3612 86.2266 62.4177 86.0497C62.5873 85.5188 62.7735 84.9211 63.024 84.401L63.0271 84.4029C62.883 84.7017 62.7609 85.0248 62.6496 85.3466C66.0495 84.1536 69.4693 82.8439 72.1615 80.5452C74.3447 78.6811 76.2309 76.6191 77.8557 74.3972C78.023 74.3667 78.181 74.3388 78.3211 74.3202C78.3429 74.3174 78.3633 74.3127 78.3848 74.3094C77.6304 73.3488 77.6563 72.2608 77.3478 71.124C77.1574 70.4219 77.2747 70.0804 77.4186 69.3805C77.6151 68.4257 77.6466 67.6008 78.0166 66.6718C78.7455 64.8417 79.4816 62.999 80.1383 61.1409C80.8594 59.0999 81.7998 57.2176 83.1261 55.5071C83.9694 54.4195 84.2319 54.0761 85.5629 53.5676C86.0094 53.3972 86.4095 53.1879 86.8065 52.9933L86.8068 52.9931L86.785 52.9369C86.7684 52.8938 86.7518 52.8506 86.7349 52.8077C86.7153 52.7577 86.6951 52.7081 86.6747 52.6586C86.6595 52.6212 86.6442 52.5839 86.6285 52.5468C86.642 52.5787 86.6552 52.6109 86.6686 52.6431C86.7 52.5012 86.7353 52.3603 86.765 52.2178C87.1857 50.2039 87.3394 48.2338 87.2839 46.283C87.2429 44.8408 87.0832 43.4092 86.8374 41.9779C86.9789 41.8929 87.0772 41.7355 87.1883 41.597C87.4431 41.279 87.7252 41.0247 88.0446 40.7459C88.6761 40.1945 89.1595 39.5196 89.7796 38.9601C89.8654 38.8827 89.9539 38.8074 90.0456 38.735C90.167 38.6393 90.2783 38.5385 90.3846 38.4352C89.8737 38.6559 89.3277 38.7946 88.7553 38.8319Z" fill="#839096"/>
<path d="M54.5891 3.8978C54.0133 3.00143 53.0822 2.6691 52.2203 2.05604C51.6783 1.67056 51.3429 1.65595 50.6886 1.5469C49.7956 1.39789 49.0716 1.15529 48.1418 1.15774C46.3102 1.16245 44.4651 1.1691 42.634 1.10529C40.6224 1.03512 38.6736 1.19714 36.7412 1.73314C35.5126 2.07386 35.126 2.17857 34.2316 3.10967C33.9807 3.37084 33.7181 3.59596 33.4609 3.81693C33.5858 3.92598 33.71 4.03818 33.8314 4.15939C34.7631 5.09054 35.1659 5.19525 36.446 5.53597C38.2093 6.00548 39.9858 6.1879 41.8078 6.17885C42.0712 6.17772 42.3355 6.17277 42.6008 6.16382C44.0293 6.11608 45.4656 6.10779 46.8983 6.10859C47.3741 6.10883 47.8495 6.11019 48.324 6.11132H48.3389C49.3075 6.11373 50.0619 5.87117 50.9921 5.7223C51.6739 5.61311 52.0232 5.59855 52.5879 5.21302C52.942 4.97136 53.3073 4.77334 53.6568 4.5675L53.6505 4.56165C53.9862 4.36368 54.3073 4.15783 54.5891 3.8978Z" fill="#95A3AA"/>
<path d="M90.5979 35.3974C90.5373 35.2294 90.4684 35.0636 90.3954 34.888C90.3195 34.7057 90.2441 34.5157 90.1731 34.3193C90.1495 34.2539 90.1243 34.1905 90.1026 34.1228C90.0818 34.058 90.0589 33.9928 90.0336 33.9261C90.0083 33.8595 89.9805 33.7914 89.95 33.7208C89.8697 33.5355 89.7788 33.353 89.6825 33.1599L89.5786 32.9503C89.5465 32.8848 89.5169 32.8201 89.4892 32.7559C89.4765 32.7266 89.466 32.6985 89.4541 32.6695C89.4246 32.5982 89.3949 32.5268 89.3676 32.4574C89.3513 32.4161 89.3344 32.3762 89.3181 32.3356C89.3018 32.2949 89.286 32.2536 89.2686 32.2137C89.2008 32.0571 89.1368 31.9425 89.0607 31.8443C89.0354 31.8117 89.0087 31.7809 88.9801 31.7509C88.6487 31.4041 88.4673 31.0432 88.2918 30.6941C88.2266 30.5644 88.1649 30.4419 88.0953 30.3187C87.9038 29.9803 87.6556 29.6894 87.3746 29.4188C87.0936 29.1483 86.7796 28.8979 86.4568 28.6403C86.3563 28.5603 86.2555 28.4798 86.1548 28.3981C85.9609 28.241 85.7761 28.085 85.5998 27.9298C84.3655 26.8431 83.5528 25.7951 83.0651 24.6686C82.9535 24.4111 82.8649 24.1464 82.7883 23.8802C82.7628 23.7916 82.7332 23.7033 82.7119 23.6143C82.6791 23.4778 82.6418 23.345 82.6008 23.2141C82.4775 22.8218 82.3202 22.4473 82.1465 22.0461L82.089 21.9136L82.0303 21.778L81.9362 21.5596C81.8221 21.2917 81.7561 21.0209 81.7147 20.7565C81.694 20.6244 81.6794 20.4939 81.6681 20.3662C81.6567 20.2384 81.6486 20.1137 81.6407 19.9928C81.6282 19.8004 81.6161 19.6132 81.593 19.4334C81.5814 19.3434 81.5672 19.2553 81.5488 19.1692C81.5304 19.0831 81.508 18.9989 81.48 18.9172C81.4438 18.8114 81.4111 18.7045 81.3812 18.5967C81.2911 18.2732 81.2249 17.9424 81.1604 17.6197C81.0564 17.1 80.9583 16.6092 80.7734 16.1822C80.7219 16.063 80.667 15.9567 80.6057 15.8572C80.5372 15.7457 80.4525 15.6318 80.3585 15.5219C80.3116 15.4669 80.2624 15.4129 80.2118 15.3608C79.9592 15.0999 79.6722 14.8847 79.4632 14.8169C79.411 14.7999 79.3601 14.7814 79.3107 14.7617C79.3329 14.8523 79.3513 14.9484 79.3633 15.0493L79.3638 15.0562C79.3738 15.1424 79.3792 15.229 79.3802 15.3156L79.3784 15.3778C79.3777 15.4468 79.3764 15.516 79.3711 15.5846L79.3661 15.6317C79.3593 15.706 79.3515 15.7801 79.3405 15.8533L79.3368 15.8743C79.324 15.9561 79.3095 16.0371 79.2927 16.1168C79.2256 16.4374 79.1314 16.7386 79.051 16.9937C78.9837 17.2074 78.9071 17.4155 78.8331 17.6168C78.6973 17.9855 78.5691 18.3339 78.5087 18.6805C78.4422 19.0615 78.3521 19.3624 78.2163 19.6563C78.1854 19.7232 78.1537 19.7899 78.1219 19.8567C78.0582 19.9908 77.9979 20.1176 77.9455 20.2435C77.8137 20.5604 77.7713 20.8605 77.816 21.1607C77.8571 21.4358 77.9447 21.726 78.084 22.0478C78.1579 22.2183 78.2457 22.3966 78.3526 22.5928C78.6118 23.0685 78.9376 23.5497 79.3487 24.0637C79.5259 24.2853 79.7143 24.5074 79.9247 24.7426C79.9728 24.7964 80.0227 24.8494 80.0728 24.9026C80.2412 25.0812 80.432 25.2837 80.5798 25.5351C80.6268 25.615 80.6702 25.7008 80.7087 25.7899C80.8362 26.0842 80.8971 26.3757 80.9561 26.6575C80.9891 26.8152 81.0203 26.9642 81.0612 27.1017C81.0867 27.1878 81.1181 27.2742 81.1545 27.3583C81.2117 27.49 81.2833 27.6218 81.3675 27.7494C81.4265 27.8388 81.4903 27.9251 81.554 28.0117C81.6769 28.1784 81.8038 28.3508 81.9138 28.5533C81.9493 28.6187 81.9817 28.6858 82.0113 28.7544C82.1213 29.0082 82.1895 29.2722 82.2497 29.5052L82.2806 29.6242C82.3208 29.7762 82.3593 29.9285 82.3981 30.0809C82.4443 30.2632 82.4905 30.4455 82.5394 30.6271C82.5643 30.7194 82.592 30.8112 82.6196 30.903C82.6878 31.1292 82.7583 31.363 82.7981 31.62C82.8436 31.9127 82.8548 32.1971 82.8657 32.4721L82.87 32.577C82.8916 33.0948 82.9988 33.5873 83.2076 34.1272C83.3125 34.3986 83.4269 34.6896 83.5523 34.9792C83.6793 35.2725 83.8008 35.525 83.9235 35.7508C84.3377 36.5126 84.9846 37.1083 85.8463 37.5213C86.4382 37.8051 87.0436 38.0015 87.6261 38.1154L87.622 38.1202C87.7029 38.1362 87.7829 38.1495 87.8628 38.1621C87.8927 38.1669 87.9225 38.1716 87.9521 38.1757C88.0193 38.1853 88.086 38.1935 88.1522 38.2006C88.2031 38.206 88.2534 38.2099 88.3036 38.2139C88.3529 38.2177 88.4024 38.2219 88.451 38.2243C88.5525 38.2292 88.6529 38.2315 88.751 38.2298H88.7535C88.9224 38.2266 89.0895 38.2083 89.2546 38.1782C89.4466 38.1433 89.6358 38.0918 89.8204 38.021C90.1356 37.6529 90.3507 37.2132 90.4762 36.6811C90.5692 36.2868 90.7074 35.701 90.5979 35.3974Z" fill="#95A3AA"/>
<path d="M86.8582 54.6213C86.7075 54.292 86.5947 53.9651 86.4836 53.6445C86.3363 53.7207 86.1863 53.795 86.029 53.8633C84.8206 54.3877 84.5753 54.7238 83.788 55.7891C82.7034 57.2567 81.8808 58.842 81.2197 60.54C81.124 60.7853 81.0317 61.0328 80.9425 61.2827C80.462 62.6288 79.9419 63.9679 79.4146 65.3C79.2396 65.7423 79.0637 66.1838 78.8883 66.6247L78.8828 66.6387C78.5247 67.5387 78.473 68.3294 78.2698 69.2492C78.1208 69.9233 78.0059 70.2537 78.1569 70.9205C78.2517 71.3386 78.3015 71.7511 78.3646 72.1518L78.3723 72.1481C78.4331 72.5331 78.5065 72.9074 78.6448 73.265C79.6901 73.0588 80.3413 72.3151 81.2281 71.7387C81.7858 71.3762 81.9226 71.0697 82.2646 70.5011C82.7311 69.7255 83.2228 69.1412 83.5623 68.2756C84.2309 66.5703 84.9027 64.852 85.6349 63.1723C86.4393 61.3274 87.0048 59.4553 87.2164 57.4612C87.3509 56.1932 87.3956 55.7952 86.8582 54.6213Z" fill="#95A3AA"/>
<path d="M62.3849 22.8167C61.2583 21.9963 60.1214 21.4792 59.3112 20.2869C58.7313 19.4334 58.4312 18.3668 57.6799 17.6295C57.0608 17.022 56.1965 16.7828 55.657 16.0888C55.1784 15.4733 54.8723 14.7886 54.1875 14.3436C53.7795 14.0783 53.2946 14.0077 52.8825 13.7394C52.5089 13.4962 52.2654 13.161 51.9549 12.8513C51.4385 12.3363 50.7986 11.6732 50.094 11.4191C48.3075 10.7751 45.5927 11.5614 44.0145 12.4597C43.2466 12.8968 42.3669 13.4728 41.4526 13.5244C40.6898 13.5675 39.3623 12.9979 38.6837 12.642C38.0036 12.2852 37.4084 11.7812 36.7015 11.4552C35.9412 11.1048 35.204 10.8247 34.512 10.3419C33.7224 9.79134 33.1951 9.47014 32.2373 9.33526C31.4382 9.22278 31.0047 9.14667 30.4297 8.58621C27.9416 6.16104 23.8203 9.04917 21.8981 10.7767C19.3984 13.0232 17.532 15.857 15.6749 18.63C14.9642 19.6913 14.2753 20.7753 13.6606 21.8968C13.1523 22.823 12.5051 23.7766 12.098 24.734C11.0944 27.1162 10.9023 29.6768 10.4051 32.1409C9.40651 37.0906 7.46844 41.6539 8.94007 46.7133C10.235 51.1478 12.6459 56.08 15.9209 59.4184C18.2886 61.8319 20.9786 63.5898 23.9297 64.4526C27.0775 65.3819 30.4851 65.2371 33.8384 64.5717C36.2418 64.0948 38.6148 63.4226 40.8612 62.4359C41.9201 61.9707 42.6464 61.5053 43.4672 60.7362C44.1922 60.0568 44.8696 59.0073 45.7248 58.4933C47.0398 57.703 48.7487 58.1397 50.1701 57.8497C50.0586 57.8076 49.9437 57.761 49.8245 57.7087C48.835 56.4345 48.8001 55.5727 48.3498 54.4505C48.0717 53.7576 48.1954 53.5592 48.3301 53.0891C48.5137 52.4476 48.502 51.8021 48.9013 51.296C49.688 50.2991 50.4827 49.297 51.1785 48.2298C51.9428 47.0576 52.9871 46.1584 54.5179 45.6528C55.4913 45.3314 55.7942 45.2274 57.4048 45.6961C57.9449 45.8534 58.4255 45.9487 58.903 46.0536L58.9037 46.0537C58.8792 46.0049 58.8542 45.9561 58.8296 45.9074L58.8229 45.8944C58.7912 45.832 58.7587 45.7694 58.726 45.707L58.7035 45.6646C58.6709 45.6027 58.6376 45.5409 58.6035 45.4787L58.6016 45.4755C58.4937 45.2798 58.3754 45.0813 58.242 44.8779C58.2272 44.8552 58.2123 44.8326 58.1971 44.8096C58.1598 44.7541 58.121 44.6979 58.081 44.6413C58.0632 44.6161 58.0446 44.5906 58.0262 44.5651C57.9844 44.5074 57.9421 44.4495 57.8971 44.3906L57.8566 44.3389C57.8355 44.3118 57.814 44.2844 57.7922 44.257C57.955 44.0667 58.139 43.879 58.3564 43.6888C59.3925 42.7826 60.2619 42.2373 61.5796 41.6472C62.7075 41.1422 63.3625 40.7494 63.8018 39.5475C64.3399 38.0756 64.2428 36.3427 64.2417 34.8018C64.2406 33.3991 64.4013 32.0601 65.0774 30.7985C65.4908 30.027 66.023 29.2186 66.1397 28.3273C66.4574 25.9013 64.1073 24.0708 62.3849 22.8167Z" fill="#A7B7BE"/>
<path d="M58.157 19.8207C57.3096 18.8252 56.7364 17.4941 55.6008 16.8238C54.466 16.154 53.6772 15.0356 52.419 14.5612C51.6847 14.2845 50.8995 14.1394 50.1067 14.0894C49.3722 14.0433 48.6313 14.0787 47.9182 14.167C45.6714 14.4451 43.6076 15.1898 41.3089 14.7749C39.774 14.4978 38.3885 14.1257 37.1129 13.1883C36.2385 12.5456 35.4569 11.8007 34.4193 11.4154C33.5866 11.1062 32.7515 11.0931 31.9399 10.694C31.0644 10.2636 30.2949 9.607 29.3824 9.25502C26.6775 8.21195 24.0363 9.7481 21.9701 11.3549C19.6182 13.1839 18.1708 16.4468 16.7673 19.0027C15.329 21.6219 13.6475 24.0884 12.621 26.9008C10.7091 32.1399 8.67447 37.1802 10.2352 42.7384C10.5722 43.9389 11.0025 45.1115 11.6495 46.1841C12.3582 47.3588 13.5421 48.1263 14.5805 48.979C15.4813 49.7185 16.6066 50.2754 17.7123 50.6266C18.8615 50.9915 20.0865 50.9557 21.179 51.5114C22.1361 51.9983 22.4725 52.8234 22.8023 53.8061C23.1016 54.6977 22.9341 55.8648 23.6325 56.5464C24.9572 57.8387 27.6893 57.9521 29.3757 58.6365C30.8337 59.2282 31.8308 59.1541 33.323 58.751C35.1094 58.2682 37.046 57.981 38.6496 57.0031C41.1651 55.4692 43.0331 52.35 44.0204 49.6314C44.919 47.1572 46.4347 45.1182 47.7186 42.8508C48.6621 41.1844 50.6077 40.9495 51.9352 39.7488C53.3744 38.4472 55.4699 38.1898 56.9257 36.8457C58.1297 35.7341 58.8265 34.42 59.2718 32.8627C59.8136 30.9676 60.416 29.0968 60.9788 27.2078C61.7661 24.5646 59.7882 21.7366 58.157 19.8207Z" fill="#AFBFC8"/>
<path d="M52.2203 2.05604C51.6783 1.67056 51.3429 1.65595 50.6886 1.5469C49.7956 1.39789 49.0716 1.15529 48.1418 1.15774C46.3102 1.16245 44.4651 1.1691 42.634 1.10529C40.6224 1.03512 38.6736 1.19714 36.7412 1.73314C35.5126 2.07386 35.126 2.17857 34.2316 3.10967C33.9807 3.37084 33.7181 3.59596 33.4609 3.81693C33.5858 3.92598 33.71 4.03818 33.8314 4.15939C34.0719 4.39987 34.2771 4.58451 34.4714 4.73291L34.4775 4.72188C34.4492 4.7002 34.4219 4.68144 34.3932 4.65816C34.4998 4.55586 34.6061 4.45176 34.7097 4.33842C35.5619 3.40727 35.9303 3.30256 37.1009 2.96175C38.942 2.42579 40.799 2.26377 42.7155 2.3339C44.4604 2.39784 46.2181 2.3912 47.9635 2.38649C48.8494 2.38408 49.5392 2.62664 50.39 2.77551C51.0135 2.8847 51.3331 2.89926 51.8496 3.28479C52.4709 3.74855 53.1289 4.05326 53.6505 4.56161C53.9862 4.36358 54.3073 4.15774 54.5891 3.8977C54.0132 3.00143 53.0822 2.66905 52.2203 2.05604Z" fill="#525D62"/>
<path d="M16.8928 38.2945C18.2393 37.5144 19.1097 36.4536 19.7022 35.187C20.2415 34.034 20.8765 32.9237 21.5044 31.8198C21.8231 31.2596 21.7564 30.6465 21.8676 29.999C21.9492 29.5244 22.0443 29.3113 21.7317 28.7046C21.2255 27.7224 21.1191 26.9075 20.1099 25.8851C18.7119 25.5554 17.9606 25.8886 16.8584 25.9674C16.1777 26.0161 16.0452 26.2084 15.6824 26.5249C15.1874 26.9569 14.6291 27.219 14.3166 27.7828C13.7008 28.8933 13.083 30.0134 12.3791 31.074C11.6058 32.2391 11.153 33.5343 11.1874 35.0901C11.2093 36.0793 11.2128 36.3887 12.1088 37.6031C12.4094 38.0106 12.6386 38.3919 12.8752 38.7665C13.3181 38.7736 13.763 38.7708 14.2674 38.8155C15.7706 38.9487 16.0367 38.7907 16.8928 38.2945ZM13.6821 38.4096C13.5055 38.4 13.3383 38.398 13.1745 38.3983C13.0033 38.112 12.8294 37.8202 12.6105 37.5118C11.8299 36.4122 11.8326 36.1278 11.8314 35.2188C11.8297 33.7893 12.26 32.59 12.9751 31.5045C13.626 30.5163 14.2007 29.4752 14.7735 28.4427C15.0642 27.9187 15.5697 27.6672 16.0215 27.2608C16.3527 26.963 16.4751 26.7838 17.0862 26.7263C18.0579 26.6349 18.7312 26.3247 19.9359 26.5757C20.1438 26.9008 20.2773 27.2131 20.3974 27.5287L20.406 27.529C20.5307 27.8574 20.6414 28.1895 20.8054 28.5434C21.0672 29.1079 20.9735 29.3137 20.8829 29.7669C20.7593 30.3851 20.7979 30.9645 20.4895 31.5074L20.4848 31.5156L20.4845 31.5163C20.3334 31.7822 20.1819 32.0485 20.0313 32.3157C19.5782 33.1202 19.1344 33.9327 18.7381 34.766C18.6645 34.9207 18.5868 35.0725 18.505 35.2212C17.9403 36.251 17.1712 37.1326 16.0787 37.8226C15.2856 38.3236 15.0391 38.4829 13.6821 38.4096Z" fill="#BFD1DA"/>
<path d="M23.0313 29.6854C22.9897 29.381 22.9061 29.0766 22.797 28.7745C22.6823 28.4569 22.5387 28.1441 22.4134 27.8282C22.2812 27.4949 22.156 27.1549 21.9668 26.8343C21.8257 26.5952 21.6319 26.3789 21.4153 26.1756C20.9632 26.0716 20.5304 25.9858 20.1835 25.8994L20.1632 25.8949L20.1098 25.8828C21.119 26.9052 21.2253 27.7201 21.7316 28.7023C22.0441 29.3089 21.949 29.5221 21.8675 29.9967C21.7562 30.6442 21.8229 31.2573 21.5043 31.8175C20.8763 32.9213 20.2414 34.0317 19.702 35.1847C19.1095 36.4513 18.2391 37.5121 16.8926 38.2922C16.0365 38.7884 15.7705 38.9464 14.2673 38.8132C13.7628 38.7685 13.318 38.7713 12.875 38.7642L12.8774 38.768C12.9184 38.8328 12.9598 38.8976 13.0016 38.9621L13.0357 39.0142C13.0701 39.0666 13.1051 39.1189 13.1406 39.1712L13.1816 39.2315C13.2193 39.2861 13.2582 39.3409 13.298 39.3956L13.331 39.4417C13.3822 39.5112 13.4352 39.5811 13.4909 39.6512L13.5174 39.6837C13.5639 39.7415 13.6121 39.7996 13.6623 39.8579C13.6818 39.8806 13.7023 39.9036 13.7226 39.9264C13.7647 39.9741 13.8082 40.022 13.8533 40.0701C13.877 40.0953 13.901 40.1207 13.9255 40.1461C13.9728 40.195 14.0225 40.2443 14.0733 40.2939C14.097 40.317 14.12 40.34 14.1445 40.3633C14.2197 40.4345 14.2977 40.5062 14.3812 40.5787L14.3846 40.5819C14.4127 40.5909 14.4397 40.5985 14.4669 40.6064L14.4925 40.6141C14.7452 40.6121 14.9933 40.5884 15.2172 40.5119C15.4986 40.4158 15.7256 40.2523 15.9451 40.0816C16.5074 39.6442 17.2501 39.4439 17.8994 39.116C18.1988 38.9649 18.4758 38.7815 18.7526 38.6035C19.0495 38.4124 19.3386 38.2118 19.6056 37.9902C19.8546 37.7836 20.0881 37.5587 20.2747 37.302C20.4766 37.0243 20.627 36.7115 20.8072 36.4201C21.1835 35.8122 21.5894 35.222 21.9406 34.5994C22.1155 34.2895 22.2662 33.9674 22.4313 33.6524C22.5994 33.3315 22.7727 33.0109 22.8908 32.6654C23.0015 32.3418 23.064 31.9973 23.0759 31.6438C23.087 31.3155 23.0622 30.9811 23.0584 30.6502C23.0547 30.3282 23.0762 30.0134 23.0313 29.6854ZM22.6414 31.6841C22.4867 32.185 22.2767 32.6969 21.9791 33.1256C21.6528 33.5958 21.1045 33.8895 20.8734 34.4275C20.6629 34.9177 20.9638 35.519 20.7714 36.0121C20.6644 36.2867 20.4542 36.5135 20.2705 36.7413C20.0732 36.9859 19.8608 37.2204 19.6394 37.4468C19.2078 37.8885 18.735 38.2961 18.2332 38.6742C17.9603 38.8798 17.6789 39.0534 17.3409 39.1795C17.0197 39.2994 16.6786 39.3887 16.3379 39.4733C15.8049 39.6058 15.2056 39.4929 14.6251 39.4307C14.1552 39.2646 13.6824 39.0678 13.2101 38.8699C13.5312 38.8781 13.8612 38.8888 14.2184 38.9244C15.8281 39.0845 16.1494 38.9037 17.0082 38.4208L17.018 38.4152C18.1373 37.7857 18.9854 36.9384 19.6109 35.8249C19.708 35.652 19.8013 35.4696 19.8883 35.2825C20.297 34.4037 20.7566 33.5651 21.1523 32.8606C21.313 32.5747 21.4751 32.2896 21.6371 32.0052L21.6857 31.9199L21.6905 31.9113C21.9152 31.5113 21.9475 31.0927 21.9816 30.6494C21.9964 30.4584 22.0117 30.2608 22.0437 30.0632C22.0526 30.0089 22.0615 29.958 22.0701 29.9096C22.1393 29.52 22.1851 29.2625 21.8677 28.6663C21.8239 28.5839 21.7859 28.5037 21.7471 28.423C21.8205 28.4847 21.8923 28.5484 21.9593 28.6168C22.3701 29.036 22.5589 29.5437 22.6722 30.0441C22.8009 30.6123 22.8008 31.1689 22.6414 31.6841Z" fill="#95A3AA"/>
<path d="M18.5045 35.2218C17.9403 36.2479 17.1726 37.1263 16.0833 37.8144C15.4624 38.2066 15.1743 38.3886 14.4285 38.4143C14.3453 38.289 14.2599 38.1624 14.1634 38.0316C13.3696 36.9556 13.3665 36.6815 13.3471 35.8051C13.3164 34.4267 13.7176 33.2793 14.4028 32.2472C15.0265 31.3075 15.5738 30.3152 16.1193 29.3314C16.3962 28.832 16.8907 28.5996 17.3293 28.217C17.6507 27.9365 17.7681 27.7663 18.3712 27.7232C19.0967 27.6712 19.6522 27.4969 20.397 27.5295C20.277 27.2139 20.1435 26.9015 19.9355 26.5764C18.7308 26.3255 18.0575 26.6357 17.0859 26.727C16.4747 26.7846 16.3523 26.9637 16.0211 27.2616C15.5692 27.668 15.0638 27.9193 14.7731 28.4434C14.2003 29.4759 13.6256 30.5171 12.9747 31.5053C12.2596 32.5908 11.8293 33.79 11.8311 35.2196C11.8322 36.1286 11.8296 36.4129 12.6101 37.5126C12.829 37.8209 13.0029 38.1128 13.1741 38.3991C13.3379 38.3987 13.5052 38.4008 13.6817 38.4103C15.0388 38.4837 15.2853 38.3243 16.0783 37.8233C17.1707 37.1332 17.9398 36.2517 18.5045 35.2218Z" fill="#525D62"/>
<path d="M18.3714 27.7212C17.7684 27.7644 17.6509 27.9346 17.3295 28.215C16.891 28.5977 16.3964 28.83 16.1195 29.3294C15.574 30.3133 15.0267 31.3056 14.403 32.2452C13.7179 33.2774 13.3167 34.4248 13.3473 35.8032C13.3668 36.6796 13.3698 36.9537 14.1636 38.0296C14.2602 38.1605 14.3456 38.287 14.4287 38.4124C15.1746 38.3866 15.4627 38.2047 16.0835 37.8125C17.1729 37.1244 17.9406 36.246 18.5048 35.2198C18.5866 35.0712 18.6644 34.9194 18.738 34.7647C19.1342 33.9313 19.5781 33.1189 20.0312 32.3144C20.1818 32.047 20.3334 31.7805 20.4846 31.5143L20.4893 31.5061C20.7978 30.9632 20.7591 30.3838 20.8827 29.7656C20.9733 29.3124 21.067 29.1067 20.8053 28.5421C20.6412 28.1882 20.5306 27.8561 20.4059 27.5277L20.3972 27.5274C19.6525 27.495 19.097 27.6693 18.3714 27.7212Z" fill="#95A3AA"/>
<path d="M21.9592 28.6196C21.8921 28.5511 21.8204 28.4874 21.7469 28.4258C21.7858 28.5065 21.8237 28.5867 21.8675 28.669C22.185 29.2653 22.1392 29.5228 22.07 29.9124C22.0613 29.9608 22.0524 30.0116 22.0436 30.0659C22.0115 30.2635 21.9962 30.4612 21.9815 30.6522C21.9473 31.0955 21.9151 31.514 21.6903 31.9141L21.6855 31.9227L21.6369 32.008C21.4749 32.2924 21.3128 32.5774 21.1521 32.8634C20.7564 33.5679 20.2969 34.4065 19.8882 35.2853C19.8012 35.4723 19.7078 35.6547 19.6107 35.8276C18.9853 36.9412 18.1372 37.7886 17.0178 38.418L17.0081 38.4236C16.1493 38.9065 15.828 39.0872 14.2182 38.9272C13.8611 38.8916 13.531 38.8809 13.21 38.8727C13.6823 39.0706 14.1551 39.2673 14.6249 39.4335C15.2055 39.4957 15.8047 39.6085 16.3378 39.4761C16.6785 39.3914 17.0196 39.3021 17.3408 39.1823C17.6788 39.0561 17.9602 38.8825 18.2331 38.677C18.7349 38.2988 19.2077 37.8913 19.6393 37.4495C19.8606 37.2231 20.073 36.9887 20.2703 36.7441C20.454 36.5163 20.6642 36.2894 20.7712 36.0149C20.9636 35.5218 20.6627 34.9205 20.8733 34.4303C21.1044 33.8923 21.6527 33.5985 21.9789 33.1284C22.2766 32.6996 22.4865 32.1878 22.6413 31.6869C22.8006 31.1716 22.8008 30.6151 22.6721 30.0468C22.5588 29.5465 22.3699 29.0388 21.9592 28.6196Z" fill="#AFBFC8"/>
<path d="M60.4855 12.9206C60.9317 13.2243 61.2034 13.6104 61.7614 13.8359C62.0426 13.9496 62.3525 14.0165 62.6241 14.1495C62.7555 14.2138 62.8674 14.3109 63.008 14.3465C62.5491 13.792 61.7807 13.1806 61.8283 12.5542C62.0537 12.68 62.1266 12.9054 62.3187 13.0584C62.5362 13.2314 62.7298 13.2748 63.0099 13.3501C63.7559 13.5507 64.5947 13.8036 65.257 14.1421C65.0996 13.9263 64.8877 13.7349 64.6984 13.5311C64.4118 13.2224 64.3733 12.904 64.1743 12.583C63.85 12.0599 63.4255 11.5053 62.6444 11.288C61.1834 10.8816 59.8114 11.6057 58.417 11.5984C58.4499 11.6056 58.4842 11.616 58.5186 11.6266L58.5254 11.6285C59.2123 11.8437 60.1663 12.7034 60.4855 12.9206Z" fill="#525D62"/>
<path d="M31.6462 13.0524C31.1542 13.0786 30.9116 12.8772 30.5018 12.8163C29.8343 12.7174 29.0433 12.6841 28.0998 13.2169C26.3347 14.2134 25.3817 15.9672 23.9395 17.1999C24.7472 16.6977 26.4218 16.4705 26.9141 16.3414C27.5675 16.17 28.0936 16.2142 28.8125 15.8856C29.1749 15.72 29.537 15.4944 29.9017 15.3515C30.0781 15.2824 30.2553 15.255 30.423 15.1563C29.5968 15.1537 28.4149 15.3837 28.065 14.8782C28.3778 14.7709 28.5963 14.8731 28.8918 14.8156C29.2262 14.7506 29.4535 14.6107 29.7903 14.4177C30.687 13.9036 31.7129 13.346 32.6114 13.0084C32.3116 12.9884 31.9712 13.035 31.6462 13.0524Z" fill="#525D62"/>
<path d="M3.37878 43.8399C3.07595 44.4833 2.76323 45.5493 2.37543 45.5074C2.43443 45.1965 2.56671 45.0895 2.64499 44.823C2.73349 44.5214 2.74438 44.2568 2.76794 43.8736C2.83076 42.8531 2.91799 41.7047 3.07204 40.793C2.95253 41.0146 2.85229 41.3093 2.74268 41.5738C2.57666 41.9743 2.38462 42.0382 2.20394 42.3202C1.9095 42.7796 1.60375 43.3764 1.53363 44.4451C1.40243 46.4441 1.95691 48.2811 2.06492 50.1752C2.10121 49.2317 2.59518 47.7828 2.70837 47.3179C2.85851 46.701 3.07322 46.3178 3.16643 45.5517C3.21341 45.1655 3.22948 44.7423 3.28905 44.3685C3.3177 44.1876 3.36832 44.0323 3.37878 43.8399Z" fill="#525D62"/>
<path d="M90.3957 34.888C90.3198 34.7057 90.2443 34.5157 90.1734 34.3193C90.1498 34.2539 90.1246 34.1905 90.1029 34.1228C90.082 34.058 90.0592 33.9928 90.0338 33.9261C90.0086 33.8595 89.9808 33.7914 89.9502 33.7208C89.87 33.5355 89.7791 33.353 89.6827 33.1599L89.5788 32.9503C89.5468 32.8848 89.5172 32.8201 89.4894 32.7559C89.4768 32.7266 89.4662 32.6985 89.4543 32.6695C89.4248 32.5982 89.3952 32.5268 89.3678 32.4574C89.3515 32.4161 89.3347 32.3762 89.3184 32.3356C89.3021 32.2949 89.2862 32.2536 89.2689 32.2137C89.201 32.0571 89.1371 31.9425 89.061 31.8443C89.0357 31.8117 89.0089 31.7809 88.9804 31.7509C88.6489 31.4041 88.4676 31.0432 88.2921 30.6941C88.2268 30.5644 88.1652 30.4419 88.0956 30.3187C87.904 29.9803 87.6558 29.6894 87.3748 29.4188C87.0938 29.1483 86.7798 28.8979 86.457 28.6403C86.3566 28.5603 86.2558 28.4798 86.1551 28.3981C85.9612 28.241 85.7764 28.085 85.6 27.9298C84.3657 26.8431 83.5531 25.7951 83.0653 24.6686C82.9538 24.4111 82.8652 24.1464 82.7886 23.8802C82.7631 23.7916 82.7335 23.7033 82.7121 23.6143C82.6793 23.4778 82.642 23.345 82.601 23.2141C82.4777 22.8218 82.3205 22.4473 82.1468 22.0461L82.0893 21.9136L82.0305 21.778L81.9365 21.5596C81.8224 21.2917 81.7564 21.0209 81.7149 20.7565C81.6942 20.6244 81.6797 20.4939 81.6683 20.3662C81.657 20.2384 81.6489 20.1137 81.641 19.9928C81.6285 19.8004 81.6163 19.6132 81.5932 19.4334C81.5817 19.3434 81.5674 19.2553 81.549 19.1692C81.5307 19.0831 81.5083 18.9989 81.4803 18.9172C81.4441 18.8114 81.4114 18.7045 81.3814 18.5967C81.2913 18.2732 81.2252 17.9424 81.1607 17.6197C81.0567 17.1 80.9585 16.6092 80.7737 16.1822C80.7221 16.063 80.6672 15.9567 80.606 15.8572C80.5375 15.7457 80.4527 15.6318 80.3588 15.5219C80.3119 15.4669 80.2627 15.4129 80.2121 15.3608C79.9594 15.0999 79.6724 14.8847 79.4635 14.8169C79.4112 14.7999 79.3604 14.7814 79.3109 14.7617C79.3332 14.8523 79.3516 14.9484 79.3636 15.0493L79.3641 15.0562C79.3741 15.1424 79.3794 15.229 79.3805 15.3156L79.3786 15.3778C79.3779 15.4468 79.3767 15.516 79.3714 15.5846L79.3663 15.6317C79.3596 15.706 79.3518 15.7801 79.3407 15.8533L79.3371 15.8743C79.3243 15.9561 79.3097 16.0371 79.293 16.1168V16.1172C79.5703 16.3175 79.8748 16.6458 80.0478 16.9542C80.1014 17.0496 80.1481 17.1513 80.1908 17.2652C80.3437 17.6733 80.407 18.1409 80.4738 18.636C80.5291 19.0457 80.5864 19.4695 80.7 19.8727C80.788 20.1851 80.7866 20.5307 80.785 20.8965C80.783 21.3561 80.7808 21.8769 80.9691 22.3887L81.0467 22.5976L81.0954 22.7272L81.1431 22.8538C81.3347 23.3652 81.5008 23.8309 81.5929 24.3512C81.6529 24.6907 81.7457 25.0292 81.8688 25.3576C82.3299 26.588 83.216 27.7271 84.6573 28.9428C84.7509 29.0218 84.8447 29.0996 84.9381 29.177C85.5389 29.6752 86.1063 30.1459 86.4373 30.794C86.4975 30.912 86.5499 31.0292 86.6052 31.1534C86.7542 31.4873 86.9083 31.8325 87.211 32.1666C87.3156 32.282 87.3888 32.4104 87.4636 32.6102C87.4922 32.6865 87.5179 32.764 87.5444 32.843C87.5757 32.9365 87.6075 33.0315 87.6438 33.1282C87.6669 33.1895 87.6915 33.2514 87.7186 33.3139L87.8067 33.5145C87.8883 33.6994 87.9654 33.874 88.0318 34.051C88.0824 34.1858 88.1225 34.3115 88.1547 34.435C88.222 34.6936 88.3078 34.9337 88.3908 35.1659C88.4507 35.3337 88.5073 35.4921 88.5556 35.6525C88.6427 35.9424 88.4666 36.4968 88.348 36.8701C88.19 37.3675 87.9514 37.7776 87.6221 38.1202C87.7031 38.1362 87.7831 38.1495 87.863 38.1621C87.8929 38.1669 87.9227 38.1716 87.9523 38.1757C88.0195 38.1853 88.0861 38.1935 88.1524 38.2006C88.2032 38.206 88.2535 38.2099 88.3038 38.2139C88.3531 38.2177 88.4025 38.2219 88.4512 38.2243C88.5527 38.2292 88.6531 38.2315 88.7512 38.2298H88.7537C88.9226 38.2266 89.0897 38.2083 89.2548 38.1782C89.4467 38.1433 89.6359 38.0918 89.8205 38.021C90.1358 37.6529 90.3509 37.2132 90.4764 36.6811C90.5695 36.2868 90.7077 35.701 90.5982 35.3974C90.5375 35.2295 90.4687 35.0636 90.3957 34.888Z" fill="#525D62"/>
<path d="M86.858 54.6213C86.7073 54.292 86.5945 53.9651 86.4834 53.6445C86.3361 53.7207 86.1861 53.795 86.0288 53.8633C85.7251 53.9951 85.4823 54.115 85.2764 54.2376L85.2837 54.2481C85.3092 54.233 85.3317 54.2176 85.3584 54.2025C85.4143 54.3392 85.4722 54.4764 85.5395 54.6144C86.0924 55.7491 86.0543 56.1302 85.9412 57.3442C85.7632 59.2534 85.2315 61.0401 84.462 62.7968C83.7614 64.396 83.1217 66.0333 82.4848 67.6582C82.1615 68.483 81.6823 69.0355 81.2313 69.772C80.9007 70.3117 80.7697 70.6037 80.2214 70.9424C79.5617 71.3498 79.0364 71.8497 78.3721 72.1481C78.4329 72.5331 78.5063 72.9074 78.6446 73.2651C79.6898 73.0588 80.3411 72.3151 81.2279 71.7387C81.7856 71.3763 81.9224 71.0697 82.2643 70.5012C82.7309 69.7256 83.2226 69.1412 83.562 68.2757C84.2306 66.5703 84.9024 64.852 85.6347 63.1724C86.4391 61.3274 87.0045 59.4554 87.2161 57.4612C87.3507 56.1932 87.3953 55.7952 86.858 54.6213Z" fill="#525D62"/>
<path d="M85.2405 52.8677C84.762 52.8583 84.2637 52.8219 83.8328 53.0336C83.3437 53.274 82.8715 53.5278 82.4188 53.8266C81.947 54.138 81.4456 54.3702 81.0013 54.7258C80.5695 55.0713 80.1688 55.4611 79.7589 55.8316C79.5991 55.9761 79.4418 56.1234 79.2883 56.2741L79.2449 56.3245C78.9134 56.7251 78.6075 57.1419 78.3152 57.5672C78.163 57.9029 78.0441 58.2571 77.8706 58.5818C77.7827 58.7467 77.6898 58.9084 77.5974 59.0702L77.5751 59.1236C77.4643 59.4039 77.3555 59.6957 77.2515 59.9911C76.8961 61.0005 76.5214 61.9906 76.1683 62.8996C76.1211 63.2427 76.0523 63.5818 75.9334 63.9095C75.7332 64.4614 75.3779 64.9383 75.176 65.4901C74.8288 66.4393 74.5977 67.5465 74.7621 68.564C74.909 69.4741 75.3964 70.2742 76.0267 70.9535C76.4169 71.374 76.8894 71.7862 77.4163 72.075C77.3601 71.7996 77.3009 71.5183 77.2206 71.2381C77.0243 70.5526 77.1038 70.1723 77.2241 69.5966C77.239 69.5251 77.2548 69.4499 77.2708 69.37C77.329 69.0796 77.3721 68.7968 77.4139 68.5232C77.5107 67.8891 77.6021 67.29 77.8638 66.628L77.8694 66.6137L77.9257 66.4722C78.1137 66.0006 78.3019 65.528 78.4888 65.0547C78.9495 63.8888 79.4876 62.5063 79.9858 61.0914C80.0919 60.7901 80.203 60.4925 80.316 60.2064C81.0441 58.3636 81.9325 56.7896 83.0321 55.3942L83.0418 55.382C83.8856 54.3114 84.2013 53.9108 85.6239 53.3908C85.9396 53.2755 86.2345 53.1379 86.5219 53.0012C86.0959 52.9388 85.6694 52.876 85.2405 52.8677Z" fill="#9DACB4"/>
<path d="M54.5177 45.654C52.9868 46.1596 51.9426 47.0588 51.1783 48.231C50.4825 49.2982 49.6877 50.3002 48.9012 51.2972C48.5019 51.8032 48.5136 52.4487 48.3299 53.0902C48.1952 53.5604 48.0715 53.7587 48.3497 54.4516C48.7999 55.5738 48.8348 56.4356 49.8244 57.7099C49.9435 57.7622 50.0584 57.8087 50.1699 57.8509C51.4402 58.3307 52.2429 58.1937 53.3443 58.3426C54.0842 58.4427 54.2463 58.2742 54.6694 58.0286C55.2464 57.6935 55.8751 57.5469 56.2681 57.0359C57.0422 56.0294 57.8194 55.0135 58.6838 54.0778C59.6334 53.0497 60.2498 51.8173 60.3654 50.2092C60.4389 49.1867 60.4654 48.8677 59.6171 47.4208C59.3324 46.9353 59.122 46.4924 58.9029 46.0548C58.4253 45.9498 57.9448 45.8545 57.4046 45.6973C55.7941 45.2286 55.4911 45.3325 54.5177 45.654ZM58.5441 46.3676C58.7008 46.6998 58.86 47.0385 59.0662 47.404C59.8012 48.7073 59.7704 48.9994 59.6825 49.9346C59.5439 51.4058 58.9614 52.5444 58.0825 53.5033C57.2825 54.3763 56.5593 55.3206 55.8393 56.2563C55.4737 56.7313 54.9032 56.8785 54.3752 57.1967C53.9884 57.43 53.8386 57.5874 53.1728 57.5118C52.1144 57.3915 51.3567 57.5619 50.0801 57.0381C49.8875 56.6578 49.7739 56.307 49.6752 55.9557L49.666 55.9538C49.5636 55.5884 49.4767 55.2223 49.3343 54.822C49.107 54.1835 49.2284 53.9926 49.3707 53.5464C49.565 52.9376 49.58 52.333 49.9665 51.8426L49.9724 51.8352L49.9728 51.8344C50.1619 51.5945 50.3515 51.3542 50.54 51.113C51.1087 50.385 51.668 49.6469 52.1781 48.8769C52.2728 48.7337 52.3717 48.5948 52.4748 48.4598C53.1859 47.5251 54.1031 46.7879 55.3507 46.319C56.2564 45.9787 56.5383 45.8692 57.9968 46.2439C58.1866 46.2927 58.3672 46.3319 58.5441 46.3676Z" fill="#BFD1DA"/>
<path d="M59.0667 47.4026C58.8606 47.037 58.7013 46.6984 58.5446 46.3661C58.3677 46.3304 58.1871 46.2913 57.9974 46.2425C57.4763 46.1086 57.1067 46.0374 56.8039 46.0156L56.8022 46.0268C56.921 46.0354 57.0466 46.0489 57.1913 46.0736C57.2688 46.221 57.3485 46.37 57.4399 46.5259C58.1917 47.8078 58.1681 48.0905 58.1031 48.9964C58.0007 50.421 57.4546 51.5129 56.6133 52.4236C55.8475 53.2527 55.1589 54.1526 54.4731 55.0444C54.125 55.4972 53.5679 55.6269 53.0567 55.9238C52.682 56.1415 52.5384 56.2907 51.8829 56.202C51.0942 56.0953 50.4771 56.1522 49.6758 55.9542C49.7745 56.3055 49.888 56.6563 50.0807 57.0366C51.3573 57.5605 52.1149 57.39 53.1734 57.5103C53.8391 57.5859 53.9889 57.4285 54.3758 57.1953C54.9038 56.877 55.4743 56.7299 55.8399 56.2548C56.5599 55.3191 57.283 54.3749 58.0831 53.5018C58.962 52.5429 59.5445 51.4043 59.683 49.9332C59.7709 48.9979 59.8017 48.7059 59.0667 47.4026Z" fill="#525D62"/>
<path d="M53.0562 55.9229C53.5674 55.626 54.1246 55.4963 54.4726 55.0435C55.1584 54.1517 55.847 53.2518 56.6129 52.4227C57.4541 51.512 58.0003 50.4201 58.1027 48.9955C58.1676 48.0896 58.1912 47.8069 57.4395 46.525C57.3481 46.3691 57.2683 46.2201 57.1908 46.0727C56.3826 45.9345 56.0536 46.0583 55.3446 46.3248C54.1005 46.7923 53.1851 47.5265 52.4749 48.4574C52.3718 48.5925 52.273 48.7313 52.1783 48.8745C51.6682 49.6446 51.1088 50.3827 50.5402 51.1106C50.3515 51.3521 50.1618 51.5926 49.9725 51.8328L49.9667 51.8403C49.5801 52.3306 49.5651 52.9352 49.3708 53.5441C49.2285 53.9901 49.107 54.1811 49.3344 54.8196C49.4768 55.2199 49.5637 55.586 49.6661 55.9514L49.6753 55.9533C50.4766 56.1514 51.0938 56.0944 51.8824 56.2011C52.5379 56.2898 52.6815 56.1405 53.0562 55.9229Z" fill="#95A3AA"/>
<path d="M28.3613 77.2745C28.0753 77.1737 27.7627 77.1206 27.4853 77C27.3512 76.9415 27.2352 76.8495 27.0931 76.8203C27.5763 77.3537 28.3713 77.9302 28.3517 78.5581C28.1208 78.4423 28.038 78.2204 27.8393 78.0763C27.6143 77.9131 27.4189 77.8785 27.1356 77.8158C26.3814 77.6487 25.5321 77.4336 24.8555 77.125C25.0223 77.3336 25.2426 77.5152 25.4407 77.7104C25.7408 78.0058 25.7935 78.3222 26.0067 78.6342C26.3541 79.1423 26.8029 79.6772 27.593 79.8594C29.0706 80.2002 30.4088 79.4154 31.8022 79.3604C31.1055 79.2412 30.0228 78.3457 29.6768 78.132C29.2176 77.8484 28.9289 77.475 28.3613 77.2745Z" fill="#525D62"/>
<path d="M64.685 69.4135C64.3303 69.5953 63.9787 69.8369 63.6206 69.9959C63.4475 70.0728 63.2719 70.1081 63.1086 70.2141C63.9343 70.1799 65.1045 69.8972 65.4767 70.3866C65.1692 70.5077 64.9462 70.4155 64.6536 70.4861C64.3224 70.566 64.1016 70.7158 63.7739 70.9237C62.9009 71.4774 61.901 72.0804 61.0186 72.4578C61.3189 72.4642 61.6569 72.4025 61.9807 72.3707C62.4711 72.3224 62.7224 72.5129 63.1345 72.5552C63.8058 72.6243 64.5975 72.6222 65.5163 72.0478C67.235 70.9734 68.1088 69.1787 69.4944 67.8828C68.71 68.4207 67.0472 68.7224 66.5612 68.8734C65.9161 69.0739 65.3885 69.0532 64.685 69.4135Z" fill="#525D62"/>
<path d="M61.716 84.207C61.3669 83.6084 60.9575 83.0315 60.4912 82.5181C60.2651 82.2691 60.0185 82.0592 59.7244 81.8911C59.4763 81.7492 59.2157 81.6308 58.969 81.4865C58.7167 81.3389 58.4968 81.1535 58.2733 80.9666C58.0429 80.774 57.8097 80.5827 57.5468 80.4353C57.2975 80.2953 57.0292 80.1892 56.7568 80.1026C56.511 80.0613 56.2665 80.0129 56.0286 79.9617L55.7701 79.9065C54.9608 79.7368 54.0919 79.617 53.1879 79.5502C53.065 79.5411 52.9369 79.5344 52.8098 79.5273C52.6905 79.5666 52.5721 79.6084 52.4547 79.6514C51.5966 79.9663 50.6398 80.524 49.7112 80.1699C49.4639 80.0755 49.2295 79.9462 48.9761 79.8677C48.6962 79.781 48.4215 79.784 48.1411 79.8693C47.8605 79.9547 47.6025 80.0961 47.3393 80.2227C47.0573 80.3584 46.7642 80.4728 46.4763 80.5952C45.2665 81.1093 44.0594 81.6501 42.9979 82.4368C42.2382 82.9996 41.5162 83.6472 41.0039 84.4499C40.9084 84.5996 40.8246 84.7543 40.7461 84.9113C41.1054 84.649 41.4697 84.4022 41.8144 84.1694C42.2073 83.9041 42.5782 83.6537 42.8926 83.4138C46.2943 80.8179 50.483 80.5295 53.3982 80.7444C55.89 80.9281 59.9979 81.651 61.6837 84.351C61.9098 84.7131 62.0921 85.1102 62.2213 85.5468C62.2469 85.6335 62.2666 85.7217 62.2832 85.8109C62.3057 85.5931 62.2416 85.3609 62.1729 85.1614C62.058 84.8275 61.8936 84.5115 61.716 84.207Z" fill="#9DACB4"/>
<path d="M13.9395 74.8374C13.8685 74.6297 13.7559 74.4195 13.5953 74.1947C13.5103 74.0755 13.4122 73.9532 13.2957 73.8204C13.013 73.4986 12.6731 73.1856 12.2564 72.8637C12.0769 72.725 11.8877 72.5881 11.6782 72.4453C11.6303 72.4126 11.5808 72.3809 11.5313 72.3491C11.365 72.2423 11.1762 72.1213 11.0177 71.9532C10.9673 71.8998 10.9192 71.8411 10.8747 71.7789C10.7278 71.5733 10.6377 71.3568 10.5506 71.1474C10.5019 71.0302 10.4559 70.9196 10.4031 70.8198C10.37 70.7573 10.332 70.6958 10.29 70.637C10.2242 70.5449 10.1462 70.4558 10.0578 70.3724C9.99597 70.3138 9.93042 70.2587 9.86501 70.2035C9.73871 70.0971 9.60822 69.9869 9.48824 69.8499C9.44955 69.8056 9.41327 69.7593 9.3791 69.7116C9.25233 69.5342 9.15973 69.3406 9.07797 69.1698L9.03608 69.0826C8.98202 68.9713 8.9292 68.8595 8.87637 68.7476C8.81313 68.6138 8.74984 68.4799 8.68457 68.3472C8.6513 68.2797 8.61567 68.2132 8.58009 68.1466C8.49263 67.9827 8.40205 67.8132 8.33428 67.6196C8.25728 67.399 8.2103 67.1782 8.16496 66.9646L8.14762 66.8832C8.06129 66.4814 7.9054 66.1163 7.65719 65.7342C7.5324 65.5421 7.39706 65.3366 7.25252 65.1342C7.10601 64.9293 6.96977 64.7553 6.83589 64.6025C6.38405 64.0868 5.75643 63.7476 4.97038 63.5941C4.43188 63.4889 3.89149 63.4508 3.3833 63.4764L3.38363 63.4756C3.22048 63.4837 3.06115 63.4991 2.90573 63.5202L2.84786 63.5289C2.69677 63.551 2.54913 63.5783 2.40837 63.6138C2.33099 63.6332 2.25455 63.6557 2.17915 63.681C2.06397 63.7198 1.95205 63.7677 1.84187 63.82C1.73556 63.8706 1.63084 63.9254 1.52986 63.9884C1.31049 64.3395 1.1856 64.7269 1.14885 65.1691C1.13867 65.292 1.1266 65.4373 1.12255 65.5823C1.12118 65.6306 1.12071 65.6788 1.12142 65.7263C1.12453 65.916 1.14772 66.0918 1.21421 66.2C1.28768 66.3197 1.36803 66.4362 1.45309 66.5594C1.57085 66.73 1.69267 66.9065 1.80219 67.1017C1.85455 67.1951 1.91426 67.2883 1.98471 67.3868C2.07712 67.5163 2.17825 67.6414 2.28546 67.7739L2.4013 67.9178C2.43711 67.9626 2.47076 68.0076 2.50266 68.0525C2.55318 68.1231 2.59969 68.1934 2.64527 68.2625C2.68372 68.3209 2.72147 68.3783 2.76133 68.4341C2.83952 68.5435 2.90888 68.6208 2.98636 68.6827C3.01218 68.7032 3.03895 68.7221 3.06718 68.74C3.14894 68.7916 3.22283 68.8457 3.29069 68.9017C3.49446 69.0694 3.64437 69.2533 3.79055 69.4327C3.86298 69.5214 3.93141 69.6053 4.00681 69.6882C4.16199 69.859 4.34098 70.0022 4.53636 70.1293C4.60144 70.1716 4.6685 70.2122 4.73702 70.2514C5.01129 70.408 5.31082 70.5423 5.61878 70.6804C5.71454 70.7234 5.81072 70.7665 5.90695 70.8106C7.3889 71.4899 8.37835 72.2252 9.0209 73.1245C9.10667 73.2445 9.18636 73.3681 9.25959 73.4946C9.33282 73.6212 9.39965 73.7504 9.45945 73.8815C9.50526 73.982 9.55427 74.0789 9.60639 74.1734C9.76251 74.4569 9.94541 74.7193 10.1456 74.9998L10.2119 75.0922L10.2796 75.1869L10.3881 75.3397C10.5532 75.5741 10.6552 75.827 10.7304 76.0747C10.7755 76.2234 10.8111 76.3702 10.8449 76.51C10.8628 76.5843 10.8805 76.6574 10.8993 76.7292C10.9551 76.9443 11.0193 77.1459 11.1228 77.3219C11.1673 77.3975 11.2093 77.475 11.2488 77.5537C11.3678 77.7896 11.4676 78.036 11.5647 78.2762C11.7213 78.6633 11.8691 79.0288 12.0822 79.3272C12.1417 79.4104 12.2021 79.4828 12.2674 79.5489C12.4859 79.7703 12.8315 79.9807 13.1164 80.0802C13.2115 80.1132 13.2996 80.134 13.3742 80.1387C13.4207 80.1417 13.4664 80.1461 13.511 80.1518C13.4802 80.0852 13.452 80.0134 13.4284 79.9366L13.4267 79.9293C13.4072 79.8643 13.3914 79.7982 13.3792 79.7311L13.3725 79.6817C13.364 79.6276 13.3561 79.5732 13.3515 79.5184L13.3497 79.48C13.3455 79.4205 13.3426 79.361 13.3423 79.3014L13.3427 79.2845C13.3427 79.2177 13.3444 79.1511 13.3482 79.0851C13.3632 78.8205 13.4036 78.5658 13.4383 78.3498C13.4674 78.1688 13.505 77.9905 13.5415 77.818C13.6084 77.5019 13.6714 77.2033 13.6772 76.9194C13.6835 76.6074 13.7206 76.3536 13.7973 76.0963C13.8147 76.0376 13.8329 75.9789 13.8511 75.9204C13.8876 75.8026 13.922 75.6913 13.9501 75.5821C14.0204 75.3077 14.0168 75.0641 13.9395 74.8374Z" fill="#95A3AA"/>
<path d="M13.5109 80.153C13.4801 80.0864 13.4519 80.0146 13.4283 79.9378L13.4266 79.9304C13.4071 79.8654 13.3913 79.7993 13.3791 79.7323L13.3724 79.6829C13.3639 79.6287 13.356 79.5744 13.3514 79.5195L13.3496 79.4812C13.3455 79.4217 13.3425 79.3621 13.3423 79.3026L13.3426 79.2857C13.3426 79.2189 13.3443 79.1523 13.3481 79.0863V79.0862C13.0863 78.984 12.7845 78.7867 12.5972 78.5791C12.539 78.515 12.486 78.4443 12.4348 78.3635C12.2513 78.0736 12.1362 77.7194 12.0143 77.3443C11.9135 77.0339 11.8092 76.7129 11.6597 76.4192C11.5439 76.1915 11.4998 75.9201 11.453 75.6329C11.3944 75.2721 11.3278 74.8632 11.1006 74.499L11.0073 74.3505L10.9488 74.2586L10.8918 74.1686C10.6619 73.8054 10.4597 73.4731 10.3131 73.0832C10.2175 72.8288 10.0942 72.5817 9.94654 72.3485C9.39319 71.4746 8.49107 70.7564 7.10742 70.0882C7.01756 70.0448 6.92764 70.0023 6.8381 69.9601C6.26247 69.6881 5.71869 69.4313 5.35248 68.9884C5.28589 68.9078 5.22594 68.8262 5.1627 68.7399C4.9922 68.5074 4.816 68.267 4.51511 68.0649C4.4111 67.9951 4.33212 67.9088 4.24234 67.767C4.20804 67.7128 4.1759 67.6571 4.14305 67.6004C4.10422 67.5333 4.06463 67.4651 4.02123 67.3963C3.99357 67.3528 3.96454 67.3091 3.9332 67.2654L3.83207 67.1256C3.73853 66.9967 3.65012 66.875 3.57043 66.7493C3.50983 66.6536 3.45921 66.5629 3.41558 66.4724C3.32453 66.2829 3.2201 66.1116 3.11916 65.9459C3.04616 65.8261 2.97726 65.7131 2.91525 65.5968C2.80318 65.3867 2.8799 64.917 2.93155 64.6008C3.00031 64.1793 3.14908 63.8105 3.38363 63.4766C3.22048 63.4846 3.06115 63.5001 2.90573 63.5211L2.84786 63.5298C2.69677 63.552 2.54913 63.5792 2.40837 63.6147C2.33099 63.6341 2.25455 63.6566 2.17915 63.6819C2.06397 63.7207 1.95205 63.7686 1.84187 63.821C1.73556 63.8716 1.63084 63.9264 1.52986 63.9893C1.31049 64.3404 1.1856 64.7278 1.14885 65.1701C1.13867 65.2929 1.1266 65.4382 1.12255 65.5832C1.12118 65.6316 1.12071 65.6798 1.12142 65.7273C1.12453 65.9169 1.14772 66.0928 1.21421 66.2009C1.28768 66.3206 1.36803 66.4372 1.45309 66.5604C1.57085 66.7309 1.69267 66.9074 1.80219 67.1027C1.85455 67.196 1.91426 67.2892 1.98471 67.3877C2.07712 67.5172 2.17825 67.6424 2.28546 67.7749L2.4013 67.9187C2.43711 67.9636 2.47076 68.0086 2.50266 68.0535C2.55318 68.1241 2.5997 68.1943 2.64527 68.2634C2.68372 68.3219 2.72147 68.3792 2.76134 68.435C2.83952 68.5444 2.90888 68.6217 2.98636 68.6836C3.01218 68.7041 3.03895 68.7231 3.06718 68.7409C3.14894 68.7925 3.22283 68.8466 3.29069 68.9026C3.49446 69.0703 3.64437 69.2543 3.79055 69.4336C3.86298 69.5223 3.93141 69.6062 4.00681 69.6891C4.16199 69.8599 4.34098 70.0031 4.53636 70.1302C4.60144 70.1725 4.6685 70.2132 4.73702 70.2523C5.01129 70.4089 5.31082 70.5432 5.61878 70.6814C5.71454 70.7243 5.81072 70.7675 5.90695 70.8115C7.3889 71.4908 8.37835 72.2261 9.0209 73.1254C9.10667 73.2454 9.18636 73.369 9.25959 73.4956C9.33282 73.6221 9.39965 73.7514 9.45945 73.8824C9.50526 73.983 9.55427 74.0799 9.60639 74.1744C9.76251 74.4578 9.94541 74.7202 10.1456 75.0007L10.2119 75.0931L10.2796 75.1878L10.3881 75.3406C10.5532 75.575 10.6552 75.8279 10.7304 76.0757C10.7755 76.2243 10.8111 76.3711 10.8449 76.511C10.8628 76.5852 10.8805 76.6584 10.8993 76.7301C10.9551 76.9453 11.0193 77.1468 11.1228 77.3228C11.1673 77.3984 11.2093 77.476 11.2488 77.5546C11.3678 77.7905 11.4676 78.0369 11.5647 78.2771C11.7213 78.6642 11.8691 79.0298 12.0822 79.3281C12.1417 79.4113 12.2021 79.4838 12.2674 79.5498C12.4859 79.7712 12.8315 79.9817 13.1164 80.0811C13.2115 80.1141 13.2996 80.1349 13.3742 80.1396C13.4206 80.1429 13.4663 80.1473 13.5109 80.153Z" fill="#525D62"/>
<path d="M61.3679 85.8002C61.3436 85.7183 61.3165 85.6372 61.287 85.5574C61.2619 85.4895 61.2342 85.4227 61.2056 85.3563L61.1929 85.3255C61.1251 85.1728 61.0476 85.0246 60.9613 84.8815L60.961 84.8811L60.9323 84.8315C59.4304 82.4254 55.5263 81.7947 53.3329 81.633C50.5714 81.4293 46.6124 81.6958 43.4329 84.1223C43.098 84.3778 42.7165 84.6354 42.3126 84.9081C40.9857 85.8041 39.3343 86.9191 39.137 88.2311C39.1191 88.3501 39.1101 88.4617 39.1078 88.5674C39.1061 88.6517 39.1105 88.7307 39.1186 88.8065C39.1217 88.8354 39.1269 88.8623 39.1314 88.89C39.1401 88.9432 39.1514 88.9941 39.1654 89.0425C39.172 89.0654 39.1784 89.0886 39.1862 89.1104C39.2101 89.1772 39.2378 89.2405 39.273 89.297C39.4973 89.6564 40.0066 89.9028 40.7867 90.0296C41.8395 90.2008 42.4437 89.9335 43.3583 89.5291C43.6608 89.3954 44.0036 89.2437 44.3852 89.102C46.1026 88.4643 47.8565 89.1786 49.3657 89.898C50.8948 90.6271 51.7869 90.8717 53.3537 90.4992C54.1625 90.3069 54.8101 90.391 55.4364 90.4723C55.5863 90.4918 55.7413 90.512 55.9049 90.5291C56.6256 90.605 57.461 90.3782 58.2563 90.122C59.8026 89.6238 61.8543 87.4437 61.3679 85.8002Z" fill="#95A3AA"/>
<path d="M61.287 85.5552C61.2619 85.4873 61.2342 85.4206 61.2055 85.3542L61.1929 85.3233C61.1251 85.1706 61.0476 85.0224 60.9612 84.8794L60.961 84.8789C60.7277 86.3217 59.2182 87.8985 57.9872 88.3599C57.2047 88.6531 56.3808 88.9186 55.6574 88.8766C55.4932 88.867 55.3374 88.8542 55.1868 88.8418C54.5574 88.7899 53.9066 88.7363 53.1076 88.9663C51.56 89.4117 50.6574 89.2091 49.0958 88.5524C47.5546 87.9044 45.7693 87.2731 44.0836 87.9905C43.7092 88.1498 43.3738 88.3174 43.0778 88.4652C42.1833 88.9119 41.5923 89.2072 40.5326 89.0855C39.8594 89.0083 39.3825 88.8331 39.1078 88.5652C39.1061 88.6495 39.1105 88.7285 39.1186 88.8044C39.1217 88.8332 39.1269 88.8602 39.1314 88.8878C39.1401 88.9411 39.1514 88.992 39.1654 89.0404C39.172 89.0632 39.1784 89.0864 39.1862 89.1082C39.2101 89.175 39.2378 89.2384 39.273 89.2948C39.4973 89.6542 40.0066 89.9007 40.7867 90.0274C41.8395 90.1986 42.4437 89.9314 43.3583 89.5269C43.6608 89.3932 44.0036 89.2415 44.3852 89.0999C46.1025 88.4622 47.8565 89.1764 49.3657 89.8959C50.8948 90.625 51.7869 90.8696 53.3537 90.4971C54.1625 90.3048 54.8101 90.3888 55.4364 90.4701C55.5863 90.4896 55.7413 90.5098 55.9049 90.5269C56.6256 90.6028 57.461 90.3761 58.2563 90.1198C59.8027 89.6216 61.8544 87.4415 61.368 85.7979C61.3436 85.7162 61.3165 85.6351 61.287 85.5552Z" fill="#525D62"/>
</svg>
