<svg width="32" height="32" viewBox="0 0 32 32" fill="none" xmlns="http://www.w3.org/2000/svg">
<circle cx="16" cy="16" r="16" fill="#262626"/>
<path fill-rule="evenodd" clip-rule="evenodd" d="M9.875 12.6249H7.5C6.948 12.6249 6.5 13.0729 6.5 13.6249V18.3749C6.5 18.9269 6.948 19.3749 7.5 19.3749H9.875L13.854 22.7459C14.504 23.2969 15.5 22.8349 15.5 21.9829V10.0169C15.5 9.16486 14.503 8.70286 13.854 9.25386L9.875 12.6249Z" stroke="white" stroke-width="1.5" stroke-linecap="round" stroke-linejoin="round"/>
<path d="M19.537 19.9785C20.699 19.2565 21.5 17.7545 21.5 16.0055C21.5 14.2565 20.699 12.7535 19.537 12.0225" stroke="white" stroke-width="1.5" stroke-linecap="round" stroke-linejoin="round"/>
<path d="M22.505 23.0645C24.313 21.5095 25.5 18.9295 25.5 16.0025C25.5 13.0715 24.311 10.4895 22.5 8.93555" stroke="white" stroke-width="1.5" stroke-linecap="round" stroke-linejoin="round"/>
</svg>
