<svg width="136" height="126" viewBox="0 0 136 126" fill="none" xmlns="http://www.w3.org/2000/svg">
<g filter="url(#filter0_bd_7399_11489)">
<path d="M65.0628 74.1333L73.7501 59.0865L68.1828 55.8722L54.2832 79.947L54.895 85.3159L59.8505 83.1613L60.7192 81.6567L66.2865 84.8709L68.0239 81.8616L65.2403 80.2544L66.109 78.7498L68.8927 80.3569L70.6301 77.3476L65.0628 74.1333Z" fill="url(#paint0_linear_7399_11489)" fill-opacity="0.2" shape-rendering="crispEdges"/>
<path d="M64.8549 74.4933L64.4949 74.2855L64.7027 73.9254L73.1821 59.2387L68.335 56.4402L54.7118 80.0362L55.2445 84.7106L59.5589 82.8347L60.3591 81.4488L60.567 81.0887L60.9271 81.2966L66.1343 84.303L67.456 82.0138L65.0324 80.6145L64.6723 80.4066L64.8802 80.0466L65.7489 78.5419L65.9568 78.1818L66.3169 78.3897L68.7405 79.7889L70.0622 77.4997L64.8549 74.4933Z" stroke="url(#paint1_linear_7399_11489)" stroke-width="0.831556" shape-rendering="crispEdges"/>
</g>
<g filter="url(#filter1_bd_7399_11489)">
<mask id="path-3-inside-1_7399_11489" fill="white">
<path fill-rule="evenodd" clip-rule="evenodd" d="M63.917 43.5118L81.4801 38.8058L86.1862 56.369L68.623 61.075L63.917 43.5118ZM69.4852 46.7252L78.2667 44.3722L80.6198 53.1538L71.8382 55.5068L69.4852 46.7252Z"/>
</mask>
<path fill-rule="evenodd" clip-rule="evenodd" d="M63.917 43.5118L81.4801 38.8058L86.1862 56.369L68.623 61.075L63.917 43.5118ZM69.4852 46.7252L78.2667 44.3722L80.6198 53.1538L71.8382 55.5068L69.4852 46.7252Z" fill="url(#paint2_linear_7399_11489)" fill-opacity="0.2" shape-rendering="crispEdges"/>
<path d="M81.4801 38.8058L81.2649 38.0026L82.0681 37.7874L82.2834 38.5906L81.4801 38.8058ZM63.917 43.5118L63.1137 43.7271L62.8985 42.9238L63.7017 42.7086L63.917 43.5118ZM86.1862 56.369L86.9894 56.1538L87.2046 56.957L86.4014 57.1722L86.1862 56.369ZM68.623 61.075L68.8382 61.8782L68.035 62.0935L67.8198 61.2902L68.623 61.075ZM78.2667 44.3722L78.0515 43.569L78.8547 43.3538L79.07 44.157L78.2667 44.3722ZM69.4852 46.7252L68.6819 46.9405L68.4667 46.1372L69.2699 45.922L69.4852 46.7252ZM80.6198 53.1538L81.423 52.9386L81.6382 53.7418L80.835 53.957L80.6198 53.1538ZM71.8382 55.5068L72.0534 56.31L71.2502 56.5253L71.035 55.722L71.8382 55.5068ZM81.6954 39.609L64.1322 44.3151L63.7017 42.7086L81.2649 38.0026L81.6954 39.609ZM85.383 56.5842L80.6769 39.021L82.2834 38.5906L86.9894 56.1538L85.383 56.5842ZM68.4078 60.2718L85.971 55.5658L86.4014 57.1722L68.8382 61.8782L68.4078 60.2718ZM64.7202 43.2966L69.4262 60.8598L67.8198 61.2902L63.1137 43.7271L64.7202 43.2966ZM78.482 45.1754L69.7004 47.5285L69.2699 45.922L78.0515 43.569L78.482 45.1754ZM79.8165 53.369L77.4635 44.5874L79.07 44.157L81.423 52.9386L79.8165 53.369ZM71.623 54.7036L80.4045 52.3506L80.835 53.957L72.0534 56.31L71.623 54.7036ZM70.2884 46.51L72.6414 55.2916L71.035 55.722L68.6819 46.9405L70.2884 46.51Z" fill="url(#paint3_linear_7399_11489)" mask="url(#path-3-inside-1_7399_11489)"/>
</g>
<path d="M72.6348 54.1905L73.4227 48.5112L71.3097 47.8561L72.6348 54.1905Z" fill="#FB9BEB"/>
<path d="M71.3025 47.8706L73.4155 48.5256L77.4927 45.9141L71.3025 47.8706Z" fill="#F4AEE9"/>
<path d="M78.7397 52.1308L77.1989 50.7089L77.4936 45.914L78.7397 52.1308Z" fill="#F4AEE9"/>
<path d="M77.4804 45.9102L77.1839 50.736L73.4157 48.5279L77.4804 45.9102Z" fill="#FB9BEB"/>
<path d="M72.6581 54.1472L73.4223 48.5116L77.1905 50.7197L72.6581 54.1472Z" fill="#E68CD7"/>
<path d="M72.612 54.2298L77.1681 50.7586L78.7089 52.1805L72.612 54.2298Z" fill="#C566B5"/>
<g filter="url(#filter2_d_7399_11489)">
<circle cx="53.9284" cy="56.3097" r="1.07143" fill="#D775FF" fill-opacity="0.3" shape-rendering="crispEdges"/>
</g>
<g filter="url(#filter3_d_7399_11489)">
<circle cx="49.6427" cy="45.9269" r="1.07143" fill="#D775FF" fill-opacity="0.3" shape-rendering="crispEdges"/>
</g>
<g filter="url(#filter4_d_7399_11489)">
<circle cx="77.5001" cy="80.6496" r="1.07143" fill="#D775FF" fill-opacity="0.3" shape-rendering="crispEdges"/>
</g>
<g filter="url(#filter5_d_7399_11489)">
<circle cx="90.3571" cy="75.5871" r="1.07143" fill="#D775FF" fill-opacity="0.3" shape-rendering="crispEdges"/>
</g>
<g filter="url(#filter6_d_7399_11489)">
<circle cx="45.3571" cy="71.298" r="1.07143" fill="#D775FF" fill-opacity="0.3" shape-rendering="crispEdges"/>
</g>
<defs>
<filter id="filter0_bd_7399_11489" x="45.7118" y="47.2997" width="36.6097" height="46.5882" filterUnits="userSpaceOnUse" color-interpolation-filters="sRGB">
<feFlood flood-opacity="0" result="BackgroundImageFix"/>
<feGaussianBlur in="BackgroundImageFix" stdDeviation="3.32623"/>
<feComposite in2="SourceAlpha" operator="in" result="effect1_backgroundBlur_7399_11489"/>
<feColorMatrix in="SourceAlpha" type="matrix" values="0 0 0 0 0 0 0 0 0 0 0 0 0 0 0 0 0 0 127 0" result="hardAlpha"/>
<feOffset/>
<feGaussianBlur stdDeviation="4.28571"/>
<feComposite in2="hardAlpha" operator="out"/>
<feColorMatrix type="matrix" values="0 0 0 0 0.860577 0 0 0 0 0.758333 0 0 0 0 1 0 0 0 1 0"/>
<feBlend mode="normal" in2="effect1_backgroundBlur_7399_11489" result="effect2_dropShadow_7399_11489"/>
<feBlend mode="normal" in="SourceGraphic" in2="effect2_dropShadow_7399_11489" result="shape"/>
</filter>
<filter id="filter1_bd_7399_11489" x="55.3456" y="30.2333" width="39.4119" height="39.4124" filterUnits="userSpaceOnUse" color-interpolation-filters="sRGB">
<feFlood flood-opacity="0" result="BackgroundImageFix"/>
<feGaussianBlur in="BackgroundImageFix" stdDeviation="3.32623"/>
<feComposite in2="SourceAlpha" operator="in" result="effect1_backgroundBlur_7399_11489"/>
<feColorMatrix in="SourceAlpha" type="matrix" values="0 0 0 0 0 0 0 0 0 0 0 0 0 0 0 0 0 0 127 0" result="hardAlpha"/>
<feOffset/>
<feGaussianBlur stdDeviation="4.28571"/>
<feComposite in2="hardAlpha" operator="out"/>
<feColorMatrix type="matrix" values="0 0 0 0 0.860577 0 0 0 0 0.758333 0 0 0 0 1 0 0 0 1 0"/>
<feBlend mode="normal" in2="effect1_backgroundBlur_7399_11489" result="effect2_dropShadow_7399_11489"/>
<feBlend mode="normal" in="SourceGraphic" in2="effect2_dropShadow_7399_11489" result="shape"/>
</filter>
<filter id="filter2_d_7399_11489" x="8.92837" y="11.3097" width="90.0002" height="90.0017" filterUnits="userSpaceOnUse" color-interpolation-filters="sRGB">
<feFlood flood-opacity="0" result="BackgroundImageFix"/>
<feColorMatrix in="SourceAlpha" type="matrix" values="0 0 0 0 0 0 0 0 0 0 0 0 0 0 0 0 0 0 127 0" result="hardAlpha"/>
<feMorphology radius="1.07143" operator="dilate" in="SourceAlpha" result="effect1_dropShadow_7399_11489"/>
<feOffset/>
<feGaussianBlur stdDeviation="21.4286"/>
<feComposite in2="hardAlpha" operator="out"/>
<feColorMatrix type="matrix" values="0 0 0 0 0.843137 0 0 0 0 0.458824 0 0 0 0 1 0 0 0 1 0"/>
<feBlend mode="normal" in2="BackgroundImageFix" result="effect1_dropShadow_7399_11489"/>
<feBlend mode="normal" in="SourceGraphic" in2="effect1_dropShadow_7399_11489" result="shape"/>
</filter>
<filter id="filter3_d_7399_11489" x="4.64272" y="0.926901" width="90.0002" height="90.0017" filterUnits="userSpaceOnUse" color-interpolation-filters="sRGB">
<feFlood flood-opacity="0" result="BackgroundImageFix"/>
<feColorMatrix in="SourceAlpha" type="matrix" values="0 0 0 0 0 0 0 0 0 0 0 0 0 0 0 0 0 0 127 0" result="hardAlpha"/>
<feMorphology radius="1.07143" operator="dilate" in="SourceAlpha" result="effect1_dropShadow_7399_11489"/>
<feOffset/>
<feGaussianBlur stdDeviation="21.4286"/>
<feComposite in2="hardAlpha" operator="out"/>
<feColorMatrix type="matrix" values="0 0 0 0 0.843137 0 0 0 0 0.458824 0 0 0 0 1 0 0 0 1 0"/>
<feBlend mode="normal" in2="BackgroundImageFix" result="effect1_dropShadow_7399_11489"/>
<feBlend mode="normal" in="SourceGraphic" in2="effect1_dropShadow_7399_11489" result="shape"/>
</filter>
<filter id="filter4_d_7399_11489" x="32.5001" y="35.6496" width="90.0002" height="90.0017" filterUnits="userSpaceOnUse" color-interpolation-filters="sRGB">
<feFlood flood-opacity="0" result="BackgroundImageFix"/>
<feColorMatrix in="SourceAlpha" type="matrix" values="0 0 0 0 0 0 0 0 0 0 0 0 0 0 0 0 0 0 127 0" result="hardAlpha"/>
<feMorphology radius="1.07143" operator="dilate" in="SourceAlpha" result="effect1_dropShadow_7399_11489"/>
<feOffset/>
<feGaussianBlur stdDeviation="21.4286"/>
<feComposite in2="hardAlpha" operator="out"/>
<feColorMatrix type="matrix" values="0 0 0 0 0.843137 0 0 0 0 0.458824 0 0 0 0 1 0 0 0 1 0"/>
<feBlend mode="normal" in2="BackgroundImageFix" result="effect1_dropShadow_7399_11489"/>
<feBlend mode="normal" in="SourceGraphic" in2="effect1_dropShadow_7399_11489" result="shape"/>
</filter>
<filter id="filter5_d_7399_11489" x="45.3571" y="30.5871" width="90.0002" height="90.0017" filterUnits="userSpaceOnUse" color-interpolation-filters="sRGB">
<feFlood flood-opacity="0" result="BackgroundImageFix"/>
<feColorMatrix in="SourceAlpha" type="matrix" values="0 0 0 0 0 0 0 0 0 0 0 0 0 0 0 0 0 0 127 0" result="hardAlpha"/>
<feMorphology radius="1.07143" operator="dilate" in="SourceAlpha" result="effect1_dropShadow_7399_11489"/>
<feOffset/>
<feGaussianBlur stdDeviation="21.4286"/>
<feComposite in2="hardAlpha" operator="out"/>
<feColorMatrix type="matrix" values="0 0 0 0 0.843137 0 0 0 0 0.458824 0 0 0 0 1 0 0 0 1 0"/>
<feBlend mode="normal" in2="BackgroundImageFix" result="effect1_dropShadow_7399_11489"/>
<feBlend mode="normal" in="SourceGraphic" in2="effect1_dropShadow_7399_11489" result="shape"/>
</filter>
<filter id="filter6_d_7399_11489" x="0.357076" y="26.298" width="90.0002" height="90.0017" filterUnits="userSpaceOnUse" color-interpolation-filters="sRGB">
<feFlood flood-opacity="0" result="BackgroundImageFix"/>
<feColorMatrix in="SourceAlpha" type="matrix" values="0 0 0 0 0 0 0 0 0 0 0 0 0 0 0 0 0 0 127 0" result="hardAlpha"/>
<feMorphology radius="1.07143" operator="dilate" in="SourceAlpha" result="effect1_dropShadow_7399_11489"/>
<feOffset/>
<feGaussianBlur stdDeviation="21.4286"/>
<feComposite in2="hardAlpha" operator="out"/>
<feColorMatrix type="matrix" values="0 0 0 0 0.843137 0 0 0 0 0.458824 0 0 0 0 1 0 0 0 1 0"/>
<feBlend mode="normal" in2="BackgroundImageFix" result="effect1_dropShadow_7399_11489"/>
<feBlend mode="normal" in="SourceGraphic" in2="effect1_dropShadow_7399_11489" result="shape"/>
</filter>
<linearGradient id="paint0_linear_7399_11489" x1="74.7185" y1="65.4449" x2="59.1352" y2="62.9482" gradientUnits="userSpaceOnUse">
<stop stop-color="#EDDFFF"/>
<stop offset="0.15" stop-color="#C99FFF"/>
<stop offset="0.48" stop-color="#8D4BE1"/>
<stop offset="0.875" stop-color="#C584DF"/>
<stop offset="1" stop-color="#D775FF"/>
</linearGradient>
<linearGradient id="paint1_linear_7399_11489" x1="75.7229" y1="63.7051" x2="58.0913" y2="61.7195" gradientUnits="userSpaceOnUse">
<stop stop-color="#8D4BE1"/>
<stop offset="0.244634" stop-color="#CEADF9"/>
<stop offset="0.5" stop-color="#FF9EEA"/>
<stop offset="1" stop-color="#D775FF"/>
</linearGradient>
<linearGradient id="paint2_linear_7399_11489" x1="86.4303" y1="46.3032" x2="62.6827" y2="52.0781" gradientUnits="userSpaceOnUse">
<stop stop-color="#EDDFFF"/>
<stop offset="0.15" stop-color="#C99FFF"/>
<stop offset="0.48" stop-color="#8D4BE1"/>
<stop offset="0.875" stop-color="#C584DF"/>
<stop offset="1" stop-color="#D775FF"/>
</linearGradient>
<linearGradient id="paint3_linear_7399_11489" x1="87.2339" y1="44.9114" x2="62.281" y2="52.774" gradientUnits="userSpaceOnUse">
<stop stop-color="#8D4BE1"/>
<stop offset="0.244634" stop-color="#CEADF9"/>
<stop offset="0.5" stop-color="#FF9EEA"/>
<stop offset="1" stop-color="#D775FF"/>
</linearGradient>
</defs>
</svg>
