<svg width="24" height="25" viewBox="0 0 24 25" fill="none" xmlns="http://www.w3.org/2000/svg">
<path fill-rule="evenodd" clip-rule="evenodd" d="M13.8723 17.0751L6.29273 20.8649C5.52995 21.2463 4.60869 21.0968 4.00566 20.4937V20.4937C3.40263 19.8907 3.25313 18.9694 3.63452 18.2067L7.42431 10.6271C7.56805 10.3395 7.84127 10.1386 8.15858 10.0871C8.47589 10.0356 8.79861 10.1398 9.02591 10.3672L14.1322 15.4735C14.3595 15.7008 14.4637 16.0235 14.4122 16.3408C14.3607 16.6581 14.1598 16.9313 13.8723 17.0751Z" stroke="#E4E2E4" stroke-width="1.5" stroke-linecap="round" stroke-linejoin="round"/>
<path d="M5 3.5V4" stroke="#E4E2E4" stroke-width="1.5" stroke-linecap="round" stroke-linejoin="round"/>
<path d="M5 7.5V7" stroke="#E4E2E4" stroke-width="1.5" stroke-linecap="round" stroke-linejoin="round"/>
<path d="M7 5.5H6.5" stroke="#E4E2E4" stroke-width="1.5" stroke-linecap="round" stroke-linejoin="round"/>
<path d="M3 5.5H3.5" stroke="#E4E2E4" stroke-width="1.5" stroke-linecap="round" stroke-linejoin="round"/>
<path d="M12 3.5C12.5064 3.75322 12.8797 4.2117 13.025 4.75892C13.1704 5.30614 13.0737 5.88942 12.7596 6.36052L12 7.5" stroke="#E4E2E4" stroke-width="1.5" stroke-linecap="round" stroke-linejoin="round"/>
<path d="M17 12.5013L18.1395 11.7417C18.6106 11.4276 19.1939 11.331 19.7411 11.4763C20.2883 11.6216 20.7468 11.9949 21 12.5013" stroke="#E4E2E4" stroke-width="1.5" stroke-linecap="round" stroke-linejoin="round"/>
<path d="M19 17.5V18" stroke="#E4E2E4" stroke-width="1.5" stroke-linecap="round" stroke-linejoin="round"/>
<path d="M19 21.5V21" stroke="#E4E2E4" stroke-width="1.5" stroke-linecap="round" stroke-linejoin="round"/>
<path d="M21 19.5H20.5" stroke="#E4E2E4" stroke-width="1.5" stroke-linecap="round" stroke-linejoin="round"/>
<path d="M17 19.5H17.5" stroke="#E4E2E4" stroke-width="1.5" stroke-linecap="round" stroke-linejoin="round"/>
<path d="M19 3.5V4" stroke="#E4E2E4" stroke-width="1.5" stroke-linecap="round" stroke-linejoin="round"/>
<path d="M19 7.5V7" stroke="#E4E2E4" stroke-width="1.5" stroke-linecap="round" stroke-linejoin="round"/>
<path d="M21 5.5H20.5" stroke="#E4E2E4" stroke-width="1.5" stroke-linecap="round" stroke-linejoin="round"/>
<path d="M17 5.5H17.5" stroke="#E4E2E4" stroke-width="1.5" stroke-linecap="round" stroke-linejoin="round"/>
<path d="M14 10.5L15 9.5" stroke="#E4E2E4" stroke-width="1.5" stroke-linecap="round" stroke-linejoin="round"/>
</svg>
