<svg width="24" height="25" viewBox="0 0 24 25" fill="none" xmlns="http://www.w3.org/2000/svg">
<path d="M6.126 14.3008L3 17.5008L5.5 19.0008L7 21.5008L10.899 17.4058" stroke="#E4E2E4" stroke-width="1.5" stroke-linecap="round" stroke-linejoin="round"/>
<path d="M13.1011 17.4058L17.0001 21.5008L18.5001 19.0008L21.0001 17.5008L17.8741 14.3008" stroke="#E4E2E4" stroke-width="1.5" stroke-linecap="round" stroke-linejoin="round"/>
<path d="M16.9497 5.55025C19.6834 8.28392 19.6834 12.7161 16.9497 15.4497C14.2161 18.1834 9.78392 18.1834 7.05025 15.4497C4.31658 12.7161 4.31658 8.28392 7.05025 5.55025C9.78392 2.81658 14.2161 2.81658 16.9497 5.55025" stroke="#E4E2E4" stroke-width="1.5" stroke-linecap="round" stroke-linejoin="round"/>
<path fill-rule="evenodd" clip-rule="evenodd" d="M11.9989 13.0833L13.7959 14.0273C14.1459 14.2113 14.5549 13.9143 14.4879 13.5243L14.1449 11.5233L15.5989 10.1073C15.8819 9.83131 15.7259 9.35031 15.3349 9.29331L13.3259 9.00131L12.4279 7.18031C12.2529 6.82531 11.7479 6.82531 11.5729 7.18031L10.6749 9.00131L8.66491 9.29431C8.27391 9.35131 8.11791 9.83231 8.40091 10.1083L9.85491 11.5243L9.51191 13.5253C9.44491 13.9153 9.85391 14.2123 10.2039 14.0283L12.0009 13.0843H11.9989V13.0833Z" stroke="#E4E2E4" stroke-width="1.5" stroke-linecap="round" stroke-linejoin="round"/>
</svg>
