<svg width="24" height="25" viewBox="0 0 24 25" fill="none" xmlns="http://www.w3.org/2000/svg">
<path fill-rule="evenodd" clip-rule="evenodd" d="M2.99658 17.2946C5.20664 17.2946 6.99825 19.0862 6.99825 21.2963C6.99825 19.0862 8.78986 17.2946 10.9999 17.2946C8.78986 17.2946 6.99825 15.503 6.99825 13.293C6.99825 15.503 5.20664 17.2946 2.99658 17.2946Z" stroke="#F6F1F2" stroke-width="1.5" stroke-linecap="round" stroke-linejoin="round"/>
<path fill-rule="evenodd" clip-rule="evenodd" d="M13.0005 14.2946C15.2105 14.2946 17.0022 16.0862 17.0022 18.2963C17.0022 16.0862 18.7938 14.2946 21.0038 14.2946C18.7938 14.2946 17.0022 12.503 17.0022 10.293C17.0022 12.503 15.2105 14.2946 13.0005 14.2946V14.2946Z" stroke="#F6F1F2" stroke-width="1.5" stroke-linecap="round" stroke-linejoin="round"/>
<path fill-rule="evenodd" clip-rule="evenodd" d="M6.99805 7.29073C9.20811 7.29073 10.9997 9.08234 10.9997 11.2924C10.9997 9.08234 12.7913 7.29073 15.0014 7.29073C12.7913 7.29073 10.9997 5.49912 10.9997 3.28906C10.9997 5.49912 9.20811 7.29073 6.99805 7.29073Z" stroke="#F6F1F2" stroke-width="1.5" stroke-linecap="round" stroke-linejoin="round"/>
</svg>
