<svg width="32" height="33" viewBox="0 0 32 33" fill="none" xmlns="http://www.w3.org/2000/svg">
<path d="M10.2841 19.3994L12.3967 25.8616C12.5469 26.3209 13.1123 26.4848 13.4849 26.1772L19.7945 20.9686C19.7945 20.9686 13.0897 18.3532 13.0897 18.4959C13.0897 18.6385 10.2841 19.3994 10.2841 19.3994Z" fill="#B5D1DB"/>
<path d="M26.9313 6.98C22.8108 8.60983 9.51069 14.0599 4.4768 16.1248C3.81211 16.3974 3.852 17.3509 4.53637 17.569L10.2839 19.3998L12.3899 25.8414C12.4746 26.1004 12.6885 26.2675 12.9271 26.3124C13.1208 26.3488 13.4066 21.0958 13.4066 21.0958C13.4066 21.0958 19.4487 25.5767 22.3147 27.693C23.0209 28.2143 24.029 27.8223 24.1963 26.9607C25.0499 22.5607 27.1847 11.5586 27.9144 7.79744C28.0243 7.23204 27.4671 6.76819 26.9313 6.98Z" fill="white"/>
<path d="M12.9271 26.313C13.1208 26.3494 13.4065 21.0964 13.4065 21.0964L23.3329 11.7725C23.3999 11.7095 23.3198 11.6032 23.2407 11.6504L10.2837 19.4003L12.3898 25.842C12.4746 26.101 12.6885 26.268 12.9271 26.313Z" fill="#D6E2EA"/>
</svg>
