<svg width="14" height="14" viewBox="0 0 14 14" fill="none" xmlns="http://www.w3.org/2000/svg">
<path fill-rule="evenodd" clip-rule="evenodd" d="M0.577388 12.2438C0.251955 12.5692 0.251955 13.0968 0.577388 13.4223C0.90283 13.7477 1.43046 13.7477 1.7559 13.4223L6.99998 8.17817L12.2441 13.4223C12.5695 13.7477 13.0971 13.7477 13.4226 13.4223C13.748 13.0968 13.748 12.5692 13.4226 12.2438L8.17848 6.99967L13.4226 1.7556C13.748 1.43016 13.748 0.902524 13.4226 0.577083C13.0971 0.251649 12.5695 0.251649 12.2441 0.577083L6.99998 5.82117L1.7559 0.577083C1.43046 0.251649 0.90283 0.251649 0.577388 0.577083C0.251955 0.902524 0.251955 1.43016 0.577388 1.7556L5.82148 6.99967L0.577388 12.2438Z" fill="#F6F1F2"/>
</svg>
